<?xml version="1.0" standalone="no"?>
<!DOCTYPE svg PUBLIC "-//W3C//DTD SVG 1.1//EN" "http://www.w3.org/Graphics/SVG/1.1/DTD/svg11.dtd" >
<svg xmlns="http://www.w3.org/2000/svg">
<metadata></metadata>
<defs>
<font id="saffrontoonormal" horiz-adv-x="796" >
<font-face units-per-em="2048" ascent="1638" descent="-410" />
<missing-glyph horiz-adv-x="397" />
<glyph horiz-adv-x="0" />
<glyph unicode="&#xd;" horiz-adv-x="397" />
<glyph unicode=" "  horiz-adv-x="397" />
<glyph unicode="&#x09;" horiz-adv-x="397" />
<glyph unicode="&#xa0;" horiz-adv-x="397" />
<glyph unicode="!" horiz-adv-x="681" d="M489 45q0 37 17.5 60.5t54.5 23.5q59 0 60 -53q0 -43 -18.5 -65.5t-61.5 -22.5q-27 0 -39.5 12t-12.5 45zM598 178l430 799l152 12l-545 -811h-37z" />
<glyph unicode="&#x22;" horiz-adv-x="681" d="M688 961q0 43 9.5 66.5t37.5 23.5q27 0 37 -26t10 -64l-2 -60l-24 -321q0 -53 -21 -54q-20 0 -20 54l-25 321zM958 961q0 43 9.5 66.5t38.5 23.5q27 0 37 -26t10 -64l-2 -60l-25 -321q0 -53 -20 -54q-20 0 -21 54l-24 321z" />
<glyph unicode="#" d="M440 319v54h168l76 223h-147v53h168l108 316h64l-109 -316h195l104 316h63l-106 -316h152v-53h-172l-80 -223h151v-54h-172l-106 -319h-64l111 319h-193l-108 -319h-66l111 319h-148zM672 373h192l76 223h-190z" />
<glyph unicode="$" d="M371 209q0 74 49 125t125 51q27 0 54 -13.5t58 -33.5l111 209q-49 86 -49 186q0 111 84 181.5t196 70.5l60 111h39l-62 -113q29 -4 56.5 -13t56.5 -24l80 150h41l-92 -172q35 -27 54 -58.5t19 -74.5q0 -76 -45 -125.5t-108 -49.5q-37 0 -68 25l-102 -195q27 -57 36 -99 t9 -101q0 -104 -84 -184t-199 -80h-8l-61 -119h-37l61 121q-35 0 -65.5 6t-59.5 16l-76 -143h-36l84 160q-59 23 -90 72.5t-31 113.5zM395 201q1 -105 107 -158l94 178q-10 2 -15.5 19.5t-5.5 27.5l5 33q-8 20 -28 29.5t-44 9.5q-53 0 -83 -41t-30 -98zM532 31 q20 -12 54.5 -18.5t68.5 -6.5l195 369l-64 135l-106 -199q10 -27 10 -49q0 -27 -16.5 -45t-34.5 -18l-16 2zM696 6q90 0 146 70q49 61 49 133q0 43 -5.5 68.5t-15.5 60.5zM801 766q0 -33 4 -52.5t22 -56.5l160 304q-80 -10 -133 -61.5t-53 -133.5zM844 623l65 -138l92 177 q-12 12 -12 34q0 78 68 78l80 146q-16 14 -49 25.5t-64 15.5zM1092 758q16 -12 25 -35t18 -43q0 -4 6 -6t16 -4q25 0 47.5 33.5t22.5 89.5q0 31 -16.5 57t-45.5 49z" />
<glyph unicode="%" horiz-adv-x="1593" d="M608 602q0 174 153.5 355.5t307.5 181.5q80 0 115 -52q27 -39 26 -114q0 -162 -143 -367q-152 -217 -291 -217q-86 0 -131 70q-37 57 -37 143zM690 543q0 -49 24.5 -85t69.5 -36q96 0 238.5 202.5t142.5 370.5q0 61 -23.5 85t-58.5 24q-113 0 -253 -206t-140 -355z M756 -12l831 1163h45l-831 -1163h-45zM1190 213q0 174 153.5 355.5t307.5 181.5q80 0 114 -52q27 -39 27 -114q0 -162 -143 -367q-152 -217 -291 -217q-86 0 -131 72q-37 59 -37 141zM1272 154q0 -49 24.5 -85t69.5 -36q96 0 238.5 202.5t142.5 370.5q0 61 -23.5 85 t-58.5 24q-113 0 -253 -206t-140 -355z" />
<glyph unicode="&#x26;" horiz-adv-x="1024" d="M231 -377q0 104 68 172q86 88 178 88q6 0 8 -4t4 -6q0 -6 -34.5 -14.5t-67.5 -24.5q-51 -27 -80 -57q-51 -55 -51 -129q0 -104 92 -168q80 -55 166 -55q225 0 413.5 178t188.5 403q0 45 -8 98.5t-25 96.5q-78 -96 -168 -150q-109 -63 -229 -63q-119 0 -198.5 67.5 t-79.5 175.5q0 182 161 299q104 76 328 150q-14 51 -14 113q0 133 65 235q76 119 203 119q72 0 113 -43t41 -115q0 -123 -136 -215q-78 -53 -241 -115q8 -49 45 -139q20 -53 123 -272q63 78 137 175t119 165q100 145 202 221q86 63 158 63q76 0 76 -69q0 -74 -76 -74 q-29 0 -53.5 37t-40.5 37q-29 0 -96.5 -57.5t-122.5 -133.5q-43 -59 -111 -149q-76 -98 -182 -236q27 -66 39 -134t12 -142q0 -231 -170 -410q-178 -186 -430 -186q-125 0 -221 70q-104 76 -105 198zM518 199q0 -82 44 -134.5t124 -52.5q113 0 219 62q90 53 170 149 q-86 213 -172 428q-168 -66 -266 -166q-119 -122 -119 -286zM907 813q0 -31 1 -60.5t12 -66.5q193 74 233 100q127 80 127 207q0 55 -34 91t-91 36q-109 0 -182 -102q-66 -92 -66 -205z" />
<glyph unicode="'" horiz-adv-x="454" d="M705 961q0 43 9 66.5t38 23.5q27 0 37 -26t10 -64l-2 -60l-25 -321q0 -53 -20 -54q-20 0 -21 54l-24 321z" />
<glyph unicode="(" d="M653 70q0 354 295 716q281 346 754 605q41 23 73.5 38t41.5 15l8 -8q0 -6 -26.5 -19.5t-55.5 -27.5q-373 -199 -676 -605q-332 -444 -332 -833q0 -117 35 -213l78 -148l-6 -4q-6 0 -17 8q-25 20 -61 80q-63 100 -87 191.5t-24 204.5z" />
<glyph unicode=")" d="M63 -406q0 6 21 17q33 16 61 31q373 199 676 604q332 444 332 833q0 117 -35 213l-78 148l7 4q6 0 16 -8q25 -20 61 -80q63 -100 87 -191t24 -204q0 -354 -295 -717q-281 -346 -754 -604q-41 -23 -73.5 -38.5t-40.5 -15.5z" />
<glyph unicode="*" d="M694 1049q0 29 267 104q-92 59 -185 121q-37 27 -37 49q0 43 35 43q27 0 60 -35q72 -78 143 -153l12 211q0 55 41 55q20 0 32.5 -10.5t12.5 -26.5q0 -10 -16 -57q-33 -92 -53 -172q45 16 136 64t107 48q12 0 23.5 -13t11.5 -24q0 -31 -27 -43q-109 -25 -249 -59 q80 -51 157.5 -100.5t77.5 -65.5q0 -49 -47 -49q-12 0 -51 41q-80 84 -146 147q0 -190 -12 -235t-41 -45q-35 0 -35 37q0 31 25 118q35 121 35 125q-104 -57 -167 -87.5t-77 -30.5q-12 0 -22.5 13t-10.5 30z" />
<glyph unicode="+" horiz-adv-x="819" d="M469 256v63h254v256h61v-256h254v-63h-254v-256h-61v256h-254z" />
<glyph unicode="," horiz-adv-x="454" d="M338 -207q0 6 10 10q39 12 51 17q86 33 121 70.5t35 99.5q0 139 82 139q53 0 53 -51q0 -92 -126 -192.5t-214 -100.5q-4 0 -7 3z" />
<glyph unicode="-" horiz-adv-x="681" d="M457 248l24 80h453l-25 -80h-452z" />
<glyph unicode="." horiz-adv-x="454" d="M559 45q0 37 17.5 60.5t54.5 23.5q59 0 59 -53q0 -43 -18.5 -65.5t-61.5 -22.5q-27 0 -39 12t-12 45z" />
<glyph unicode="/" horiz-adv-x="569" d="M186 -12l1145 1456h72l-1145 -1456h-72z" />
<glyph unicode="0" d="M473 248q0 215 199.5 472t367.5 257q141 0 142 -170q0 -246 -191.5 -532.5t-345.5 -286.5q-86 0 -129 70.5t-43 189.5zM555 127q0 -55 20.5 -85t71.5 -30q147 0 328 314q174 303 174 510q0 57 -25.5 86.5t-83.5 29.5q-135 0 -310 -304t-175 -521z" />
<glyph unicode="1" d="M514 403q0 8 90 78q102 80 201 164q127 111 215 199q131 133 135 133q10 -12 10 -21q0 -29 -155 -346q-166 -338 -314 -598q-33 0 -75.5 -4t-79.5 -8q285 449 569 897l-4 4q-100 -104 -186 -188q-115 -111 -240 -211q-137 -109 -158 -109z" />
<glyph unicode="2" d="M346 -8q0 20 32 79.5t81 104.5q61 59 227 172q106 72 200.5 140.5t155 168t60.5 177.5q0 66 -36 92t-101 26q-119 0 -221.5 -93t-102.5 -191q0 -92 90 -93q66 0 133 80q55 66 84 142q14 39 31 63q2 2 4 8q10 -8 10 -14q0 -100 -71 -199q-82 -113 -187 -112 q-119 0 -119 119q0 115 109 215t246 100q104 0 162.5 -50t58.5 -141q0 -215 -262 -348q-127 -61 -252 -123q-82 -49 -158 -112.5t-76 -81.5l2 -6q41 35 66 51q80 53 139 53q51 0 82 -24q41 -33 41 -99q0 -63 49 -63q35 0 95 53q49 43 104 115q16 23 33 39l12 12 q10 -8 10 -12q-14 -23 -28 -43q-31 -41 -70 -86q-45 -55 -97.5 -89t-109.5 -34q-61 0 -87 27.5t-33 78.5t-14 65.5t-32 14.5q-31 0 -87 -37t-93 -84q-4 -6 -39 -49q-23 -29 -29 -29q-12 0 -12 17z" />
<glyph unicode="3" d="M408 166q0 35 22.5 65.5t54.5 30.5q33 0 48.5 -15.5t15.5 -41.5q0 -55 -68 -74q-29 -8 -28 -33q0 -37 37.5 -61.5t105.5 -24.5q113 0 229.5 133.5t116.5 255.5q0 78 -92 78q-43 0 -80 -16q-35 -20 -70 -39q-14 0 -14 16q0 8 49 32t117 67q137 86 197.5 164.5t60.5 150.5 q0 98 -106 98q-104 0 -197.5 -74.5t-93.5 -158.5q0 -27 19.5 -42t39.5 -15q47 0 100.5 47t96.5 114q12 20 18 39t14 19q6 -10 7 -17q0 -78 -64.5 -152.5t-148.5 -74.5q-49 0 -78 21.5t-29 68.5q0 80 96 162q104 88 228 88q74 0 131 -42t57 -116q0 -137 -190 -231 q-86 -41 -170 -80q90 -4 141 -49t51 -121q0 -133 -127 -241.5t-280 -108.5q-117 0 -172 55q-45 45 -45 123z" />
<glyph unicode="4" d="M428 178q0 2 53 76q78 109 154 238q117 199 246 473l163 12q-115 -168 -180 -260q-123 -174 -184 -256q-82 -109 -199 -244l4 -4q20 10 48 16.5t59 6.5q51 0 106.5 -8.5t98.5 -8.5q240 367 282.5 432.5t55.5 65.5q6 0 9 -4t5 -6q0 -4 -39 -80q-90 -176 -201 -404 q41 0 78 17q20 8 60 32l38 25l9 -10q0 -18 -54 -49q-68 -39 -143 -39l-90 -199l-164 -6l135 201q-53 0 -82 4q-88 12 -108 12q-51 0 -103 -23q-25 -12 -49 -22q-8 8 -8 12z" />
<glyph unicode="5" d="M412 147q0 53 24.5 85t63.5 32q63 0 63 -55q0 -33 -18.5 -47.5t-49 -19.5t-30.5 -46q0 -35 27.5 -59.5t89.5 -24.5q147 0 264 162q106 147 106 297q0 41 -30.5 67.5t-75.5 26.5q-63 0 -127 -43q-59 -49 -117 -96q-8 0 -12 4t-4 8l291 482q29 45 36 45q10 0 19 -2 q29 -10 46 -15.5t54 -10.5t72 -5q45 0 69.5 5t59.5 17l49 23l8 -8q0 -16 -43 -51q-106 -86 -256 -87q-35 0 -60 4.5t-54 18.5l-228 -358h4q41 43 84 65q55 29 115 29q92 0 145.5 -57.5t53.5 -147.5q0 -147 -143.5 -272t-293.5 -125q-100 0 -151 45t-51 114z" />
<glyph unicode="6" d="M469 227q0 252 238.5 501t447.5 249q80 0 127 -37t47 -102q0 -41 -22.5 -68t-49.5 -27q-63 0 -63 62q0 39 37 63q20 14 20 27q0 25 -25.5 41t-74.5 16q-147 0 -328 -209q-150 -174 -192 -311l4 -4q47 72 96 115q70 61 143 61q70 0 117 -55t47 -137q0 -143 -123.5 -283.5 t-269.5 -140.5q-88 0 -132 62.5t-44 176.5zM539 106q0 -41 22.5 -67.5t56.5 -26.5q111 0 224 170q106 160 106 285q0 113 -78 113q-115 0 -227 -179q-104 -166 -104 -295z" />
<glyph unicode="7" d="M518 -12q131 209 363 495q182 227 309 363l-4 4q-61 -31 -82 -39q-51 -20 -94 -20q-31 0 -76 24q-104 57 -115 57q-49 0 -96 -57q-111 -131 -113 -131q-27 0 -26 25q0 33 61 86q37 31 47 45q18 25 60 98q20 37 30 57l45 11q-57 -84 -112 -168l4 -4q37 33 82 67 q63 47 92 47t55 -14q10 -6 49 -35t47 -33q27 -14 62 -14q37 0 60.5 9t45.5 32q14 14 35 57q12 27 33 27q14 -10 14 -19q0 -20 -32 -59q-68 -80 -88 -111q-141 -205 -224 -331q-115 -180 -268 -457q-68 0 -100.5 -2t-63.5 -10z" />
<glyph unicode="8" d="M432 174q0 109 129 209q86 68 219 121q-37 63 -51 102q-23 57 -22 111q0 104 90 182t202 78q84 0 133.5 -41t49.5 -121q0 -102 -90 -180q-55 -47 -183 -107q41 -76 54 -104q26 -64 26 -117q0 -125 -99 -222t-243 -97q-100 0 -157.5 55t-57.5 131zM502 168 q0 -156 160 -156q98 0 161.5 70t63.5 168q0 57 -26.5 120.5t-65.5 112.5q-162 -70 -234 -157q-59 -72 -59 -158zM809 748q0 -53 27 -107q16 -33 59 -90q109 43 168 102q74 74 74 172q0 127 -138 127q-74 0 -132 -62.5t-58 -141.5z" />
<glyph unicode="9" d="M338 158q0 74 72 73q27 0 43 -18t16 -43t-16 -45q-37 -47 -37 -51q0 -61 121 -62q168 0 335 209q147 184 179 350l-4 4q-121 -207 -252 -206q-82 0 -122 57t-40 143q0 139 117.5 273.5t255.5 134.5q92 0 137 -64q39 -55 39 -157q0 -303 -228 -547q-207 -221 -409 -221 q-92 0 -146 37q-61 43 -61 133zM723 489q0 -96 86 -96q94 0 198.5 153.5t104.5 293.5q0 55 -19.5 83.5t-66.5 28.5q-123 0 -221 -198q-82 -166 -82 -265z" />
<glyph unicode=":" horiz-adv-x="681" d="M559 45q0 37 17.5 60.5t54.5 23.5q59 0 59 -53q0 -43 -18.5 -65.5t-61.5 -22.5q-27 0 -39 12t-12 45zM809 455q0 37 17.5 60.5t54.5 23.5q59 0 59 -54q0 -43 -18.5 -65.5t-61.5 -22.5q-27 0 -39 12.5t-12 45.5z" />
<glyph unicode=";" horiz-adv-x="681" d="M338 -207q0 6 10 10q39 12 51 17q86 33 121 70.5t35 99.5q0 139 82 139q53 0 53 -51q0 -92 -126 -192.5t-214 -100.5q-4 0 -7 3zM809 455q0 37 17.5 60.5t54.5 23.5q59 0 59 -54q0 -43 -18.5 -65.5t-61.5 -22.5q-27 0 -39 12.5t-12 45.5z" />
<glyph unicode="&#x3c;" horiz-adv-x="819" d="M449 256v63l569 265v-62l-500 -235l500 -234v-61z" />
<glyph unicode="=" horiz-adv-x="819" d="M469 145v62h569v-62h-569zM469 369v61h569v-61h-569z" />
<glyph unicode="&#x3e;" horiz-adv-x="819" d="M522 -8v61l500 234l-500 235v62l570 -265v-63z" />
<glyph unicode="?" d="M477 45q0 37 17.5 60.5t54.5 23.5q59 0 59 -53q0 -43 -18.5 -65.5t-61.5 -22.5q-27 0 -39 12t-12 45zM608 207q0 16 72 110q82 109 160 179q147 133 209.5 226t62.5 173q0 45 -30.5 69.5t-75.5 24.5q-76 0 -138.5 -48t-62.5 -114q16 -8 35 -14q27 -16 26 -53 q0 -23 -17.5 -40.5t-41.5 -17.5q-63 0 -64 78q0 88 89.5 161t187.5 73q78 0 126 -52.5t48 -136.5q0 -104 -61 -176q-23 -27 -246 -172q-96 -61 -166 -143q-53 -70 -105 -139z" />
<glyph unicode="@" horiz-adv-x="1638" d="M657 684q0 336 221.5 548t540.5 212q291 0 488.5 -177t197.5 -444q0 -182 -98 -331q-113 -170 -287 -170q-90 0 -145 63q-41 47 -41 84q-39 -49 -88 -86q-80 -59 -160 -59q-94 0 -147.5 65.5t-53.5 194.5q0 143 101 299q123 193 311 192q57 0 96 -28q31 -23 56 -70l22 82 h90l-135 -531q-10 -45 -10 -57q0 -39 35 -71.5t80 -32.5q154 0 241 155q80 139 80 326q0 197 -164 364q-186 190 -469 191q-289 0 -472 -193.5t-183 -515.5q0 -279 178 -461q188 -193 498 -192q156 0 278 43q33 12 135 57l29 -35q-164 -72 -258 -95t-182 -23 q-373 0 -596 241q-188 205 -189 455zM1159 578q0 -100 38 -142.5t110 -42.5q86 0 182 123q111 143 131 352q0 72 -30.5 105t-106.5 33q-117 0 -220.5 -138.5t-103.5 -289.5z" />
<glyph unicode="A" horiz-adv-x="2502" d="M373 479q0 225 167 384t402 159q221 0 361 -150q110 -118 110 -229q0 -76 -67 -76q-29 0 -46.5 23.5t-17.5 54.5q0 23 8 66t8 65q0 80 -86 140.5t-221 60.5q-205 0 -356 -152q-160 -160 -160 -391q0 -190 120 -306t333 -116q199 0 401 111q166 90 365 274q92 86 344 346 q-25 31 -45 45q-41 31 -97 31q-63 0 -108 -45l-66 -102q-6 0 -9 4t-3 6q0 57 70 119q59 51 141 51q43 0 87 -17.5t73 -48.5q401 406 545 537q154 141 196 141q53 0 53 -53q0 -16 -102 -181t-203 -329q-125 -203 -151 -264l30 2q106 0 179 -68.5t73 -181.5q0 -143 -98 -268 q-104 -133 -244 -133q-102 0 -153.5 67.5t-51.5 173.5q0 82 33 183q25 72 74 172q-39 -8 -96.5 -39t-71.5 -58q-41 -94 -68 -147q-51 -100 -102 -100q-16 0 -27.5 11t-11.5 23q0 61 103 166q39 39 86 80q8 41 8 90q0 33 -5 58.5t-22 44.5q-268 -274 -319 -324 q-203 -190 -373 -283q-217 -118 -440 -118h-4q-225 0 -381 131q-164 139 -164 360zM2099 760q27 -48 27 -103q0 -53 -17 -114q29 18 71 38.5t99 41.5q68 119 205 315q14 20 228 313q106 147 106 156q0 25 -18 25q-47 0 -701 -672zM2257 145q0 -66 23.5 -99.5t78.5 -33.5 q106 0 183 105.5t77 236.5q0 113 -50 182.5t-138 69.5l-33 -4q-57 -123 -92 -223q-49 -142 -49 -234z" />
<glyph unicode="B" horiz-adv-x="2048" d="M389 334q0 446 451 788q424 322 909 322q119 0 210 -16.5t150 -41.5q53 35 105 60q82 41 100 41q16 0 17 -17q0 -6 -25 -16q-86 -37 -162 -84q72 -29 117 -99.5t45 -148.5q0 -162 -135 -262q-104 -78 -266 -106q152 -18 245 -90q115 -86 115 -228q0 -188 -138 -314 t-323 -126q-127 0 -192 51q-76 59 -76 184q0 104 96 197q137 131 221 131l11 -8q0 -12 -33 -25q-115 -49 -182 -120q-80 -84 -80 -187q0 -170 172 -170q166 0 282 144q111 135 111 303q0 121 -77 178t-216 57q-20 0 -38.5 -6t-22.5 -6q-31 0 -31 26q0 29 43 29q12 0 24.5 -3 t30.5 -7q135 0 227.5 94t92.5 240q0 70 -21.5 127t-72.5 94q-174 -119 -400 -488q-299 -489 -379 -585q-238 -283 -508 -283q-184 0 -290.5 100.5t-106.5 270.5zM528 358q0 -164 66 -256q76 -106 233 -106q205 0 420 272q49 63 377 572q238 369 420 499q-72 37 -153 54.5 t-171 17.5q-455 0 -811 -293q-381 -314 -381 -760z" />
<glyph unicode="C" horiz-adv-x="1705" d="M510 1120q0 184 162 293q147 100 364 100q145 0 303 -51q121 -39 281 -121q207 90 446 91q178 0 179 -103q0 -63 -53.5 -125.5t-190.5 -163.5q78 -90 78 -94q0 -6 -5.5 -9t-7.5 -3q-10 0 -24 18q-33 41 -68 74q-195 -147 -495 -211q-211 -45 -459 -45q-49 -66 -78 -182.5 t-29 -210.5q0 -27 1 -36t16 -73q129 41 276.5 67.5t253.5 26.5q211 0 357 -77q161 -85 161 -230q0 -113 -120 -192q-113 -74 -244 -74q-223 0 -436 117t-320 309q-102 -35 -190 -76l-138 -69l-10 10q0 20 104.5 70.5t219.5 91.5q-41 100 -41 217q0 86 21.5 173t62.5 159 q-141 27 -248 106q-129 96 -129 223zM584 1178q0 -111 110 -205q102 -86 238 -115q113 160 289 279q145 98 356 184q-143 76 -282.5 111.5t-297.5 35.5q-174 0 -280 -59q-133 -75 -133 -231zM936 236q55 -184 219 -285t377 -101q150 0 277.5 72t127.5 166q0 104 -178 162 q-154 49 -387 49q-96 0 -183 -10t-253 -53zM1057 831q23 -4 62.5 -6t68.5 -2q215 0 393 49q213 59 367 183q-143 147 -320 239q-195 -106 -313 -196q-158 -121 -258 -267zM1669 1313q80 -47 164 -115t137 -125q70 49 125 113q76 86 76 145q0 41 -23.5 58.5t-89.5 17.5 q-100 0 -195.5 -23.5t-193.5 -70.5z" />
<glyph unicode="D" horiz-adv-x="1820" d="M344 82q0 57 43 87t152 30q66 0 194.5 -23.5t155.5 -28.5q84 61 137 115q70 68 123 154q-182 45 -297 174q-123 139 -123 328q0 242 170 389q158 137 391 137q129 0 246 -36t219 -99q43 41 96.5 75.5t67.5 34.5q16 0 16 -16q-37 -29 -74.5 -56.5t-68.5 -60.5 q158 -115 240 -252q90 -152 90 -336q0 -319 -269 -526q-240 -184 -534 -184q-129 0 -264 24q-14 2 -238 54q-92 -43 -159.5 -60.5t-153.5 -17.5q-76 0 -118 26.5t-42 67.5zM369 86q0 -33 38.5 -53.5t122.5 -20.5q61 0 128 17.5t114 46.5q-74 29 -167 49t-159 20 q-39 0 -58 -17t-19 -42zM782 985q0 -170 127 -326q121 -147 275 -192q137 223 276 446q166 262 221 318q-113 59 -233 96q-146 43 -277 43q-162 0 -268 -92q-121 -104 -121 -293zM930 139q248 -39 256 -41q141 -20 235 -20q338 0 516 203q139 158 140 356 q0 168 -101.5 324.5t-255.5 248.5q-47 -49 -134 -192.5t-173 -284.5q-113 -184 -180 -278q25 -4 42.5 -7.5t31.5 -3.5q141 0 243 43q82 35 141.5 103.5t82.5 152.5q8 27 16 27q12 0 12 -14q0 -51 -55 -133q-152 -223 -471 -224q-25 0 -46.5 3.5t-29.5 3.5 q-111 -156 -270 -267z" />
<glyph unicode="E" horiz-adv-x="1705" d="M391 213q0 18 125 94q139 84 254 129q0 217 156 340q137 109 389 142q-2 10 -5 32.5t-5 38.5q-39 -6 -91.5 -12t-97.5 -6q-178 0 -300 75.5t-122 198.5q0 133 110.5 215t268.5 82q96 0 225 -50t222 -128q74 41 131 57q74 23 151 23q53 0 90 -27.5t37 -77.5 q0 -125 -192 -227q-150 -80 -307 -100q0 -31 2 -46.5t8 -43.5q147 0 241.5 -39t94.5 -117q0 -43 -34 -68.5t-110 -25.5q-78 0 -168 55q-106 66 -141 166q-252 -33 -354 -133q-88 -86 -88 -240l4 -45q102 33 206.5 46.5t227.5 13.5q242 0 430 -102.5t188 -254.5 q0 -168 -137 -258q-113 -74 -270 -74q-268 0 -481 146q-229 156 -277 411q-53 -20 -102 -43.5t-97 -52.5q-86 -51 -131 -84q-35 -25 -36 -24q-14 0 -15 14zM739 1278q0 -84 123 -164q139 -90 330 -90q31 0 53.5 2t61.5 6q0 100 50 183t138 137q-100 61 -215 99t-229 38 q-133 0 -222.5 -52.5t-89.5 -158.5zM891 442q39 -215 248 -383t428 -168q147 0 232 55.5t85 159.5q0 158 -213 269.5t-457 111.5q-170 0 -323 -45zM1430 1044q160 27 268 76q170 78 170 195q0 49 -26.5 72.5t-96.5 23.5q-123 0 -215 -98q-100 -106 -100 -269zM1446 897 q16 -63 85 -127.5t132 -64.5q33 0 60.5 12t27.5 43q0 78 -119 112q-84 25 -186 25z" />
<glyph unicode="F" horiz-adv-x="1820" d="M305 475q0 152 51 232q42 67 103 67h2q68 0 67 -69q0 -84 -96 -84q-53 0 -73.5 -25t-20.5 -74q0 -213 152.5 -343t394.5 -130q147 0 278 78q106 63 232 199q-168 139 -269.5 337.5t-101.5 399.5q0 199 101.5 308.5t281.5 109.5q76 0 195 -33q78 -23 155 -45 q180 -51 201 -55q102 -25 172 -25t184 59q55 29 90 29q39 0 39 -41q0 -33 -27.5 -54.5t-88.5 -21.5q-166 0 -314 -137q-121 -113 -229 -313l131 -33q94 27 199 90q45 29 92 60q12 0 12 -13q0 -10 -82 -61q-96 -59 -180 -90q82 -39 130 -111t48 -162q0 -135 -116 -244.5 t-251 -109.5q-96 0 -177 33t-167 100q-139 -158 -274 -233q-166 -94 -367 -95q-203 0 -340 143.5t-137 356.5zM1057 1053q0 -193 119 -387q111 -182 266 -279q127 166 227 344h-41q-49 0 -84 18.5t-35 47.5q0 57 162 57l70 -4q84 154 166 246q102 117 229 172l-4 4 q-47 -10 -137 -10q-139 0 -365 47q-84 18 -183 33.5t-144 15.5q-127 0 -186.5 -81t-59.5 -224zM1468 369q57 -43 153.5 -78t172.5 -35q133 0 224 77t91 210q0 104 -90 174q-74 57 -139 57q-33 -10 -65 -20q-68 -20 -103 -21q-51 -92 -115 -186q-55 -84 -129 -178z" />
<glyph unicode="G" horiz-adv-x="1705" d="M526 575q125 178 305 179q41 0 78 -24.5t37 -65.5q0 -33 -17.5 -56.5t-49.5 -23.5q-47 0 -93 71q-20 35 -61 35q-94 0 -161.5 -111.5t-67.5 -238.5q0 -240 144 -399.5t343 -159.5q258 0 451 188q162 158 274 441q-100 -41 -209 -41q-154 0 -253 103t-99 259 q0 111 49 222.5t133 195.5q-33 70 -33 154q0 166 107.5 279.5t271.5 113.5q119 0 199 -70t80 -182q145 0 231 -47q109 -59 109 -189q0 -168 -156 -276q-137 -96 -309 -96q-139 0 -257 55t-192 168q-110 -170 -110 -363q0 -133 67.5 -214t198.5 -81q37 0 86 10.5t98 30.5 q121 199 211 283q80 74 152 74q23 0 37 -16.5t14 -41.5q0 -66 -64.5 -136t-201.5 -144q-164 -332 -395 -516q-246 -197 -535 -197q-223 0 -369 125q-155 132 -155 351q0 191 112 351zM1391 1339q0 -39 2 -68.5t10 -56.5q106 92 262 159t264 67q0 106 -72.5 168.5 t-181.5 62.5q-135 0 -209.5 -96t-74.5 -236zM1430 1126q45 -119 161.5 -188.5t249.5 -69.5q152 0 281 84q147 96 147 244q0 125 -100 180q-80 43 -215 43q0 -66 -30 -147.5t-46 -81.5q-4 0 -6 4t-2 8q16 31 32.5 85t26.5 128q-137 -12 -276.5 -95t-222.5 -194zM1888 504h4 q74 41 109 69q108 85 108 167q0 26 -32 26q-45 0 -109 -111q-41 -75 -80 -151z" />
<glyph unicode="H" horiz-adv-x="2502" d="M381 391q0 160 139 305q162 168 402 168q123 0 219 -68.5t112 -187.5l385 99q104 205 203 346q117 166 266 297l-4 4q-82 -49 -176 -85t-176 -36q-55 0 -103.5 14.5t-101.5 38.5q-66 31 -86 37q-45 16 -88 16q-53 0 -78.5 -47t-25.5 -118q0 -51 18.5 -116t39 -107 t42 -78.5t21.5 -38.5q0 -12 -15 -13q-18 0 -71 123q-59 137 -60 230q0 117 55.5 193.5t157.5 76.5q49 0 105 -23q25 -10 97.5 -50t104.5 -54q55 -23 113 -23q39 0 100.5 21.5t104.5 50.5q39 23 86 78q35 41 61 41q16 0 24.5 -12.5t8.5 -28.5t-31.5 -35.5t-62.5 -36.5 q-109 -74 -264 -303q-137 -201 -203 -350l352 96q147 252 407.5 455t428.5 203q55 0 91 -32t36 -87q0 -135 -166 -254q-129 -92 -352 -176q-88 -33 -318 -105q-63 -127 -99 -262t-36 -272q0 -98 29 -162q39 -84 122 -98q-10 57 -10 116q0 190 78 334q94 174 262 174 q98 0 154 -69q49 -61 49 -156q0 -176 -166 -311q-154 -125 -319 -125q0 -43 6 -77t12 -61q0 -14 -14 -14q-10 0 -19.5 31t-27.5 121q-127 23 -203 120t-76 230q0 115 28.5 225.5t84.5 216.5l-351 -94q-174 -332 -374 -502q-230 -196 -509 -196h-3q-180 0 -298 111.5 t-118 291.5zM475 414q0 -143 112.5 -254t262.5 -111q190 0 342 90q129 76 244 230q86 115 188 305l-371 -94q0 -150 -92 -261q-97 -118 -235 -118h-2q-59 0 -90 28.5t-31 77.5q0 135 192 221q72 33 176 62q-29 113 -113.5 177t-207.5 64q-55 0 -124 -26.5t-122 -67.5 q-70 -55 -99.5 -134t-29.5 -189zM864 340q0 -41 33 -67.5t78 -26.5q100 0 155 84q49 74 50 178l-4 55q-152 -47 -193 -67q-119 -62 -119 -156zM2195 852q262 78 441 174q305 164 305 342q0 80 -80 80q-119 0 -311 -162q-217 -180 -355 -434zM2238 96l3 -76 q160 0 278.5 104.5t118.5 260.5q0 104 -39 167.5t-107 63.5q-125 0 -196 -190q-58 -154 -58 -330z" />
<glyph unicode="I" horiz-adv-x="1478" d="M350 408q0 193 138.5 331t334.5 138q129 0 219 -64q100 -72 101 -199q0 -47 -13.5 -103t-37.5 -91q100 0 184 -42t135 -126q90 88 154 176q72 100 110 203q-78 104 -129 234t-51 249q0 145 48.5 237.5t146.5 92.5q96 0 167.5 -101.5t71.5 -261.5q0 -115 -53 -257 t-125 -240q41 -63 98 -113q10 -8 27 -20q0 -16 -14 -17q-8 0 -45 35t-86 88q-61 -86 -142.5 -173t-163.5 -159q18 -37 26.5 -82t8.5 -92q0 -156 -135 -258q-115 -86 -235 -86q-16 0 -17 12q0 10 68 21q111 18 184.5 122.5t73.5 227.5q0 25 -3 48.5t-12 54.5 q-127 -100 -269 -152.5t-320 -52.5q-182 0 -308 108q-137 119 -137 312zM440 487q0 -178 128 -312t309 -134q131 0 263 49t236 133q-37 84 -111.5 128t-156.5 44q-41 0 -100.5 -53t-110.5 -53q-43 0 -43 39q0 31 49 54.5t164 37.5q14 47 14 86q0 145 -90 235t-233 90 q-133 0 -225.5 -102.5t-92.5 -241.5zM1548 1202q0 -158 34 -290t110 -253q51 102 82.5 252t31.5 273q0 235 -124 235h-1q-59 0 -96 -59.5t-37 -157.5z" />
<glyph unicode="J" horiz-adv-x="1593" d="M328 137q0 154 32.5 227.5t94.5 73.5q27 0 44 -21.5t17 -51.5q0 -72 -82 -92.5t-82 -82.5q0 -90 33 -155.5t119 -135t167 -96t208 -26.5q92 0 201.5 47t187.5 119q-129 143 -195 299q-74 178 -74 391q0 180 88.5 325.5t260.5 223.5q96 43 294 63q168 10 340 22.5 t226.5 37t134.5 88.5q63 51 102 51q41 0 41 -49q-90 -41 -205 -105q-133 -72 -224 -216t-260 -447t-238 -410q-129 -195 -250 -285q45 -55 94 -99t98 -87l-10 -10q-16 0 -95 74.5t-106 107.5q-123 -96 -248 -149q-152 -66 -297 -66q-164 0 -284 113q-133 123 -133 321z M1053 522q0 -172 73 -329q59 -125 160 -234q145 121 320 422q143 258 288 516q168 279 314 373l-4 4q-264 -47 -529 -92q-119 -27 -207 -64q-205 -86 -310 -233.5t-105 -362.5z" />
<glyph unicode="K" horiz-adv-x="2502" d="M401 451q0 102 37 152t88 50q29 0 47.5 -16t18.5 -47q0 -63 -79 -89t-79 -67q0 -145 158 -265t338 -120q233 0 402 132t325 423l-47 -4q-80 0 -136.5 33t-56.5 69q0 47 38 76t132 29q35 0 77 -7t85 -20q127 213 152 250q86 131 178 227l-4 5q-61 -43 -158.5 -86 t-167.5 -43q-123 0 -160 124.5t-82 124.5q-61 0 -158.5 -115.5t-146.5 -232.5q-29 -63 -44 -121.5t-21 -58.5l-7 10q0 129 140 340q158 240 311 240q100 0 142 -132t89 -132q61 0 166 51q84 41 181 108q68 49 135 101q32 22 59 22h2q25 0 25 -18q0 -25 -131 -92 q-86 -43 -140 -101q-106 -115 -184 -245q-84 -156 -131 -240q35 -14 70 -33q29 -18 59 -35q166 66 358 271q152 164 306 327q176 160 352 160q88 0 139 -39t51 -96q0 -39 -21.5 -64.5t-58.5 -25.5q-67 0 -67 67q0 31 15.5 57.5t15.5 33.5q0 43 -91 43q-117 0 -245 -136 q-135 -152 -271 -301q-203 -201 -458 -311q90 -66 128 -139.5t38 -182.5q0 -41 -3.5 -90t-3.5 -53q0 -113 30 -160t112 -47q154 0 265.5 118t111.5 269q0 113 -38 163t-114 50q-59 0 -111 -39l-90 -90q-10 0 -10 13q0 20 70 84q85 77 174 77h2q96 0 151.5 -67.5t55.5 -167.5 q0 -168 -155 -301t-331 -133q-131 0 -193.5 84t-62.5 217q0 37 4 104.5t4 93.5q0 68 -8 101q-14 55 -53 84q-55 -23 -100 -37t-109 -27q-152 -276 -344 -432q-233 -188 -518 -188q-203 0 -326 129t-123 334zM1507 696q0 -71 100 -71h3l61 4l68 131q-33 6 -57.5 10t-47.5 4 q-51 0 -89 -20.5t-38 -57.5zM1722 635q45 8 92.5 22.5t81.5 30.5q-31 20 -38 25q-33 18 -74 30z" />
<glyph unicode="L" horiz-adv-x="1820" d="M309 82q0 51 97 51q47 0 169.5 -29.5t135.5 -29.5q51 0 166.5 63.5t177.5 132.5q72 84 151 224q31 53 123 227q-186 131 -186 358q0 172 120.5 285t297.5 113q49 0 77.5 -6.5t28.5 -14.5q0 -6 -5 -9t-7 -3q-14 4 -32.5 6t-53.5 2q-141 0 -238.5 -115.5t-97.5 -292.5 q0 -94 29.5 -163.5t89.5 -120.5q315 672 712 672q131 0 216 -81t85 -200q0 -242 -219 -401q-199 -143 -446 -144q-90 0 -172 19.5t-154 62.5q-86 -158 -151 -252q-96 -139 -205 -233q-127 -111 -262 -148q49 -10 432 -112q268 -72 401 -72q160 0 275 72q145 90 145 264 q0 51 -5 80.5t-7 50.5q0 14 10 14t18.5 -43t8.5 -114q0 -178 -160 -306q-151 -120 -345 -120h-3q-133 0 -297 59q-70 25 -277 123q-158 74 -225 90q-133 -41 -246 -41q-96 0 -134 18.5t-38 63.5zM1393 721q59 -47 139 -68.5t166 -21.5q240 0 397 137q168 145 168 383 q0 113 -43 176q-49 72 -152 72q-158 0 -299 -119q-111 -94 -221 -270q-61 -98 -155 -289z" />
<glyph unicode="M" horiz-adv-x="2502" d="M336 449q0 231 146.5 383.5t369.5 152.5q135 0 233.5 -90t98.5 -225q0 -150 -103 -250q-84 -82 -161 -82l-9 10q12 10 25 14q82 23 124 88.5t42 155.5q0 139 -95.5 232.5t-234.5 93.5t-252 -101q-123 -111 -123 -276q0 -211 149.5 -358.5t375.5 -147.5q354 0 663 363 q299 350 299 714q0 131 -41 201q-53 92 -178 92q-141 0 -249.5 -104.5t-108.5 -241.5q0 -96 32 -155q43 -78 131 -78q68 0 125 47q45 37 76 100q20 41 25 41q4 0 7 -4t5 -6q0 -41 -63 -119q-86 -104 -205 -104q-104 0 -166 65.5t-62 173.5q0 152 153 281t310 129 q182 0 269 -135q67 -104 67 -284v-5q0 -180 -44 -389t-120 -367l4 -4q72 129 149 263t157.5 251t183.5 230q-70 80 -117 233q-39 125 -39 186q0 12 6.5 20.5t16.5 8.5q16 0 24 -74q23 -209 125 -354q170 176 336 274q205 121 408 121q147 0 241 -67q106 -76 107 -222 q0 -205 -172 -319q-150 -100 -361 -100q-100 0 -200.5 33.5t-200.5 95.5q-92 -111 -150 -258q-63 -162 -63 -312q0 -229 156 -229q70 0 153 49q63 37 125 94q35 35 84 88q29 33 35 33l10 -8q0 -8 -12 -25q-2 -2 -31 -34q-102 -115 -216 -182.5t-210 -67.5q-109 0 -161 68.5 t-52 195.5q0 150 92 326q78 145 207 286q-23 16 -45 37t-49 49q-274 -283 -428 -544q-74 -127 -152 -324q-41 -106 -90 -107q-43 0 -43 41q0 51 56 117q145 170 215 524q14 72 23 151t9 140q-94 -342 -442 -643q-367 -317 -721 -317q-199 0 -334 121q-145 129 -145 340z M2406 965q14 -16 45 -44t48 -42q78 80 192 155q141 94 219 94q31 0 50.5 -17t19.5 -42q0 -29 -21.5 -48.5t-52.5 -19.5q-33 0 -69.5 16.5t-71.5 16.5q-43 0 -125 -65q-74 -59 -113 -111q68 -49 160 -74.5t184 -25.5q190 0 353 116q180 129 180 318q0 82 -62.5 132t-150.5 50 q-193 0 -422 -131q-184 -106 -363 -278z" />
<glyph unicode="N" horiz-adv-x="2162" d="M350 440q0 160 39 239t94 79q63 0 64 -70q0 -41 -29 -65q-20 -18 -62 -30.5t-57.5 -44.5t-15.5 -75q0 -178 168 -301q150 -111 321 -111q250 0 476 187q188 158 350 432q131 223 215 481q-84 119 -205 190.5t-260 71.5q-188 0 -324.5 -132t-136.5 -343q0 -133 74 -237 q82 -115 205 -115q139 0 239 123q35 43 72 127q12 29 18 28q14 0 15 -12q0 -104 -152 -231q-114 -96 -266 -96q-131 0 -219 98t-88 231q0 256 198 439q190 174 441 174q258 0 430 -172q18 70 37 141q6 29 28 29q25 0 25 -33q0 -20 -20.5 -95t-22.5 -85q86 -121 124 -267.5 t38 -320.5q0 -78 -9 -154q-14 -100 -20 -149l4 -4q100 254 246 462q158 223 356 379l-4 4q-77 -24 -170 -24h-8q-63 0 -117.5 8t-54.5 18q0 18 18 19q6 0 27 -6q47 -14 125 -15q59 0 128 16.5t101 39.5q104 80 162 123q108 79 165 79h1q59 0 59 -47q0 -51 -51 -84 q-41 -27 -186 -82q-193 -74 -385 -280q-150 -162 -283 -387q-111 -188 -131 -279q-29 -135 -57 -270q-14 -53 -58 -53q-41 0 -41 43q0 31 56.5 157.5t56.5 139.5q0 23 8 88t8 92q0 182 -36.5 329.5t-120.5 268.5q-123 -281 -258 -492q-180 -281 -379 -436 q-244 -190 -504 -190q-217 0 -339 129t-122 323z" />
<glyph unicode="O" horiz-adv-x="1478" d="M639 393q0 416 315.5 745.5t696.5 329.5q154 0 256 -96t102 -254q0 -174 -115 -321q-51 -199 -191 -389.5t-308 -307.5l63 -6q102 0 193.5 51.5t156.5 139.5q6 12 10.5 19t12.5 7l10 -14q-29 -41 -51 -64q-70 -76 -145 -112q-96 -51 -222 -51l-73 6q-72 -45 -163 -66.5 t-186 -21.5q-160 0 -261 117.5t-101 287.5zM778 401q0 -176 72 -282.5t199 -106.5q53 0 146 24.5t126 49.5q-133 45 -198.5 158.5t-65.5 277.5q0 260 189.5 506t393.5 246q129 0 203 -107q63 -92 64 -231q0 -16 -4.5 -47t-4.5 -45q29 35 47.5 101.5t18.5 125.5 q0 178 -87 275.5t-251 97.5q-336 0 -600 -350q-248 -331 -248 -693zM1151 559q0 -160 49 -274q57 -131 170 -172q156 94 268 260q104 152 158 342l-4 4q-61 -45 -147 -66.5t-170 -21.5q-66 0 -87.5 4t-21.5 16q0 10 16 11q6 0 33 -3.5t39 -3.5q121 0 198 20.5t158 88.5 q10 31 16.5 82t6.5 90q0 166 -54.5 239.5t-142.5 73.5q-170 0 -327.5 -216t-157.5 -474z" />
<glyph unicode="P" horiz-adv-x="1933" d="M397 483q0 137 36 216t106 79q71 0 71 -69q0 -41 -24.5 -62.5t-77.5 -28t-69.5 -29t-16.5 -87.5q0 -184 180 -324q168 -129 359 -129q115 0 213 38t190 118q-53 82 -77.5 199.5t-24.5 209.5q0 18 2 41t6 50q-12 4 -36 4t-38 2q-139 0 -227 -74t-88 -211q0 -74 56 -126 t132 -52q37 0 54.5 5t19.5 5l8 -10q0 -8 -24.5 -16.5t-55.5 -8.5q-102 0 -187 69.5t-85 170.5q0 147 127 221q104 61 262 61h36.5t49.5 -6q57 293 285 494q238 211 546 211q184 0 322 -103q151 -112 151 -292q0 -158 -114.5 -275t-270.5 -117q-100 0 -172 43q-79 48 -79 123 q0 37 21.5 60.5t55.5 23.5q66 0 66 -61q0 -20 -10.5 -44t-10.5 -38q0 -35 34 -54.5t91 -19.5q123 0 195 91t72 218q0 184 -120 298t-304 114q-256 0 -468 -206t-212 -474q74 -14 149 -39q100 -33 172 -78q104 221 225 396q96 139 181 223q70 70 90 70l8 -9q0 -12 -15.5 -23 t-27.5 -22q-119 -100 -238 -305q-96 -174 -190 -348q113 -78 180 -172q84 -117 84 -238q0 -98 -72 -151q-63 -47 -165 -47t-197.5 53t-153.5 141q-84 -78 -200 -129q-150 -65 -317 -65h-5q-199 0 -325 129q-138 139 -138 366zM1352 696q0 -119 20.5 -225t69.5 -192 q45 47 90 106q55 74 129 203q-70 41 -148.5 68.5t-160.5 39.5zM1458 246q37 -74 131 -146q102 -80 178 -80q78 0 124 37t46 113q0 111 -75 225q-68 104 -170 172q-49 -86 -106.5 -165.5t-127.5 -155.5z" />
<glyph unicode="Q" horiz-adv-x="1705" d="M510 283q0 119 81 193.5t195 74.5q117 0 238 -64q96 -51 207 -151q68 -61 176 -180q279 137 432 323q182 221 182 506q0 209 -102 321.5t-289 112.5q-47 0 -105.5 -15t-90.5 -36q186 -27 292 -131q119 -117 119 -305q0 -193 -136 -339.5t-323 -146.5q-156 0 -252 111 t-96 268q0 137 92.5 291t212.5 223l-30 7q-199 0 -342 -121q-168 -141 -168 -389q0 -35 2 -49.5t4 -26.5q0 -4 -3 -8t-5 -7q-12 0 -17.5 20.5t-5.5 88.5q0 209 142 354q156 162 415 162h49q27 14 54.5 27.5t60.5 23.5q63 23 139 23q201 0 323 -124t122 -349 q0 -260 -213 -502q-180 -205 -447 -330q184 -184 371 -368q252 -225 442 -226q145 0 263 82t192 248q16 37 19 37q8 -8 8 -12q0 -23 -33 -78q-10 -18 -37 -60q-80 -129 -216 -199.5t-316 -70.5t-330 113q-162 121 -453 495q-127 -51 -247.5 -75.5t-225.5 -24.5 q-147 0 -248.5 76t-101.5 207zM571 352q0 -143 118 -221t306 -78q164 0 326 68q-162 195 -234 260q-162 145 -307 145q-80 0 -144.5 -48t-64.5 -126zM1149 901q0 -176 84 -288.5t215 -112.5q145 0 230 111.5t85 267.5q0 201 -127 338q-112 122 -245 122h-2 q-96 -66 -156 -153q-84 -125 -84 -285z" />
<glyph unicode="R" horiz-adv-x="2162" d="M408 84q0 23 17 38t58 15q68 0 169.5 -24.5t211.5 -51.5q37 0 108.5 28t110.5 54q-143 86 -215 199q-86 135 -86 317q0 338 322 570q297 215 659 215q109 0 191 -14.5t164 -55.5q47 23 94 47q51 23 63 23q12 -8 13 -12q0 -2 -39 -17.5t-107 -56.5q61 -35 96 -99.5 t35 -138.5q0 -154 -147 -262q-139 -88 -279 -176q-149 -112 -149 -270t83 -264.5t228 -106.5q135 0 214 68.5t79 201.5q0 92 -53.5 149.5t-145.5 57.5q-45 0 -89 -27.5t-61.5 -57.5t-27.5 -30q-4 0 -7 3.5t-5 5.5q0 35 74 92q85 67 165 67h2q96 0 163 -62.5t67 -158.5 q0 -154 -148 -262q-137 -100 -305 -100q-145 0 -240.5 99t-95.5 249q0 176 142 295l262 180q143 113 143 264q0 150 -90 228q-178 -117 -334 -351q-127 -211 -252 -420q-154 -248 -309 -376q53 -41 154.5 -76t173.5 -35q41 0 81 -1t40 -13q0 -23 -61.5 -33t-297.5 -10 q-303 28 -372 28h-5q-43 0 -143 -18q-55 -10 -84 -10q-100 0 -167.5 28.5t-67.5 67.5zM885 674q0 -197 69 -318q51 -88 174 -182q135 111 269 336q221 375 243 408q170 246 392 403q-72 53 -158 71.5t-195 18.5q-305 0 -549.5 -218t-244.5 -519zM932 47q84 -20 176 -27.5 t203 -7.5l174 4q-90 2 -193 37q-80 27 -180 78q-33 -27 -81 -47.5t-99 -36.5z" />
<glyph unicode="S" horiz-adv-x="1705" d="M332 428q0 147 52 256t128 109q66 0 66 -66q0 -31 -20.5 -53.5t-51.5 -22.5q-25 0 -45.5 12.5t-28.5 12.5q-23 0 -39 -34t-16 -89q0 -217 164 -373q156 -147 346 -147q262 0 409 190q119 154 177 459q-66 -23 -146 -34t-149 -11q-195 0 -351 108q-176 123 -176 318 q0 168 117 274.5t285 106.5q113 0 235 -51q147 -61 342 -222q66 104 226.5 188.5t310.5 84.5q141 0 234 -73t93 -189q0 -158 -112 -240q-89 -65 -202 -65h-3q-66 0 -111 34.5t-77 102.5q-16 -27 -33 -43q-8 -8 -68 -62q39 -59 80 -116q47 -72 47 -86q0 -4 -4 -6.5t-8 -4.5 q-6 0 -55 82q-37 59 -78 115q-61 -49 -132 -92t-143 -74q-70 -219 -151 -358q-104 -178 -250 -273q-166 -108 -391 -108h-4q-188 0 -324 121q-143 127 -143 319zM696 1122q0 -205 207 -323q174 -100 393 -101q92 0 185 33q23 129 49 219q35 111 86 199q-129 109 -298 171 t-296 62t-219 -61q-106 -72 -107 -199zM1608 764q59 23 122.5 62.5t122.5 86.5q-66 82 -149 164q-23 -61 -51 -155q-20 -68 -45 -158zM1714 1102q27 -25 62 -62q49 -51 96 -108q39 29 70.5 64.5t35.5 56.5l-4 39q0 63 27 108t59 45q16 0 24.5 -11t8.5 -28q0 -33 -33 -88 q-23 -37 -53 -76q20 -68 55 -100q43 -41 113 -41q100 0 158.5 63t58.5 169q0 135 -73.5 206.5t-209.5 71.5q-135 0 -243 -90q-98 -82 -152 -219z" />
<glyph unicode="T" horiz-adv-x="1593" d="M416 492q0 125 40 210.5t105 85.5q31 0 50.5 -19t19.5 -52q0 -39 -30 -62.5t-71 -23.5q-49 0 -65 -21.5t-16 -66.5q0 -205 161 -346q156 -135 361 -136q291 0 516 261q72 82 346 534q201 330 383 426l-4 4q-51 -16 -117.5 -24.5t-136.5 -8.5q-111 0 -217 17 q-37 6 -194.5 39.5t-203.5 42.5q-120 22 -217 22h-8q-117 0 -197.5 -46t-113.5 -148q107 24 218 24h9q188 0 344 -84q190 -102 191 -276q0 -158 -124 -269.5t-290 -111.5q-156 0 -276 141q-129 152 -129 375q0 55 3 83t15 81q-96 -31 -168 -66q-51 -29 -100 -55l-6 10 q0 16 104 67.5t176 67.5q47 147 172 232.5t279 85.5q74 0 194 -25q78 -16 225.5 -54t235.5 -58q148 -33 238 -33q86 0 140 14t99 39q29 16 59.5 33.5t53.5 17.5q33 0 33 -28q0 -61 -160 -91q-100 -18 -145 -51q-160 -119 -369 -471q-242 -408 -367 -536q-246 -254 -577 -254 q-197 0 -333 142t-136 362zM782 1032q0 -190 143.5 -337.5t319.5 -147.5q113 0 192 64.5t79 162.5q0 182 -211 293q-176 92 -385 92q-63 0 -123 -12q-6 -20 -10.5 -58t-4.5 -57z" />
<glyph unicode="U" horiz-adv-x="1820" d="M573 819q0 238 214 431.5t452 193.5q115 0 180.5 -59.5t65.5 -167.5q0 -113 -58 -240q-43 -98 -139 -232q-66 -92 -155 -198q66 6 157 39q68 23 115 47q23 12 55 29q6 2 15 8l10 -8q0 -8 -4 -13q-10 -12 -51 -31q-57 -29 -160 -64.5t-160 -41.5q-88 -104 -143 -197 q-74 -125 -74 -211q0 -92 94 -92q100 0 301 121q145 88 273 186q20 178 192 459q160 260 350 457q203 209 307 209q29 0 42.5 -17.5t13.5 -46.5q0 -125 -150 -336q-117 -166 -317 -372q-129 -133 -283 -275q-33 -121 -33 -278q0 -51 25 -80t70 -29q35 0 87 25.5t105 62.5 q61 45 137 133q31 37 64 74q4 0 7 -4t5 -6q0 -8 -36 -49t-44 -51q-78 -90 -161 -144q-100 -63 -197 -63q-86 0 -135 67.5t-49 194.5v39q-158 -119 -269 -185q-193 -116 -307 -116h-2q-82 0 -123 45t-41 149q0 82 37 166q27 59 94 164q-164 0 -266 78q-111 84 -111 229z M676 819q0 -129 63 -198q74 -82 230 -82q53 68 217 249q131 145 180 226q74 121 74 235q0 92 -57.5 131t-159.5 39q-186 0 -357 -166q-190 -184 -190 -434zM1724 440l5 -4q272 252 479 512q233 295 233 430q0 41 -35 41q-86 0 -249 -205q-145 -180 -279 -421.5t-154 -352.5z " />
<glyph unicode="V" horiz-adv-x="2048" d="M537 682q0 68 211 223q59 238 235 388.5t399 150.5q244 0 375 -156q121 -143 121 -381q0 -315 -214 -572t-521 -302l82 -13q262 0 486 91.5t382 253.5q125 127 215 309q117 236 117 348q-12 41 -22.5 107.5t-10.5 132.5q0 182 78 182q33 0 49 -36t16 -132q0 -61 -4 -97 t-32 -218q20 -78 112 -144q84 -59 154 -59q10 0 15 -4t7 -6q0 -6 -5 -10.5t-7 -4.5q-80 0 -172 58.5t-119 132.5q-45 -156 -162 -334q-129 -197 -284 -322q-182 -147 -423 -213.5t-575 -66.5q-195 0 -317.5 29.5t-122.5 91.5q0 20 13.5 30.5t35.5 10.5q23 0 165 -50.5 t222 -50.5q317 0 524 219t207 547q0 238 -106 397q-123 186 -350 187q-182 0 -338 -158q-147 -150 -148 -295q39 27 114 45.5t122 18.5q180 0 295 -84q133 -96 133 -273q0 -156 -105.5 -247t-273.5 -91q-172 0 -281 129q-100 121 -100 291q0 82 12 131l-4 4 q-61 -45 -114 -104q-39 -45 -76 -90zM811 827q0 -178 113.5 -314t267.5 -136q117 0 186 53q78 59 78 170q0 160 -135 272q-125 104 -277 105q-51 0 -120.5 -18.5t-104.5 -43.5q0 -12 -4 -40.5t-4 -47.5z" />
<glyph unicode="W" horiz-adv-x="2048" d="M504 764q0 188 94 326q84 123 238 202q109 57 339 98.5t361 41.5q16 0 16 -19q0 -14 -12 -14q-131 0 -237 -199q-31 -57 -189 -450q-127 -315 -246 -474l4 -4q266 319 449 510q209 219 432 410q63 74 123 133q119 119 182 119q35 0 35 -31t-145.5 -126t-167.5 -109 q-86 -104 -156 -297q-80 -221 -80 -418q0 -190 52.5 -306t148.5 -116q182 0 377 217q184 205 286 485q-119 55 -184 183q-57 111 -57 233q0 109 55 191q63 94 170 94q84 0 131 -74t47 -201q0 -98 -21.5 -190t-64.5 -195q53 -26 113 -26h4q111 0 205 69q78 57 121 148 q6 10 12 22q0 2 4 4l8 -10q-6 -18 -12 -28q-37 -70 -92.5 -127.5t-137 -91t-159.5 -33.5q-49 0 -90 14q-115 -270 -303 -475q-242 -262 -490 -262q-119 0 -186 121q-59 106 -60 249q0 150 54 308q63 188 235 448l-4 4q-150 -154 -297 -305q-231 -238 -287 -297 q-127 -133 -207 -227q-33 -37 -151 -217q-72 -109 -129 -109q-33 0 -33 35t78 100q109 90 164 174q100 152 143 404t139.5 409.5t284.5 292.5v8h-76q-268 0 -497 -174q-272 -207 -273 -538q0 -78 15 -139q18 -57 36 -113l-10 -8q-25 0 -71 166q-31 106 -31 184zM2228 1206 q0 -123 56.5 -233.5t148.5 -163.5q25 74 36 153.5t11 167.5q0 281 -127 281q-59 0 -92 -53t-33 -152z" />
<glyph unicode="X" horiz-adv-x="1933" d="M410 244q0 137 110 237q96 86 254 129v31q0 391 219 614q184 188 428 189q141 0 228.5 -61.5t132.5 -180.5q193 145 348 203q127 47 258 47q88 0 138 -42t50 -136q0 -215 -276 -377q-233 -137 -600 -207q-43 -98 -117 -203q-63 -90 -147 -184q27 -119 123 -207t215 -88 q182 0 294 178q98 156 99 344q0 33 10 33q14 0 14 -45q0 -201 -106 -356q-135 -199 -387 -199q-133 0 -227.5 64.5t-131.5 185.5q-117 -115 -271.5 -178.5t-322.5 -63.5q-162 0 -248.5 77t-86.5 196zM479 322q0 -139 95.5 -214t265.5 -75q129 0 259 58.5t232 154.5 q-8 29 -12 56.5t-4 68.5q0 141 59 288q-195 -14 -324.5 -25t-250.5 -42q0 -43 5 -92t13 -111q-6 -10 -10 -10q-33 0 -33 209q-152 -47 -223.5 -111.5t-71.5 -154.5zM799 618q127 31 284.5 48.5t300.5 17.5q57 131 130 236.5t182 207.5q-29 117 -128.5 185.5t-238.5 68.5 q-201 0 -358 -192q-172 -211 -172 -524v-48zM1417 438q0 -29 2 -51t11 -47q76 84 131 162q66 94 98 182q-72 -10 -122 -16t-93 -6q-14 -45 -20.5 -108t-6.5 -116zM1450 690q55 0 101 5t118 18q23 57 35 128.5t12 139.5q0 51 -12 117q-88 -80 -152.5 -185.5t-101.5 -222.5z M1714 719q406 74 623 274q178 164 178 342q0 45 -30.5 68.5t-102.5 23.5q-147 0 -291 -63q-131 -57 -301 -190q6 -43 7 -55.5t1 -45.5q0 -84 -21.5 -167t-62.5 -187z" />
<glyph unicode="Y" horiz-adv-x="1933" d="M408 12q0 90 32 189q45 131 113 131q27 0 45 -20.5t18 -43.5q0 -72 -88 -102.5t-88 -112.5q0 -172 168 -307q160 -127 346 -127q258 0 451 158q150 123 332 418l-4 4q-131 -92 -217 -138q-135 -73 -229 -73h-3q-104 0 -151.5 61.5t-47.5 177.5q0 186 134 389 q125 162 251 326q135 178 136 295q0 66 -37 111q-43 51 -115 51q-90 0 -196.5 -50.5t-198.5 -129.5q-117 -104 -176 -224q-72 -143 -72 -325q0 -127 20 -232q23 -78 48 -155q0 -16 -9 -17q-16 0 -47 119q-37 143 -37 285q0 324 191 553q182 221 420 221q117 0 179 -58.5 t62 -173.5q0 -129 -116 -338q-109 -184 -215 -366q-119 -219 -119 -367q0 -72 25.5 -100.5t78.5 -28.5q94 0 246 84q90 51 219 144q113 246 275 510q180 293 340 473q184 209 294 209q33 0 50.5 -21.5t17.5 -54.5q0 -133 -141 -334q-127 -180 -346 -393q-190 -184 -441 -389 q-162 -299 -381 -476q-257 -206 -556 -206h-3q-195 0 -323 118q-135 125 -135 336zM1831 293l4 -4q272 236 563 579q311 371 312 490q-1 49 -46 49q-96 0 -260 -201q-141 -170 -307 -446q-115 -188 -266 -467z" />
<glyph unicode="Z" horiz-adv-x="1705" d="M295 27q0 29 41 40t104 11q47 0 125 -12.5t80 -12.5q47 0 162 49q137 59 252 150q154 123 376 356.5t443 466.5q-94 31 -238 115q-256 149 -363 149h-1q-129 0 -217 -151.5t-88 -341.5q0 -70 28 -139q68 -164 68 -197q0 -68 -41 -68q-49 0 -78 293q-51 57 -125.5 100.5 t-132.5 43.5q-16 0 -31 10q0 14 19 14q68 0 142.5 -40t125.5 -91l4 4l-4 62q0 252 130 429t306 177q106 0 334 -178q135 -106 209 -142q135 119 250 195q172 113 285 113q41 0 72.5 -25t31.5 -66q0 -127 -164 -213q-150 -79 -339 -79h-5q-33 0 -64.5 4t-60.5 8 q-59 -57 -366 -385q-219 -233 -383 -367q-226 -182 -453 -264q184 -2 457 -123q236 -111 471 -223q274 -121 463 -121q88 0 171 21.5t138 66.5q98 76 154 164q33 68 65 135q12 0 12 -16q0 -14 -24 -64q-59 -115 -160 -215q-82 -78 -195 -133q-145 -72 -288 -72 q-182 0 -420 144q-209 133 -416 266q-258 145 -479 145q-29 0 -80 -8q-146 -24 -174 -24h-2q-76 0 -101.5 10t-25.5 29zM1972 1106q39 -14 73 -19.5t71 -5.5q135 0 266 74q149 83 149 201q0 22 -18 36.5t-41 14.5q-117 0 -272 -109q-82 -57 -228 -192z" />
<glyph unicode="[" d="M326 -406l913 1850h502l-25 -49h-383l-864 -1751h387l-25 -50h-505z" />
<glyph unicode="\" horiz-adv-x="569" d="M547 1444h63l457 -1456h-63z" />
<glyph unicode="]" d="M139 -406l25 50h383l864 1751h-387l25 49h505l-913 -1850h-502z" />
<glyph unicode="^" horiz-adv-x="819" d="M657 549l207 416h51l209 -416h-63l-170 340l-172 -340h-62z" />
<glyph unicode="_" horiz-adv-x="1024" d="M0 -156h1024v-102h-1024v102z" />
<glyph unicode="`" horiz-adv-x="454" d="M477 973q0 14 13.5 29.5t33.5 15.5q47 0 66 -70q29 -109 55.5 -146.5t87.5 -88.5q27 -23 27 -27t-10 -8q-39 0 -152 108q-121 117 -121 187z" />
<glyph unicode="a" d="M340 289q0 4 6 12q23 27 27 33q88 106 200.5 173.5t217.5 67.5q45 0 66.5 -27.5t21.5 -74.5q0 -37 -7 -55l5 -4q14 23 55 98q26 49 57 49l98 4q-57 -74 -167 -254q-127 -209 -127 -258q0 -29 34 -28q41 0 123 71q72 63 168 176q16 18 31 33q6 0 10 -6q0 -4 2 -6 q-25 -29 -39 -45q-47 -55 -73 -84q-70 -74 -129.5 -119t-98.5 -45q-45 0 -67.5 30.5t-22.5 112.5l2 37q-78 -78 -121 -112q-84 -68 -133 -68q-72 0 -100.5 53t-28.5 135q0 29 2 44.5t8 52.5l-12 -6zM432 90q0 -65 46 -65h1q90 0 232.5 168.5t142.5 281.5q0 76 -63 76 q-117 0 -242 -174q-117 -164 -117 -287z" />
<glyph unicode="b" horiz-adv-x="681" d="M328 274q0 8 88 109q55 63 125 139q215 346 358 529q153 194 265 194h1q100 0 101 -98q0 -111 -226 -318q-201 -178 -399 -356q-47 -72 -117 -203q-82 -156 -82 -192q0 -27 9.5 -40t37.5 -13q121 0 228 112q123 131 123 324q0 63 11 86.5t50 23.5q25 0 37 -21t12 -54 q0 -78 -61 -189q-43 -76 -90 -131l18 -2q45 0 93 24.5t83 63.5q12 14 29 31l12 12l10 -10q0 -4 -32 -43q-90 -102 -213 -102l-23 2q-55 -53 -117 -93q-92 -59 -165 -59q-61 0 -91 40t-30 105q0 70 61 172q66 96 133 193l-4 4q-14 -16 -24 -29q-45 -49 -80 -86 q-72 -80 -84 -94q-33 -39 -37 -39zM672 539l4 -4l252 219q115 98 186 184q106 129 107 225q0 23 -13.5 40.5t-33.5 17.5q-109 0 -232 -185q-41 -61 -174 -319z" />
<glyph unicode="c" horiz-adv-x="569" d="M340 289q6 12 16 26q2 2 54 64q84 100 172 148t176 48q61 0 97 -25.5t36 -76.5q0 -31 -21.5 -59.5t-54.5 -28.5q-27 0 -39 14.5t-12 36.5q0 27 30.5 41.5t30.5 36.5q0 37 -47 37q-102 0 -209 -133q-116 -144 -116 -309q0 -84 84 -84h2q53 0 124.5 39.5t137.5 109.5 q84 88 102 109q10 12 19 24q6 0 10 -6q0 -4 2 -6q-14 -18 -23 -29q-33 -41 -57 -65q-96 -106 -174 -153.5t-156 -47.5q-88 0 -129 76q-33 59 -33 151q0 25 1.5 35t5.5 21l-4 4l-15 -8z" />
<glyph unicode="d" d="M340 289q2 6 6 12q14 20 55 68q88 98 183 155q104 63 200 64q41 0 69 -23.5t28 -70.5q0 -37 -4 -52l4 -4l446 803l121 4q-100 -182 -311 -545q-176 -303 -242 -421q-98 -178 -98 -216q0 -39 34 -38q25 0 67 28.5t103 91.5q63 61 115 121q14 16 35 41l12 -8 q-6 -10 -10 -16q-12 -16 -33 -41q-109 -127 -180.5 -184.5t-128.5 -57.5q-35 0 -55.5 30.5t-20.5 80.5q0 23 2 36t13 48l-5 4q-45 -68 -112 -125q-90 -74 -162 -74q-59 0 -88 56.5t-29 131.5v43.5t8 55.5l-12 -11q-10 8 -10 13zM436 80q0 -55 56 -55q82 0 219 159 q145 170 145 299q0 80 -59 80q-106 0 -233.5 -166t-127.5 -317z" />
<glyph unicode="e" horiz-adv-x="569" d="M340 289q0 4 18 26q31 37 58 64q88 90 181 143t173 53q47 0 74.5 -27.5t27.5 -72.5q0 -100 -165 -184q-117 -59 -256 -88q-4 -16 -6.5 -31.5t-2.5 -36.5q0 -61 18.5 -85.5t67.5 -24.5t117 34q84 43 170 129q37 37 80 91q25 29 29 28q10 -8 10 -12q0 -8 -48 -62.5 t-93 -95.5q-145 -137 -279 -137q-78 0 -120 65.5t-42 153.5q0 25 1 36t5 24l-8 -3zM459 227q115 14 225 92q127 90 127 191q0 41 -41 41q-78 0 -183.5 -114.5t-127.5 -209.5z" />
<glyph unicode="f" horiz-adv-x="454" d="M8 -563l318 583q-16 10 -20.5 31t-4.5 29q0 65 55 65h2q16 0 27 -6l236 424l-5 4q-45 -41 -96 -96q-39 -43 -76 -84q-29 -31 -67 -80q-25 -31 -29 -31l-10 11q18 23 35 43q68 82 133 153q49 55 119 121q45 43 65 80q131 242 230 375q182 248 317 248q76 0 76 -95 q0 -94 -88 -204q-72 -90 -228 -222q-16 -13 -311 -251l-244 -494q125 0 303 197q16 16 37 41.5t27 25.5l10 -10q0 -6 -51 -64q-33 -37 -51 -55q-66 -68 -140.5 -113t-150.5 -57l-293 -553zM707 586l4 -4q109 88 217 178q162 137 239 231q113 137 113 244q0 47 -57 47 q-76 0 -168 -106q-80 -90 -176 -263q-59 -104 -172 -327z" />
<glyph unicode="g" d="M121 -541q0 176 543 488q37 80 72.5 152.5t70.5 142.5l-4 4q-61 -88 -133 -154q-100 -92 -176 -92q-68 0 -97.5 47t-29.5 133q0 33 7 67t7 40l-8 6q-8 0 -19 -10l-4 -4l-8 12q2 2 4 6q18 27 62 74q78 82 182 139q117 65 204 65h3q106 0 106 -100q0 -45 -8 -72l4 -4 q33 51 43 72q25 43 43 86l133 10l-344 -575l4 -4q82 33 176 114q76 66 156 160q14 18 31 37q8 8 12 8l8 -10q0 -6 -22.5 -32.5t-51.5 -57.5q-78 -88 -170 -157.5t-155 -92.5q-45 -94 -131 -225q-100 -154 -201 -254q-123 -123 -207 -123q-102 0 -102 104zM174 -543 q0 -43 10.5 -60.5t48.5 -17.5q100 0 248 220q123 182 166 315q-104 -63 -209 -129q-264 -181 -264 -328zM440 88q0 -63 54 -63q104 0 247 182q137 174 138 266q0 39 -13.5 58.5t-48.5 19.5q-117 0 -247 -169t-130 -294z" />
<glyph unicode="h" d="M260 8q92 156 171 285t171 270q-27 -29 -57 -63q-84 -100 -105 -121q-31 -35 -65 -76q-27 -31 -31 -31q-8 8 -8 13q0 4 113 135q86 100 141 172q2 2 123 209q111 188 202 295q128 149 235 149h1q98 0 98 -102q0 -96 -141 -246q-88 -94 -274 -248q-166 -137 -189 -172 q-45 -80 -90 -159.5t-80 -131.5l4 -4q342 393 449 393q43 0 62.5 -30.5t19.5 -77.5q0 -57 -113 -213t-113 -201q0 -29 31 -28q70 0 240 178q16 16 80 90q20 25 24 24q10 -8 10 -12q-18 -25 -30 -39q-33 -41 -72 -82q-98 -109 -166 -151q-51 -33 -96 -33q-35 0 -55 23 q-27 29 -27 92q0 86 70 186q78 111 155 223q0 27 -22 27q-76 0 -289 -225q-199 -209 -250 -318h-127zM649 526l4 -4l275 244q276 242 276 408q0 20 -13 33.5t-48 13.5q-72 0 -168 -123t-207 -340z" />
<glyph unicode="i" horiz-adv-x="454" d="M340 291q6 6 10 12q29 35 51 64q63 70 97 106q62 67 80 94l129 8q-98 -164 -197 -327q-88 -147 -88 -180q0 -25 11 -34t28 -9q35 0 82 28q61 37 145 125q33 33 82 88q16 18 43 49q12 -6 12 -12q-16 -20 -28 -37q-37 -45 -97 -106q-152 -160 -241 -160q-47 0 -73 29.5 t-26 79.5q0 100 103 251q45 66 92 132l-4 4q-35 -35 -59 -62q-39 -43 -115 -129q-16 -20 -21.5 -23t-7.5 -3zM778 901q0 31 19.5 55.5t52.5 24.5q47 0 47 -55q0 -29 -19.5 -53.5t-52.5 -24.5q-47 0 -47 53z" />
<glyph unicode="j" horiz-adv-x="454" d="M-223 -553q0 88 94 188q72 76 215 172q111 70 223 140q104 223 185 377q74 145 102 186l-4 4q-90 -74 -174 -162q-51 -55 -57.5 -61t-10.5 -12l-10 12q4 8 10 14t64 72q41 45 96 96q45 43 104 94l129 8q-109 -201 -172 -319q-119 -219 -165 -289l4 -4q186 96 356 297 q16 18 33 39q8 8 12 8l8 -10q0 -4 -39 -51q-80 -98 -159 -166q-102 -88 -236 -156q-123 -225 -211 -344q-168 -225 -293 -225q-49 0 -76.5 21.5t-27.5 70.5zM-170 -567q0 -53 66 -54q84 0 184 134.5t211 396.5l-4 4q-225 -152 -281 -199q-176 -149 -176 -282zM786 897 q0 31 19.5 55.5t52.5 24.5q47 0 47 -55q0 -29 -19.5 -53.5t-51.5 -24.5q-48 0 -48 53z" />
<glyph unicode="k" d="M254 0l328 537l-4 4q-43 -55 -84 -103q-33 -39 -56 -63q-37 -41 -84 -96q-16 -18 -20 -19q-8 8 -8 12q0 6 32 43q100 113 189 217q25 27 149 244q119 207 213 314q134 155 254 155h2q86 0 86 -90q0 -135 -235 -346q-178 -158 -354 -315q-20 -23 -96.5 -155t-92.5 -159 l4 -4q102 113 205 225q160 154 264 154q94 0 94 -84q0 -68 -100 -125q-90 -51 -211 -70q51 -25 62 -32q28 -24 28 -67q0 -28 -16.5 -66.5t-16.5 -53.5q0 -33 31 -32q35 0 86 34.5t125 112.5q57 61 98 111q18 23 23 22q4 0 7 -4t5 -6q-23 -27 -35 -41q-53 -63 -69 -82 q-84 -94 -154 -139q-49 -33 -88 -33q-57 0 -88 33t-31 88q0 29 10.5 65.5t10.5 42.5q0 41 -105 64q-88 -84 -235 -285zM631 319q23 -8 47 -13t45 -5q84 0 155.5 54.5t71.5 121.5q0 45 -35 45q-59 0 -155 -80q-37 -31 -129 -123zM651 524l4 -4q207 174 326 287 q225 213 225 358q0 25 -10 40.5t-43 15.5q-84 0 -192 -146q-80 -109 -181 -301q-66 -125 -129 -250z" />
<glyph unicode="l" horiz-adv-x="454" d="M328 276q43 49 110 132q84 98 154 188q8 10 135 215q121 195 205 289q131 145 231 145q45 0 67.5 -22.5t22.5 -81.5q0 -66 -100 -187q-82 -98 -221 -223q-102 -92 -223 -188q-45 -41 -84 -99q-57 -86 -119 -198q-82 -145 -82 -195q0 -27 33 -26q84 0 237 157q39 41 76 83 t41 42t8 -4q0 -4 2 -6q-16 -23 -26 -35q-16 -20 -52 -57q-96 -104 -165.5 -154.5t-126.5 -50.5q-49 0 -69 28.5t-20 75.5q0 78 52 166q88 133 157 252l-4 4q-4 -6 -57 -68.5t-78 -88.5q-61 -70 -75.5 -86.5t-20.5 -16.5zM651 518l4 -6l279 254q150 147 184 188 q102 123 103 215q0 51 -58 52q-82 0 -172 -105q-69 -81 -147 -233z" />
<glyph unicode="m" horiz-adv-x="1251" d="M338 289q18 23 31 39q35 41 90 104q68 78 120 110.5t91 32.5q82 0 82 -79q0 -57 -43 -146q-2 -4 -74 -133l4 -4q104 129 176 209q136 153 204 153h1q70 0 70 -94q0 -70 -52 -170q-37 -66 -49 -90l4 -4q74 88 125 148q181 210 265 210h1q33 0 52.5 -25.5t19.5 -80.5 q0 -63 -61 -156q-145 -219 -148 -243q0 -45 33 -45q27 0 79 37.5t107 95.5q43 45 101 110q33 37 39 37q10 -6 10 -10q0 -8 -37 -49q-14 -16 -80 -84q-80 -84 -132 -123t-93 -39q-45 0 -66.5 35t-21.5 98q0 82 70.5 185.5t146.5 213.5q0 18 -27 19q-74 0 -274 -238 q-144 -170 -230 -301l-129 -12q94 150 162 260q131 215 131 260q0 29 -26 31q-59 0 -258 -236q-147 -176 -234 -303l-133 -12q313 504 313 522q0 29 -30 29q-37 0 -93 -41q-47 -35 -102 -94q-43 -45 -94 -109q-25 -31 -31 -31q-4 0 -6 4.5t-4 8.5z" />
<glyph unicode="n" horiz-adv-x="909" d="M338 289q18 25 29 37q27 33 49 59q78 90 137 137q68 53 123 53q76 0 76 -102q0 -53 -47 -137q-33 -57 -82 -123l4 -4q119 129 200 211q155 155 219 155h1q35 0 54 -29.5t19 -68.5q0 -47 -24 -96q-16 -33 -52 -82q-137 -186 -137 -233q0 -41 33 -41q35 0 91 44t126 121 q33 35 76 86q27 31 33 31l8 -10q0 -8 -50 -64.5t-79 -85.5q-70 -72 -122 -109.5t-87 -37.5q-45 0 -67.5 37t-22.5 96q0 78 72.5 182.5t148.5 210.5q0 25 -29 25q-66 0 -278 -232q-186 -203 -252 -307l-137 -12q147 213 233 346q94 143 94 174t-30 31q-41 0 -90.5 -37 t-126.5 -123q-43 -47 -71 -81t-32 -34q-10 8 -10 13z" />
<glyph unicode="o" horiz-adv-x="681" d="M332 281q0 6 41 51t78 80q84 82 173 122.5t162 40.5q55 0 89 -40t34 -103q0 -61 -35.5 -135t-85.5 -123l23 -4q53 0 100 25.5t90 74.5q16 18 31 31l4 4q4 0 8 -4q0 -4 3 -6q-4 -8 -14.5 -20.5t-37.5 -41.5q-39 -41 -92 -64.5t-110 -23.5l-27 2q-57 -66 -111 -100 q-74 -47 -151 -47q-61 0 -94 49t-33 135q0 49 3 69.5t7 37.5q0 4 -2 7t-4 5q-10 0 -25 -16q-4 -4 -12 -17zM459 100q0 -41 13 -58t40 -17q121 0 236.5 144.5t115.5 287.5q0 41 -17.5 67.5t-53.5 26.5q-104 0 -219 -160t-115 -291z" />
<glyph unicode="p" d="M-68 -543l703 1153l-4 4q-33 -39 -178 -217q-100 -123 -105 -123q-6 0 -9 4.5t-3 6.5q0 4 6 12q57 68 115 137q121 147 157 197q82 105 201 289l107 20l-437 -747l4 -5q121 143 138 162q205 225 303 225q39 0 57.5 -30.5t18.5 -77.5q0 -66 -110 -214.5t-110 -199.5 q0 -29 33 -28q39 0 86 32q61 43 152 146q29 33 63 73q27 31 31 31l10 -10q0 -6 -8 -16q-29 -31 -55 -62q-98 -119 -172 -172q-66 -47 -113 -47q-45 0 -66.5 36t-21.5 97q0 90 109.5 224.5t109.5 166.5q0 27 -26 27q-45 0 -144 -84q-109 -92 -242 -260q-158 -199 -292 -438 l-170 -304z" />
<glyph unicode="q" d="M330 -563l463 770l-5 4q-51 -63 -120 -121q-109 -90 -183 -90q-57 0 -87.5 51t-30.5 135q0 35 4 59.5t10 47.5l-6 4q-10 0 -15.5 -6t-9.5 -15q-10 8 -10 15q12 16 20 26q23 29 58 64q88 90 198.5 142t190.5 52q47 0 73.5 -23.5t26.5 -78.5q0 -14 -4 -33.5t-8 -36.5l4 -4 l90 160l113 4l-545 -932l4 -4q100 127 256 307q109 125 260 295q31 33 62 68l14 14l12 -14q-41 -45 -63 -70q-68 -76 -90 -100q-80 -90 -158 -178q-139 -160 -217 -254q-119 -147 -176 -244zM449 82q0 -23 9 -40t25 -17q113 0 256.5 170t143.5 278q0 78 -76 78 q-100 0 -225 -154q-133 -161 -133 -315z" />
<glyph unicode="r" horiz-adv-x="681" d="M338 287q0 6 59 73l62 70q133 145 209 145q37 0 58.5 -27.5t21.5 -70.5q0 -66 -70 -186q-33 -55 -60 -92l5 -4q45 55 147 153q70 68 80 98q18 53 47 86q39 43 88 43t49 -32q0 -35 -114.5 -121t-114.5 -166q0 -31 19.5 -50.5t47.5 -19.5q51 0 93 41q31 31 55 64 q10 14 14 14l13 -10q-6 -10 -11 -14q-12 -16 -40.5 -50t-61.5 -49.5t-64 -15.5q-35 0 -62.5 21.5t-27.5 58.5q0 66 41 116l-4 5q-78 -72 -155 -164q-64 -72 -154 -191l-129 -12q315 516 315 522q0 29 -35 29q-27 0 -63.5 -23.5t-96 -85t-100.5 -108.5q-49 -57 -51 -58z" />
<glyph unicode="s" horiz-adv-x="454" d="M289 92q0 59 51 60q43 0 43 -33q0 -20 -14.5 -32.5t-14.5 -31.5q0 -31 35 -30q68 0 137.5 123.5t69.5 216.5q0 66 1 126t11 68l-4 4q-10 -6 -72 -76q-39 -43 -165 -192q-6 -8 -11.5 -12t-7.5 -4l-8 8q0 10 35 49t55 65q33 41 101.5 116t76.5 79q10 20 17 31q22 30 49 30 h2q35 0 35 -30q0 -25 -27 -41q-14 -8 -55 -23q-6 -16 -7 -23.5t-1 -25.5q0 -76 12 -133q31 -143 31 -150q0 -35 -15.5 -65.5t-42.5 -59.5h4q45 31 86 74q18 18 62 70q29 31 39 44t12 13q10 -8 10 -12q-16 -20 -26 -33q-41 -51 -58 -69q-84 -96 -161.5 -144.5t-159.5 -48.5 q-23 0 -44.5 1t-51 23.5t-29.5 67.5z" />
<glyph unicode="t" horiz-adv-x="454" d="M328 272q0 8 12 23q37 41 76 86q47 53 127 151q98 123 153 205h-73q-4 0 -6.5 4t-4.5 9l9 12h86l120 199l127 8l-133 -207h240q10 -8 10 -12q-6 -12 -10 -13h-254q-182 -283 -283 -452q-106 -182 -106 -230q0 -31 39 -30q82 0 225 147q47 45 82 86q43 49 45 49 q10 0 10 -12q-23 -29 -37 -45q-41 -49 -73 -80q-92 -94 -151.5 -132t-104.5 -38q-47 0 -72 30.5t-25 69.5q0 123 191 394l-4 4l-125 -144q-25 -27 -47 -51q-10 -12 -33 -39z" />
<glyph unicode="u" d="M342 293q8 12 16 22q25 31 88 97q53 55 70 71q33 33 94 84l115 8q-201 -311 -242 -378q-55 -88 -55 -138q0 -16 9 -25t26 -9q76 0 246 188q160 178 262 354l131 8q-147 -213 -225 -337q-84 -133 -84 -179q0 -35 34 -34q23 0 70 32q55 39 123 111q51 51 92 98q35 39 39 39 l10 -10q-27 -33 -43 -51q-43 -49 -78 -86q-152 -158 -223 -158q-47 0 -66.5 41t-19.5 92q0 18 4 37.5t10 40.5l-4 4q-100 -106 -127 -131q-94 -84 -153 -84q-47 0 -70.5 30.5t-23.5 82.5q0 98 75 209q68 88 136 178l-5 4q-20 -16 -66 -60.5t-122 -126.5q-31 -37 -35 -36 q-8 8 -8 12z" />
<glyph unicode="v" d="M340 289q0 8 16 26q45 49 97 107q78 88 129 120.5t90 32.5q45 0 64.5 -30.5t19.5 -75.5q0 -76 -94.5 -207t-94.5 -182q0 -55 51 -55q117 0 242 141t125 295q0 114 63 114h1q47 0 47 -69q0 -57 -71 -176t-122 -160l4 -4q47 0 89 18.5t79 48t60 56.5q6 8 14 18l12 -10 q0 -10 -28.5 -41t-59.5 -51q-51 -35 -101 -49.5t-85 -14.5q-68 -53 -140.5 -97t-132.5 -44q-57 0 -86.5 37.5t-29.5 107.5q0 90 102 221.5t102 161.5q0 23 -34 23q-29 0 -66 -23.5t-76 -60.5q-53 -51 -102 -107q-39 -43 -76 -84q-8 6 -8 13z" />
<glyph unicode="w" horiz-adv-x="1024" d="M340 291q6 6 10 12q12 14 41 53q43 51 111 119q23 23 100 94l117 6q-100 -152 -168 -258q-131 -207 -131 -245q0 -47 39 -47q90 0 254 190q151 176 235 348l135 12q-82 -121 -114 -174q-170 -266 -170 -329q0 -47 51 -47q109 0 233 122q139 137 140 302q0 80 13 103 t50 23q20 0 33.5 -13t13.5 -32q0 -78 -68.5 -195.5t-131.5 -164.5l4 -4q57 0 118 35q47 27 84 65q14 16 24.5 28.5t14.5 12.5t6 -4t5 -8q-14 -20 -25 -31q-31 -35 -69 -61.5t-81 -44t-98 -17.5q-57 -55 -127.5 -98t-144.5 -43q-66 0 -90.5 43t-24.5 113q0 18 4 30.5t6 16.5 l-4 4q-61 -63 -123 -125q-90 -82 -151 -82q-53 0 -78 30.5t-25 86.5q0 70 45 151q14 25 164 226l-4 4q-88 -74 -155 -156q-23 -27 -48 -51l-12 -12q-8 8 -8 12z" />
<glyph unicode="x" horiz-adv-x="681" d="M248 63q0 61 55 62q47 0 47 -57q0 -35 15 -35q43 0 123.5 78.5t125.5 154.5q18 33 47 128t29 120q0 37 -22 37q-35 0 -84 -37q-33 -25 -107 -98q-45 -45 -86 -92.5t-43 -47.5l-8 13l8 12q33 45 121 137q68 72 109 101q50 36 94 36h2q86 0 86 -133q0 -66 -8 -86l4 -4 q37 72 104 140q83 83 146 83h2q79 0 79 -65q0 -51 -45 -51q-43 0 -47 35.5t-32 35.5q-66 0 -168 -153q-113 -170 -113 -320q0 -33 25 -32q70 0 225 168q43 45 65 71q35 41 39 41l11 -10q-14 -18 -23 -29q-53 -63 -113 -127q-68 -74 -117 -106.5t-94 -32.5q-59 0 -79.5 44 t-20.5 124l8 55q-63 -90 -116 -141q-86 -82 -156 -82q-49 0 -68.5 15.5t-19.5 47.5z" />
<glyph unicode="y" horiz-adv-x="909" d="M223 -535q0 74 72 154q61 70 201 166q113 78 295 188l178 344l-4 5q-55 -78 -170 -187q-139 -131 -205 -131q-37 0 -62.5 36t-25.5 83q0 80 98 221t98 180q0 27 -32 27q-37 0 -82 -33t-106.5 -98.5t-104.5 -118.5q-20 -25 -27 -25l-8 11q4 4 6 8q31 43 94 115 q82 94 136.5 129.5t95.5 35.5q43 0 66.5 -33.5t23.5 -80.5q0 -80 -98.5 -225.5t-98.5 -176.5t29 -30q86 0 280 217q181 198 238 317l131 12l-364 -598l4 -4q92 43 192 133q74 66 144 150q16 20 34 41q8 8 15 8l8 -10q-20 -25 -31 -39q-31 -39 -57 -68q-80 -90 -164 -151 q-72 -53 -168 -103q-323 -579 -529 -579h-1q-100 0 -101 110zM268 -543q0 -78 62 -78q80 0 184 125q121 145 260 433l-4 -3q-276 -180 -389 -287.5t-113 -189.5z" />
<glyph unicode="z" d="M201 -543q0 117 211 277l360 250l25 18q8 16 8 45q0 33 -13.5 55.5t-46.5 22.5t-55 -12q-6 -4 -69 -66q-49 -47 -74 -47q-18 0 -19 27q0 33 50 63q27 16 71 35q78 76 158 147q100 90 162 140l-4 4q-63 -43 -127 -84q-66 -37 -119 -37q-121 0 -121 98q4 37 45 94 q20 29 21 48q0 16 -25 16q-45 0 -135 -94q-53 -55 -129 -150q-12 -16 -29 -31l-10 9q0 4 6 12q14 18 31 39q78 96 86 104q119 135 192 135q41 0 62.5 -27.5t21.5 -72.5q0 -27 -24.5 -74t-24.5 -57q0 -23 45 -22q63 0 161.5 64.5t125.5 107.5q18 29 37 51q26 30 44 30h1 q25 0 24 -22q0 -16 -14 -33q-6 -8 -66 -59q-135 -119 -222 -198t-126 -122l4 -4q31 12 58 13q51 0 82.5 -30t36.5 -79q74 49 178 162q94 102 96 102q4 0 5 -5t3 -7q0 -20 -141 -160q-84 -82 -139 -119q0 -188 -215 -423.5t-367 -235.5q-96 0 -96 102zM254 -561q0 -59 57 -60 q117 0 289 240q152 211 188 346l-4 4q-98 -70 -196 -141q-152 -111 -226 -186q-108 -113 -108 -203z" />
<glyph unicode="{" horiz-adv-x="681" d="M512 -307q0 35 13.5 83t43.5 111l189 381q18 37 35.5 84t17.5 66q0 63 -86 96q106 29 165.5 84t113.5 164l188 383q88 178 201 246q90 53 237 53l-26 -49q-94 0 -166 -66q-61 -57 -121 -174l-180 -362q-61 -123 -119 -181q-70 -68 -182 -94l-2 -6q88 -25 88 -98 q-1 -55 -60 -176l-180 -363q-23 -45 -41 -94t-18 -76q0 -29 26.5 -49.5t71.5 -20.5l-12 -49q-100 0 -142 19q-55 25 -55 88z" />
<glyph unicode="|" horiz-adv-x="454" d="M621 0v1245h61v-1245h-61z" />
<glyph unicode="}" horiz-adv-x="681" d="M246 -414l26 49q94 0 166 66q61 57 121 174l180 363q61 123 119 180q70 68 182 94l2 6q-88 25 -88 98q1 56 60 177l180 362q23 45 41 94t18 76q0 29 -26.5 49.5t-71.5 20.5l12 49q100 0 148.5 -21.5t48.5 -85.5q0 -35 -13.5 -83t-43.5 -111l-189 -381q-18 -37 -35.5 -84 t-17.5 -66q0 -63 86 -98q-106 -29 -165.5 -83t-113.5 -163l-188 -383q-88 -178 -201 -245q-90 -53 -237 -54z" />
<glyph unicode="~" horiz-adv-x="819" d="M494 256q23 45 51 68q37 31 90 30q27 0 57.5 -9t67.5 -26.5t66.5 -30t47.5 -12.5q29 0 56 27q16 16 43 57l41 -41q-35 -49 -58 -67q-37 -31 -84 -31q-29 0 -53 8.5t-63 30t-56 27.5q-33 12 -71 12q-33 0 -56.5 -23.5t-37.5 -60.5z" />
<glyph unicode="&#xa1;" horiz-adv-x="681" d="M240 -426l544 811h37l-430 -799zM799 485q0 90 80 90q27 0 39 -12t12 -45q0 -37 -17.5 -60.5t-54.5 -23.5q-59 0 -59 51z" />
<glyph unicode="&#xa2;" d="M473 211q0 127 134 241.5t263 114.5q16 0 35 -3t37 -5l123 227h33l-125 -241q12 -10 23.5 -26.5t11.5 -53.5q0 -86 -74 -86q-23 0 -43 16l-203 -370q88 14 195 114q84 86 135 137q14 14 22 15l11 -10q0 -10 -72 -81t-82 -81q-53 -53 -100 -80q-66 -39 -123 -39l-123 -227 h-33l125 231q-80 0 -125 60.5t-45 146.5zM575 137q0 -96 82 -110l215 403q10 16 54 49q12 10 12 27q0 37 -61 37q-96 0 -199 -140.5t-103 -265.5z" />
<glyph unicode="&#xa3;" d="M281 80q0 78 62.5 134t131.5 56q31 0 49.5 -4t50.5 -16q51 111 95 231h-119q-12 0 -12 17q0 16 12 16h131q18 49 49 112.5t60 114.5q-31 20 -76 64q-57 55 -58 72l15 10l10 -10l29 -29q23 -27 38 -40t56 -42q92 131 153.5 171t131.5 40t109.5 -42t39.5 -108 q0 -88 -59.5 -141t-132.5 -53q-98 0 -175 53q-12 -25 -35.5 -81t-39.5 -91h110q12 0 13 -16q-1 -17 -13 -17h-127q-41 -86 -73.5 -141t-79.5 -125l114 -86q72 -49 133 -49q47 0 89 51q33 57 65 115q14 0 14 -19q0 -10 -5 -22t-21 -47q-33 -74 -78 -117q-55 -53 -123 -53 q-47 0 -94 41q-33 29 -117 147q-86 -102 -104 -119q-74 -70 -135 -69q-43 0 -63.5 24.5t-20.5 67.5zM313 86q0 -33 17.5 -53.5t46.5 -20.5q33 0 72 41q49 51 114 172q-45 20 -84 21q-61 0 -113.5 -48.5t-52.5 -111.5zM887 715q23 -14 58.5 -20.5t64.5 -6.5q96 0 150 48 t54 108q0 45 -34 76.5t-93 31.5q-68 0 -129 -90q-41 -61 -71 -147z" />
<glyph unicode="&#xa4;" d="M477 195l74 75q-33 43 -53.5 97.5t-20.5 113.5q0 61 18.5 112.5t55.5 98.5l-74 78l51 51l74 -76q92 76 211 76q57 0 111.5 -19.5t97.5 -56.5l74 76l51 -51l-74 -78q74 -86 74 -211q0 -121 -74 -211l74 -75l-51 -52l-74 76q-92 -76 -209 -76q-119 0 -211 76l-74 -76z M539 481q0 -115 78.5 -199.5t195.5 -84.5q115 0 193.5 84.5t78.5 199.5q0 117 -78.5 202t-193.5 85t-194.5 -86t-79.5 -201z" />
<glyph unicode="&#xa5;" d="M457 662q0 115 108.5 215t245.5 100q98 0 149.5 -70.5t51.5 -181.5q0 -59 -15 -123l4 -4q86 143 193 248q133 131 231 131q18 0 19 -10q0 -10 -29 -14.5t-47 -10.5q-72 -27 -174 -139q-113 -125 -201 -291h187q12 0 12 -16t-12 -17h-205l-37 -78h209q12 0 12 -16t-12 -16 h-221l-146 -357q-25 0 -57.5 -4t-65.5 -8l170 369h-180q-12 0 -12 16t12 16h195l35 78h-197q-12 0 -12 17q0 16 12 16h209q31 68 42 126t11 120q0 86 -27 133q-35 61 -110 61q-119 0 -221.5 -93t-102.5 -191q0 -92 90 -93q66 0 134 80q55 66 83 142q14 39 31 63q2 2 4 8 q10 -8 11 -14q0 -100 -72 -199q-82 -113 -187 -112q-119 0 -118 119z" />
<glyph unicode="&#xa6;" horiz-adv-x="454" d="M621 0v471h61v-471h-61zM621 774v471h61v-471h-61z" />
<glyph unicode="&#xa7;" horiz-adv-x="1024" d="M352 -66q0 74 48.5 126.5t119.5 52.5q70 0 114 -35t44 -94q0 -72 -70 -72q-61 0 -61 63q0 20 9 37t9 27q0 12 -18.5 21.5t-38.5 9.5q-55 0 -89 -34t-34 -95q0 -109 64.5 -169.5t177.5 -60.5q119 0 195.5 77t76.5 204q0 92 -133 280.5t-133 307.5q0 131 101.5 211.5 t236.5 80.5q-8 33 -16.5 73t-8.5 73q0 141 87 240.5t227 99.5q100 0 176.5 -66.5t76.5 -167.5q0 -68 -37.5 -115.5t-105.5 -47.5q-57 0 -94 26.5t-37 69.5q0 68 66 67q66 0 65 -61q0 -10 -4 -21.5t-6 -19.5q0 -20 26 -21q47 0 71 37t24 86q0 92 -63.5 145.5t-160.5 53.5 q-106 0 -173.5 -69.5t-67.5 -174.5q0 -123 129 -305t129 -315q0 -135 -105 -211q-94 -70 -233 -70q16 -59 24.5 -100t8.5 -82q0 -129 -93.5 -224.5t-240.5 -95.5q-123 0 -203 76t-80 182zM723 612q0 -82 96 -227q72 -109 103 -174q115 0 184 49q78 55 78 160q0 98 -76 223 q-63 98 -125 197q-104 0 -182 -61t-78 -167z" />
<glyph unicode="&#xa8;" horiz-adv-x="454" d="M514 831q0 35 17.5 58.5t54.5 23.5q59 0 59 -51q0 -43 -18.5 -65.5t-61.5 -22.5q-27 0 -39 12.5t-12 44.5zM809 831q0 35 17.5 58.5t54.5 23.5q59 0 59 -51q0 -43 -18.5 -65.5t-61.5 -22.5q-27 0 -39 12.5t-12 44.5z" />
<glyph unicode="&#xa9;" horiz-adv-x="1638" d="M629 713q0 303 205.5 517t498.5 214q295 0 500 -213t205 -518q0 -297 -206 -511t-499 -214q-291 0 -497.5 213t-206.5 512zM702 713q0 -264 189.5 -464t441.5 -200t441.5 200t189.5 464q0 270 -187.5 469.5t-443.5 199.5q-254 0 -442.5 -200.5t-188.5 -468.5zM936 733 q0 150 113 271q129 139 340 139q59 0 93 -6.5t124 -36.5q47 -14 47 -43v-148h-33q0 88 -53 140q-61 59 -189 59q-160 0 -243.5 -100.5t-83.5 -266.5q0 -182 87 -287.5t259 -105.5q106 0 172 53q53 45 86 131h28l-32 -143q0 -25 -49.5 -39t-105.5 -24.5t-120 -10.5 q-190 0 -305 93q-135 109 -135 325z" />
<glyph unicode="&#xaa;" horiz-adv-x="477" d="M559 805l2 2q12 16 21 27q57 63 130.5 103t139.5 40q29 0 43 -18.5t14 -47.5l-4 -30l6 -2q18 35 39 71q13 19 31 19l63 2q-41 -49 -108 -154q-82 -125 -82 -153q0 -18 23 -19q27 0 79 43t109 107l18 20l9 -8q-20 -23 -31 -35q-35 -39 -53 -57q-49 -45 -80 -65.5 t-54 -20.5q-29 0 -45 17.5t-16 68.5v24q-33 -39 -74 -69q-55 -41 -90 -41q-47 0 -65.5 32.5t-18.5 83.5q0 27 6 58l-8 -4zM618 684q0 -39 31 -39q57 0 150.5 101.5t93.5 166.5q0 47 -41 48q-78 0 -156 -99.5t-78 -177.5z" />
<glyph unicode="&#xab;" d="M487 281v18q59 43 189 150q16 14 76 65q18 16 24 16l10 -8q0 -16 -102 -133q-70 -80 -88 -102q43 -90 63 -140q29 -70 29 -88q0 -14 -10 -14q-8 0 -25 25q-33 49 -80 104zM717 281v18q59 43 188 150q16 14 76 65q18 16 25 16l10 -8q0 -16 -103 -133q-70 -80 -88 -102 q43 -90 64 -140q29 -70 29 -88q0 -14 -11 -14q-8 0 -24 25q-33 49 -80 104z" />
<glyph unicode="&#xac;" horiz-adv-x="819" d="M469 369v61h569v-285h-61v224h-508z" />
<glyph unicode="&#xad;" horiz-adv-x="819" d="M469 254v61h569v-61h-569z" />
<glyph unicode="&#xae;" horiz-adv-x="1638" d="M629 713q0 303 205.5 517t498.5 214q295 0 500 -213t205 -518q0 -297 -206 -511t-499 -214q-291 0 -497.5 213t-206.5 512zM702 713q0 -264 189.5 -464t441.5 -200t441.5 200t189.5 464q0 270 -187.5 469.5t-443.5 199.5q-254 0 -442.5 -200.5t-188.5 -468.5zM999 336v33 q78 8 91.5 20t13.5 86v500q0 78 -11.5 89t-93.5 21v27h355q102 0 175 -48t73 -140q0 -84 -47.5 -141.5t-124.5 -84.5l120 -166q53 -72 92 -112q49 -51 80 -68v-16h-100q-31 0 -72 49q-111 158 -213 297h-131v-207q0 -76 11.5 -87t95.5 -19v-33h-314zM1206 715h119 q80 0 125 51t45 147q0 84 -52 125t-126 41h-111v-364z" />
<glyph unicode="&#xaf;" horiz-adv-x="454" d="M461 809q0 12 25.5 26.5t58.5 14.5h395q29 0 29 -16q0 -20 -22 -30.5t-81 -10.5h-385q-20 0 -20 16z" />
<glyph unicode="&#xb0;" horiz-adv-x="614" d="M649 815q0 68 47 115t115 47t115 -47t47 -115t-47 -115t-115 -47t-115 47t-47 115zM690 815q0 -51 35 -90t86 -39t86 39t35 90t-35 90t-86 39t-86 -39t-35 -90z" />
<glyph unicode="&#xb1;" horiz-adv-x="819" d="M469 0v61h569v-61h-569zM469 305v64h254v206h61v-206h254v-64h-254v-207h-61v207h-254z" />
<glyph unicode="&#xb2;" horiz-adv-x="477" d="M412 387q0 12 21.5 50t52 65.5t77.5 58.5q100 63 201 127q57 39 93 97.5t36 105.5q0 61 -80 61q-78 0 -139.5 -51t-61.5 -108q0 -51 50 -52q41 0 86 45q37 37 55 82q10 25 14 32t8 11l6 -8q0 -59 -50 -123.5t-117 -64.5q-76 0 -76 73q0 68 70.5 128.5t158.5 60.5 q145 0 146 -115q0 -127 -170 -211q-82 -39 -162 -78q-43 -23 -74 -43t-65 -53l4 -4q37 27 63.5 40t50.5 13q31 0 56.5 -19.5t25.5 -57.5q0 -35 31 -35q23 0 61.5 34.5t71.5 75.5q10 12 16.5 14.5t8.5 4.5l6 -6q-2 -4 -6 -11q-18 -27 -44 -57.5t-70 -59t-79 -28.5 q-39 0 -56.5 19.5t-21.5 55.5t-28 36q-23 0 -54.5 -20.5t-62.5 -51.5q-14 -18 -25.5 -30.5t-19.5 -12.5z" />
<glyph unicode="&#xb3;" horiz-adv-x="477" d="M461 494q0 23 14 42t37 19q43 0 43 -37q0 -23 -5 -32t-26.5 -14t-21.5 -17q0 -41 84 -41q68 0 141.5 73.5t73.5 143.5q0 41 -51 41q-27 0 -51.5 -11.5t-47.5 -23.5q-12 14 -12 18t30.5 19.5t75.5 42.5q86 51 124 97t38 89q0 49 -57 49q-68 0 -124 -40t-56 -89 q0 -25 28 -24q33 0 67 22.5t62 63.5q8 10 11.5 22.5t9.5 12.5l4 -11q0 -45 -41 -90t-98 -45q-68 0 -68 53q0 47 64.5 98.5t144.5 51.5q47 0 85 -24.5t38 -69.5q0 -70 -82 -119q-64 -33 -125 -64q37 -4 68.5 -34.5t31.5 -71.5q0 -78 -84 -141.5t-184 -63.5q-74 0 -107.5 31 t-33.5 74z" />
<glyph unicode="&#xb4;" horiz-adv-x="454" d="M629 686q0 4 24 25q61 51 89 91t57 144q18 72 65 72q23 0 35 -14.5t12 -30.5q0 -70 -116.5 -182.5t-155.5 -112.5q-10 4 -10 8z" />
<glyph unicode="&#xb5;" d="M-76 -543l654 1043l-5 4q-20 -16 -66 -60.5t-122 -126.5q-31 -37 -35 -36q-8 8 -8 12q8 12 16 22q25 31 88 97q53 55 70 71q33 33 94 84l115 8q-201 -311 -242 -378q-55 -88 -55 -138q0 -16 9 -25t26 -9q76 0 246 188q160 178 262 354l131 8q-147 -213 -225 -337 q-84 -133 -84 -179q0 -35 34 -34q23 0 70 32q55 39 123 111q51 51 92 98q35 39 39 39l10 -10q-27 -33 -43 -51q-43 -49 -78 -86q-152 -158 -223 -158q-47 0 -66.5 41t-19.5 92q0 18 4 37.5t10 40.5l-4 4q-100 -106 -127 -131q-94 -84 -153 -84q-53 0 -74 33l-330 -563z" />
<glyph unicode="&#xb6;" horiz-adv-x="1228" d="M651 -328l385 805q-135 0 -205.5 62.5t-70.5 173.5q0 254 208 434t480 180h491l-20 -45q-117 0 -153.5 -17.5t-65.5 -76.5l-723 -1516h-82l760 1594h-162l-760 -1594h-82z" />
<glyph unicode="&#xb7;" horiz-adv-x="454" d="M494 287q0 27 17 48t42 21q27 0 43 -20.5t16 -48.5q0 -25 -17 -46.5t-42 -21.5q-27 0 -43 20.5t-16 47.5z" />
<glyph unicode="&#xb8;" horiz-adv-x="454" d="M162 -350q8 12 12 12l47 -4q115 0 178 25q78 31 78 96q0 72 -94 71h-72l80 170h23l-56 -129h33q172 0 172 -106q0 -68 -75.5 -110t-204.5 -42q-78 0 -99.5 4.5t-21.5 12.5z" />
<glyph unicode="&#xb9;" horiz-adv-x="477" d="M528 637q0 4 58.5 46t131.5 99.5t136 118.5q80 76 94 76q12 0 13 -12q0 -16 -99 -207q-104 -203 -194 -361q-37 0 -52.5 -1t-66.5 -7q23 35 231 334q76 109 119 178q-6 -4 -135 -115q-61 -53 -123 -98q-45 -33 -70.5 -49t-31.5 -16q-10 8 -11 14z" />
<glyph unicode="&#xba;" horiz-adv-x="409" d="M541 801q8 8 12 14q29 31 65 62q53 49 113 74.5t105 25.5q39 0 59 -24.5t20 -63.5q0 -37 -22.5 -81t-54.5 -73l14 -2q35 0 70.5 19.5t64.5 54.5l12 8l7 -6l-33 -37q-25 -23 -57.5 -40t-71.5 -17l-21 4q-39 -41 -71 -62q-47 -29 -99 -28q-39 0 -61.5 30.5t-22.5 81.5 q8 57 9 66l-5 6q-4 0 -14 -8l-10 -10zM623 690q0 -45 34 -45q78 0 154 88t76 172q0 55 -47 56q-70 0 -143.5 -93.5t-73.5 -177.5z" />
<glyph unicode="&#xbb;" d="M506 53q0 14 102 131q57 66 88 103q-43 92 -63 141q-29 70 -29 86t10 16q8 0 25 -24q35 -51 80 -105l86 -108v-19q-57 -39 -189 -147q-29 -25 -61.5 -53.5t-38.5 -28.5zM735 53q0 14 103 131q57 66 88 103q-43 92 -64 141q-29 70 -28 86q0 16 10 16q8 0 24 -24 q35 -51 80 -105l86 -108v-19q-57 -39 -188 -147q-29 -25 -61.5 -53.5t-39.5 -28.5z" />
<glyph unicode="&#xbc;" horiz-adv-x="1193" />
<glyph unicode="&#xbd;" horiz-adv-x="1193" />
<glyph unicode="&#xbe;" horiz-adv-x="1193" />
<glyph unicode="&#xbf;" d="M334 -262q0 104 61 176q27 31 246 170q96 61 166 145q51 70 104 140l9 -13q0 -14 -72 -110q-82 -111 -160 -180q-150 -135 -211 -226.5t-61 -173.5q0 -45 29.5 -68.5t76.5 -23.5q76 0 138.5 48t62.5 114q-18 8 -35 14q-27 16 -26 53q0 23 16 39.5t43 16.5q63 0 63 -76 q0 -90 -90 -162t-186 -72q-78 0 -126 52.5t-48 136.5zM920 485q0 90 79 90q27 0 39.5 -12t12.5 -45q0 -37 -17.5 -60.5t-54.5 -23.5q-59 0 -59 51z" />
<glyph unicode="&#xc0;" horiz-adv-x="2545" d="M373 479q0 225 167 384t402 159q221 0 361 -150q111 -119 110 -231q0 -74 -67 -74q-29 0 -46.5 23.5t-17.5 54.5q0 23 8 66t8 65q0 80 -86 140.5t-221 60.5q-205 0 -356 -152q-160 -160 -160 -391q0 -190 120 -306t333 -116q199 0 401 111q166 90 365 274q92 86 344 346 q-25 31 -45 45q-41 31 -97 31q-63 0 -108 -45l-66 -102q-6 0 -9 4t-3 6q0 57 70 119q59 51 141 51q43 0 87 -17.5t73 -48.5q401 406 545 537q154 141 196 141q53 0 53 -53q0 -16 -102 -181t-203 -329q-125 -203 -151 -264l30 2q106 0 179 -68.5t73 -181.5q0 -143 -98 -268 q-104 -133 -244 -133q-102 0 -153.5 67.5t-51.5 173.5q0 82 33 183q25 72 74 172q-39 -8 -96.5 -39t-71.5 -58q-41 -94 -68 -147q-51 -100 -102 -100q-16 0 -27.5 11t-11.5 23q0 61 103 166q39 39 86 80q8 41 8 90q0 33 -5 58.5t-22 44.5q-268 -274 -319 -324 q-203 -190 -373 -283q-219 -119 -444 -118q-225 0 -381 131q-164 139 -164 360zM2099 760q27 -48 27 -103q0 -53 -17 -114q29 18 71 38.5t99 41.5q68 119 205 315q14 20 228 313q106 147 106 156q0 25 -18 25q-47 0 -701 -672zM2257 145q0 -66 23.5 -99.5t78.5 -33.5 q106 0 183 105.5t77 236.5q0 113 -50 182.5t-138 69.5l-33 -4q-57 -123 -92 -223q-49 -142 -49 -234zM2568 1817q0 14 13.5 29.5t33.5 15.5q47 0 66 -70q29 -109 55.5 -146.5t87.5 -89.5q27 -23 27 -26q0 -4 -10 -8q-39 0 -152 108q-121 117 -121 187z" />
<glyph unicode="&#xc1;" horiz-adv-x="2545" d="M373 479q0 225 167 384t402 159q221 0 361 -150q111 -119 110 -231q0 -74 -67 -74q-29 0 -46.5 23.5t-17.5 54.5q0 23 8 66t8 65q0 80 -86 140.5t-221 60.5q-205 0 -356 -152q-160 -160 -160 -391q0 -190 120 -306t333 -116q199 0 401 111q166 90 365 274q92 86 344 346 q-25 31 -45 45q-41 31 -97 31q-63 0 -108 -45l-66 -102q-6 0 -9 4t-3 6q0 57 70 119q59 51 141 51q43 0 87 -17.5t73 -48.5q401 406 545 537q154 141 196 141q53 0 53 -53q0 -16 -102 -181t-203 -329q-125 -203 -151 -264l30 2q106 0 179 -68.5t73 -181.5q0 -143 -98 -268 q-104 -133 -244 -133q-102 0 -153.5 67.5t-51.5 173.5q0 82 33 183q25 72 74 172q-39 -8 -96.5 -39t-71.5 -58q-41 -94 -68 -147q-51 -100 -102 -100q-16 0 -27.5 11t-11.5 23q0 61 103 166q39 39 86 80q8 41 8 90q0 33 -5 58.5t-22 44.5q-268 -274 -319 -324 q-203 -190 -373 -283q-219 -119 -444 -118q-225 0 -381 131q-164 139 -164 360zM2099 760q27 -48 27 -103q0 -53 -17 -114q29 18 71 38.5t99 41.5q68 119 205 315q14 20 228 313q106 147 106 156q0 25 -18 25q-47 0 -701 -672zM2257 145q0 -66 23.5 -99.5t78.5 -33.5 q106 0 183 105.5t77 236.5q0 113 -50 182.5t-138 69.5l-33 -4q-57 -123 -92 -223q-49 -142 -49 -234zM2720 1530q0 4 24 24q61 51 89 91.5t57 144.5q18 72 65 72q23 0 35 -14.5t12 -30.5q0 -70 -116.5 -182.5t-155.5 -112.5q-10 4 -10 8z" />
<glyph unicode="&#xc2;" horiz-adv-x="2545" d="M373 479q0 225 167 384t402 159q221 0 361 -150q111 -119 110 -231q0 -74 -67 -74q-29 0 -46.5 23.5t-17.5 54.5q0 23 8 66t8 65q0 80 -86 140.5t-221 60.5q-205 0 -356 -152q-160 -160 -160 -391q0 -190 120 -306t333 -116q199 0 401 111q166 90 365 274q92 86 344 346 q-25 31 -45 45q-41 31 -97 31q-63 0 -108 -45l-66 -102q-6 0 -9 4t-3 6q0 57 70 119q59 51 141 51q43 0 87 -17.5t73 -48.5q401 406 545 537q154 141 196 141q53 0 53 -53q0 -16 -102 -181t-203 -329q-125 -203 -151 -264l30 2q106 0 179 -68.5t73 -181.5q0 -143 -98 -268 q-104 -133 -244 -133q-102 0 -153.5 67.5t-51.5 173.5q0 82 33 183q25 72 74 172q-39 -8 -96.5 -39t-71.5 -58q-41 -94 -68 -147q-51 -100 -102 -100q-16 0 -27.5 11t-11.5 23q0 61 103 166q39 39 86 80q8 41 8 90q0 33 -5 58.5t-22 44.5q-268 -274 -319 -324 q-203 -190 -373 -283q-219 -119 -444 -118q-225 0 -381 131q-164 139 -164 360zM2099 760q27 -48 27 -103q0 -53 -17 -114q29 18 71 38.5t99 41.5q68 119 205 315q14 20 228 313q106 147 106 156q0 25 -18 25q-47 0 -701 -672zM2257 145q0 -66 23.5 -99.5t78.5 -33.5 q106 0 183 105.5t77 236.5q0 113 -50 182.5t-138 69.5l-33 -4q-57 -123 -92 -223q-49 -142 -49 -234zM2564 1526q70 72 143 157q82 95 129 179h29q16 -84 57 -179q39 -80 80 -157l-4 -4q-25 0 -88 90t-78 127q-68 -70 -155.5 -143.5t-104.5 -73.5z" />
<glyph unicode="&#xc3;" horiz-adv-x="2545" d="M373 479q0 225 167 384t402 159q221 0 361 -150q111 -119 110 -231q0 -74 -67 -74q-29 0 -46.5 23.5t-17.5 54.5q0 23 8 66t8 65q0 80 -86 140.5t-221 60.5q-205 0 -356 -152q-160 -160 -160 -391q0 -190 120 -306t333 -116q199 0 401 111q166 90 365 274q92 86 344 346 q-25 31 -45 45q-41 31 -97 31q-63 0 -108 -45l-66 -102q-6 0 -9 4t-3 6q0 57 70 119q59 51 141 51q43 0 87 -17.5t73 -48.5q401 406 545 537q154 141 196 141q53 0 53 -53q0 -16 -102 -181t-203 -329q-125 -203 -151 -264l30 2q106 0 179 -68.5t73 -181.5q0 -143 -98 -268 q-104 -133 -244 -133q-102 0 -153.5 67.5t-51.5 173.5q0 82 33 183q25 72 74 172q-39 -8 -96.5 -39t-71.5 -58q-41 -94 -68 -147q-51 -100 -102 -100q-16 0 -27.5 11t-11.5 23q0 61 103 166q39 39 86 80q8 41 8 90q0 33 -5 58.5t-22 44.5q-268 -274 -319 -324 q-203 -190 -373 -283q-219 -119 -444 -118q-225 0 -381 131q-164 139 -164 360zM2099 760q27 -48 27 -103q0 -53 -17 -114q29 18 71 38.5t99 41.5q68 119 205 315q14 20 228 313q106 147 106 156q0 25 -18 25q-47 0 -701 -672zM2257 145q0 -66 23.5 -99.5t78.5 -33.5 q106 0 183 105.5t77 236.5q0 113 -50 182.5t-138 69.5l-33 -4q-57 -123 -92 -223q-49 -142 -49 -234zM2540 1620q0 29 34 82q46 70 107 70q35 0 72 -11q8 -2 75 -26q37 -12 78 -24.5t66 -12.5q47 0 73 28q20 33 43 66q8 -10 9 -14q0 -57 -48.5 -105.5t-111.5 -48.5 q-31 0 -64.5 9t-74.5 26q-18 6 -58.5 20.5t-77.5 14.5q-49 0 -80.5 -44t-33.5 -44q-8 10 -8 14z" />
<glyph unicode="&#xc4;" horiz-adv-x="2545" d="M373 479q0 225 167 384t402 159q221 0 361 -150q111 -119 110 -231q0 -74 -67 -74q-29 0 -46.5 23.5t-17.5 54.5q0 23 8 66t8 65q0 80 -86 140.5t-221 60.5q-205 0 -356 -152q-160 -160 -160 -391q0 -190 120 -306t333 -116q199 0 401 111q166 90 365 274q92 86 344 346 q-25 31 -45 45q-41 31 -97 31q-63 0 -108 -45l-66 -102q-6 0 -9 4t-3 6q0 57 70 119q59 51 141 51q43 0 87 -17.5t73 -48.5q401 406 545 537q154 141 196 141q53 0 53 -53q0 -16 -102 -181t-203 -329q-125 -203 -151 -264l30 2q106 0 179 -68.5t73 -181.5q0 -143 -98 -268 q-104 -133 -244 -133q-102 0 -153.5 67.5t-51.5 173.5q0 82 33 183q25 72 74 172q-39 -8 -96.5 -39t-71.5 -58q-41 -94 -68 -147q-51 -100 -102 -100q-16 0 -27.5 11t-11.5 23q0 61 103 166q39 39 86 80q8 41 8 90q0 33 -5 58.5t-22 44.5q-268 -274 -319 -324 q-203 -190 -373 -283q-219 -119 -444 -118q-225 0 -381 131q-164 139 -164 360zM2099 760q27 -48 27 -103q0 -53 -17 -114q29 18 71 38.5t99 41.5q68 119 205 315q14 20 228 313q106 147 106 156q0 25 -18 25q-47 0 -701 -672zM2257 145q0 -66 23.5 -99.5t78.5 -33.5 q106 0 183 105.5t77 236.5q0 113 -50 182.5t-138 69.5l-33 -4q-57 -123 -92 -223q-49 -142 -49 -234zM2605 1675q0 35 17.5 58.5t54.5 23.5q59 0 59 -51q0 -43 -18.5 -65.5t-61.5 -22.5q-27 0 -39 12t-12 45zM2900 1675q0 35 17.5 58.5t54.5 23.5q59 0 59 -51 q0 -43 -18.5 -65.5t-61.5 -22.5q-27 0 -39 12t-12 45z" />
<glyph unicode="&#xc5;" horiz-adv-x="2545" d="M373 479q0 225 167 384t402 159q221 0 361 -150q111 -119 110 -231q0 -74 -67 -74q-29 0 -46.5 23.5t-17.5 54.5q0 23 8 66t8 65q0 80 -86 140.5t-221 60.5q-205 0 -356 -152q-160 -160 -160 -391q0 -190 120 -306t333 -116q199 0 401 111q166 90 365 274q92 86 344 346 q-25 31 -45 45q-41 31 -97 31q-63 0 -108 -45l-66 -102q-6 0 -9 4t-3 6q0 57 70 119q59 51 141 51q43 0 87 -17.5t73 -48.5q401 406 545 537q154 141 196 141q53 0 53 -53q0 -16 -102 -181t-203 -329q-125 -203 -151 -264l30 2q106 0 179 -68.5t73 -181.5q0 -143 -98 -268 q-104 -133 -244 -133q-102 0 -153.5 67.5t-51.5 173.5q0 82 33 183q25 72 74 172q-39 -8 -96.5 -39t-71.5 -58q-41 -94 -68 -147q-51 -100 -102 -100q-16 0 -27.5 11t-11.5 23q0 61 103 166q39 39 86 80q8 41 8 90q0 33 -5 58.5t-22 44.5q-268 -274 -319 -324 q-203 -190 -373 -283q-219 -119 -444 -118q-225 0 -381 131q-164 139 -164 360zM2099 760q27 -48 27 -103q0 -53 -17 -114q29 18 71 38.5t99 41.5q68 119 205 315q14 20 228 313q106 147 106 156q0 25 -18 25q-47 0 -701 -672zM2257 145q0 -66 23.5 -99.5t78.5 -33.5 q106 0 183 105.5t77 236.5q0 113 -50 182.5t-138 69.5l-33 -4q-57 -123 -92 -223q-49 -142 -49 -234zM2634 1692q0 78 52 130t128 52t128 -52.5t52 -129.5q0 -76 -51 -129.5t-129 -53.5q-74 0 -127 53.5t-53 129.5zM2679 1692q0 -55 39 -96.5t96 -41.5q53 0 94 41t41 97 q0 55 -39 96t-96 41q-53 0 -94 -41t-41 -96z" />
<glyph unicode="&#xc6;" horiz-adv-x="2390" d="M-225 459q0 225 169 386t396 161q182 0 322.5 -117t140.5 -273q0 -63 -55 -63q-39 0 -57.5 25.5t-18.5 70.5q0 18 4 59.5t4 63.5q0 96 -100 148q-80 41 -189 41q-207 0 -360.5 -160t-153.5 -375q0 -174 98 -289q106 -125 283 -125q188 0 393 129q156 98 353 299 q16 16 296 326q-18 14 -45.5 23.5t-48.5 9.5q-63 0 -110 -43q-35 -47 -68 -94l-8 12q0 53 67 110q57 47 134 47q31 0 57.5 -8t48.5 -20q207 217 413 429t257 212q33 0 45 -9.5t12 -43.5q0 -14 -59 -117q-164 -283 -232 -438l4 -5q61 39 138 61.5t159 31.5q-10 45 -10 73 l-41 -8q-10 2 -10 21q0 10 47 20q14 162 163.5 288t313.5 126q59 0 105.5 -25.5t46.5 -83.5q0 -127 -178 -217q-129 -66 -326 -102q0 -41 14 -84q164 0 253 -44t89 -122q0 -49 -41 -72.5t-110 -23.5q-104 0 -189.5 61.5t-122.5 159.5q-76 0 -192.5 -48t-151.5 -98 q-14 -41 -28 -79q-20 -61 -29 -107q16 0 40 2t50 2h33q342 0 551 -90q252 -109 252 -332q0 -143 -117 -223q-104 -72 -268 -72q-268 0 -463 113q-225 131 -225 356q0 106 16 195q-31 -2 -65.5 -9t-71.5 -16q-23 -125 -61 -202.5t-76 -77.5q-51 0 -52 55q0 82 81 169t81 138 q0 63 -11 106.5t-38 69.5q-281 -303 -307 -329q-199 -201 -361 -297q-215 -129 -426 -129q-199 0 -326.5 138t-127.5 333zM1356 782q61 -62 61 -164q0 -29 -2 -52t-10 -46q47 12 76.5 18.5t64.5 6.5q33 133 148 344q74 135 200 336q102 162 103 168q0 8 -6 16q-2 0 -4 2 q-31 0 -156 -127q-113 -115 -475 -502zM1642 371q0 -256 228 -385q168 -94 375 -95q129 0 207.5 52.5t78.5 142.5q0 227 -237 344q-205 100 -537 100q-14 0 -47 -4t-51 -4q-6 -20 -11.5 -66t-5.5 -85zM2177 1047q145 20 277 83q172 83 172 187q0 41 -29 67.5t-74 26.5 q-147 0 -246.5 -107.5t-99.5 -256.5zM2198 897q23 -82 85 -138.5t144 -56.5q33 0 52.5 17.5t19.5 40.5q0 74 -111 110q-82 27 -190 27z" />
<glyph unicode="&#xc7;" horiz-adv-x="1705" d="M510 1120q0 184 162 293q147 100 364 100q145 0 303 -51q121 -39 281 -121q207 90 446 91q178 0 179 -103q0 -63 -53.5 -125.5t-190.5 -163.5q78 -90 78 -94q0 -6 -5.5 -9t-7.5 -3q-10 0 -24 18q-33 41 -68 74q-195 -147 -495 -211q-211 -45 -459 -45q-49 -66 -78 -182.5 t-29 -210.5q0 -27 1 -36t16 -73q129 41 276.5 67.5t253.5 26.5q211 0 357 -77q162 -86 161 -232q0 -111 -120 -190q-113 -74 -244 -74q-223 0 -436 117t-320 309q-102 -35 -190 -76l-138 -69l-10 10q0 20 104.5 70.5t219.5 91.5q-41 100 -41 217q0 86 21.5 173t62.5 159 q-141 27 -248 106q-129 96 -129 223zM584 1178q0 -111 110 -205q102 -86 238 -115q113 160 289 279q145 98 356 184q-143 76 -282.5 111.5t-297.5 35.5q-174 0 -280 -59q-133 -75 -133 -231zM936 236q55 -184 219 -285t377 -101q150 0 277.5 72t127.5 166q0 104 -178 162 q-154 49 -387 49q-96 0 -183 -10t-253 -53zM1057 831q23 -4 62.5 -6t68.5 -2q215 0 393 49q213 59 367 183q-143 147 -320 239q-195 -106 -313 -196q-158 -121 -258 -267zM1214 -541q8 12 13 13l47 -4q115 0 178 24q78 31 78 96q0 72 -94 72h-72l80 170h22l-55 -129h33 q172 0 172 -107q0 -68 -76 -109.5t-205 -41.5q-78 0 -99.5 4t-21.5 12zM1669 1313q80 -47 164 -115t137 -125q70 49 125 113q76 86 76 145q0 41 -23.5 58.5t-89.5 17.5q-100 0 -195.5 -23.5t-193.5 -70.5z" />
<glyph unicode="&#xc8;" horiz-adv-x="1705" d="M391 213q0 18 125 94q139 84 254 129q0 217 156 340q137 109 389 142q-2 10 -5 32.5t-5 38.5q-39 -6 -91.5 -12t-97.5 -6q-178 0 -300 75.5t-122 198.5q0 133 110.5 215t268.5 82q96 0 225 -50t222 -128q74 41 131 57q74 23 151 23q53 0 90 -27.5t37 -77.5 q0 -125 -192 -227q-150 -80 -307 -100q0 -31 2 -46.5t8 -43.5q147 0 241.5 -39t94.5 -117q0 -43 -34 -68.5t-110 -25.5q-78 0 -168 55q-106 66 -141 166q-252 -33 -354 -133q-88 -86 -88 -240l4 -45q102 33 206.5 46.5t227.5 13.5q242 0 430 -102.5t188 -254.5 q0 -168 -137 -258q-113 -74 -270 -74q-268 0 -481 146q-229 156 -277 411q-53 -20 -102 -43.5t-97 -52.5q-86 -51 -131 -84q-35 -25 -36 -24q-14 0 -15 14zM739 1278q0 -84 123 -164q139 -90 330 -90q31 0 53.5 2t61.5 6q0 100 50 183t138 137q-100 61 -215 99t-229 38 q-133 0 -222.5 -52.5t-89.5 -158.5zM891 442q39 -215 248 -383t428 -168q147 0 232 55.5t85 159.5q0 158 -213 269.5t-457 111.5q-170 0 -323 -45zM1430 1044q160 27 268 76q170 78 170 195q0 49 -26.5 72.5t-96.5 23.5q-123 0 -215 -98q-100 -106 -100 -269zM1446 897 q16 -63 85 -127.5t132 -64.5q33 0 60.5 12t27.5 43q0 78 -119 112q-84 25 -186 25zM1530 1817q0 14 13.5 29.5t33.5 15.5q47 0 65 -70q29 -109 55.5 -146.5t88.5 -89.5q27 -23 26 -26q0 -4 -10 -8q-39 0 -151 108q-121 117 -121 187z" />
<glyph unicode="&#xc9;" horiz-adv-x="1705" d="M391 213q0 18 125 94q139 84 254 129q0 217 156 340q137 109 389 142q-2 10 -5 32.5t-5 38.5q-39 -6 -91.5 -12t-97.5 -6q-178 0 -300 75.5t-122 198.5q0 133 110.5 215t268.5 82q96 0 225 -50t222 -128q74 41 131 57q74 23 151 23q53 0 90 -27.5t37 -77.5 q0 -125 -192 -227q-150 -80 -307 -100q0 -31 2 -46.5t8 -43.5q147 0 241.5 -39t94.5 -117q0 -43 -34 -68.5t-110 -25.5q-78 0 -168 55q-106 66 -141 166q-252 -33 -354 -133q-88 -86 -88 -240l4 -45q102 33 206.5 46.5t227.5 13.5q242 0 430 -102.5t188 -254.5 q0 -168 -137 -258q-113 -74 -270 -74q-268 0 -481 146q-229 156 -277 411q-53 -20 -102 -43.5t-97 -52.5q-86 -51 -131 -84q-35 -25 -36 -24q-14 0 -15 14zM739 1278q0 -84 123 -164q139 -90 330 -90q31 0 53.5 2t61.5 6q0 100 50 183t138 137q-100 61 -215 99t-229 38 q-133 0 -222.5 -52.5t-89.5 -158.5zM891 442q39 -215 248 -383t428 -168q147 0 232 55.5t85 159.5q0 158 -213 269.5t-457 111.5q-170 0 -323 -45zM1430 1044q160 27 268 76q170 78 170 195q0 49 -26.5 72.5t-96.5 23.5q-123 0 -215 -98q-100 -106 -100 -269zM1446 897 q16 -63 85 -127.5t132 -64.5q33 0 60.5 12t27.5 43q0 78 -119 112q-84 25 -186 25zM1681 1530q0 4 25 24q61 51 89 91.5t56 144.5q19 72 66 72q23 0 35 -14.5t12 -30.5q0 -70 -116.5 -182.5t-155.5 -112.5q-10 4 -11 8z" />
<glyph unicode="&#xca;" horiz-adv-x="1705" d="M391 213q0 18 125 94q139 84 254 129q0 217 156 340q137 109 389 142q-2 10 -5 32.5t-5 38.5q-39 -6 -91.5 -12t-97.5 -6q-178 0 -300 75.5t-122 198.5q0 133 110.5 215t268.5 82q96 0 225 -50t222 -128q74 41 131 57q74 23 151 23q53 0 90 -27.5t37 -77.5 q0 -125 -192 -227q-150 -80 -307 -100q0 -31 2 -46.5t8 -43.5q147 0 241.5 -39t94.5 -117q0 -43 -34 -68.5t-110 -25.5q-78 0 -168 55q-106 66 -141 166q-252 -33 -354 -133q-88 -86 -88 -240l4 -45q102 33 206.5 46.5t227.5 13.5q242 0 430 -102.5t188 -254.5 q0 -168 -137 -258q-113 -74 -270 -74q-268 0 -481 146q-229 156 -277 411q-53 -20 -102 -43.5t-97 -52.5q-86 -51 -131 -84q-35 -25 -36 -24q-14 0 -15 14zM739 1278q0 -84 123 -164q139 -90 330 -90q31 0 53.5 2t61.5 6q0 100 50 183t138 137q-100 61 -215 99t-229 38 q-133 0 -222.5 -52.5t-89.5 -158.5zM891 442q39 -215 248 -383t428 -168q147 0 232 55.5t85 159.5q0 158 -213 269.5t-457 111.5q-170 0 -323 -45zM1430 1044q160 27 268 76q170 78 170 195q0 49 -26.5 72.5t-96.5 23.5q-123 0 -215 -98q-100 -106 -100 -269zM1446 897 q16 -63 85 -127.5t132 -64.5q33 0 60.5 12t27.5 43q0 78 -119 112q-84 25 -186 25zM1526 1526q70 72 143 157q82 95 129 179h29q16 -84 57 -179q39 -80 80 -157l-4 -4q-25 0 -88.5 90t-77.5 127q-68 -70 -156 -143.5t-104 -73.5z" />
<glyph unicode="&#xcb;" horiz-adv-x="1705" d="M391 213q0 18 125 94q139 84 254 129q0 217 156 340q137 109 389 142q-2 10 -5 32.5t-5 38.5q-39 -6 -91.5 -12t-97.5 -6q-178 0 -300 75.5t-122 198.5q0 133 110.5 215t268.5 82q96 0 225 -50t222 -128q74 41 131 57q74 23 151 23q53 0 90 -27.5t37 -77.5 q0 -125 -192 -227q-150 -80 -307 -100q0 -31 2 -46.5t8 -43.5q147 0 241.5 -39t94.5 -117q0 -43 -34 -68.5t-110 -25.5q-78 0 -168 55q-106 66 -141 166q-252 -33 -354 -133q-88 -86 -88 -240l4 -45q102 33 206.5 46.5t227.5 13.5q242 0 430 -102.5t188 -254.5 q0 -168 -137 -258q-113 -74 -270 -74q-268 0 -481 146q-229 156 -277 411q-53 -20 -102 -43.5t-97 -52.5q-86 -51 -131 -84q-35 -25 -36 -24q-14 0 -15 14zM739 1278q0 -84 123 -164q139 -90 330 -90q31 0 53.5 2t61.5 6q0 100 50 183t138 137q-100 61 -215 99t-229 38 q-133 0 -222.5 -52.5t-89.5 -158.5zM891 442q39 -215 248 -383t428 -168q147 0 232 55.5t85 159.5q0 158 -213 269.5t-457 111.5q-170 0 -323 -45zM1430 1044q160 27 268 76q170 78 170 195q0 49 -26.5 72.5t-96.5 23.5q-123 0 -215 -98q-100 -106 -100 -269zM1446 897 q16 -63 85 -127.5t132 -64.5q33 0 60.5 12t27.5 43q0 78 -119 112q-84 25 -186 25zM1567 1675q0 35 17 58.5t54 23.5q59 0 60 -51q0 -43 -18.5 -65.5t-61.5 -22.5q-27 0 -39 12t-12 45zM1862 1675q0 35 17 58.5t54 23.5q59 0 60 -51q0 -43 -18.5 -65.5t-61.5 -22.5 q-27 0 -39 12t-12 45z" />
<glyph unicode="&#xcc;" horiz-adv-x="1488" d="M350 408q0 193 138.5 331t334.5 138q129 0 219 -64q100 -72 101 -199q0 -47 -13.5 -103t-37.5 -91q100 0 184 -42t135 -126q90 88 154 176q72 100 110 203q-78 104 -129 234t-51 249q0 145 48.5 237.5t146.5 92.5q96 0 167.5 -101.5t71.5 -261.5q0 -115 -53 -257 t-125 -240q41 -63 98 -113q10 -8 27 -20q0 -16 -14 -17q-8 0 -45 35t-86 88q-61 -86 -142.5 -173t-163.5 -159q18 -37 26.5 -82t8.5 -92q0 -156 -135 -258q-115 -86 -235 -86q-16 0 -17 12q0 10 68 21q111 18 184.5 122.5t73.5 227.5q0 25 -3 48.5t-12 54.5 q-127 -100 -269 -152.5t-320 -52.5q-182 0 -308 108q-137 119 -137 312zM440 487q0 -178 128 -312t309 -134q131 0 263 49t236 133q-37 84 -111.5 128t-156.5 44q-41 0 -100.5 -53t-110.5 -53q-43 0 -43 39q0 31 49 54.5t164 37.5q14 47 14 86q0 145 -90 235t-233 90 q-133 0 -225.5 -102.5t-92.5 -241.5zM1511 1817q0 14 14 29.5t34 15.5q47 0 65 -70q29 -109 55.5 -146.5t87.5 -89.5q27 -23 27 -26q0 -4 -10 -8q-39 0 -152 108q-121 117 -121 187zM1548 1202q0 -158 34 -290t110 -253q51 102 82.5 252t31.5 273q0 236 -125 235 q-59 0 -96 -59.5t-37 -157.5z" />
<glyph unicode="&#xcd;" horiz-adv-x="1488" d="M350 408q0 193 138.5 331t334.5 138q129 0 219 -64q100 -72 101 -199q0 -47 -13.5 -103t-37.5 -91q100 0 184 -42t135 -126q90 88 154 176q72 100 110 203q-78 104 -129 234t-51 249q0 145 48.5 237.5t146.5 92.5q96 0 167.5 -101.5t71.5 -261.5q0 -115 -53 -257 t-125 -240q41 -63 98 -113q10 -8 27 -20q0 -16 -14 -17q-8 0 -45 35t-86 88q-61 -86 -142.5 -173t-163.5 -159q18 -37 26.5 -82t8.5 -92q0 -156 -135 -258q-115 -86 -235 -86q-16 0 -17 12q0 10 68 21q111 18 184.5 122.5t73.5 227.5q0 25 -3 48.5t-12 54.5 q-127 -100 -269 -152.5t-320 -52.5q-182 0 -308 108q-137 119 -137 312zM440 487q0 -178 128 -312t309 -134q131 0 263 49t236 133q-37 84 -111.5 128t-156.5 44q-41 0 -100.5 -53t-110.5 -53q-43 0 -43 39q0 31 49 54.5t164 37.5q14 47 14 86q0 145 -90 235t-233 90 q-133 0 -225.5 -102.5t-92.5 -241.5zM1548 1202q0 -158 34 -290t110 -253q51 102 82.5 252t31.5 273q0 236 -125 235q-59 0 -96 -59.5t-37 -157.5zM1663 1530q0 4 25 24q61 51 88.5 91.5t56.5 144.5q18 72 65 72q23 0 35.5 -14.5t12.5 -30.5q0 -70 -117 -182.5t-156 -112.5 q-10 4 -10 8z" />
<glyph unicode="&#xce;" horiz-adv-x="1488" d="M350 408q0 193 138.5 331t334.5 138q129 0 219 -64q100 -72 101 -199q0 -47 -13.5 -103t-37.5 -91q100 0 184 -42t135 -126q90 88 154 176q72 100 110 203q-78 104 -129 234t-51 249q0 145 48.5 237.5t146.5 92.5q96 0 167.5 -101.5t71.5 -261.5q0 -115 -53 -257 t-125 -240q41 -63 98 -113q10 -8 27 -20q0 -16 -14 -17q-8 0 -45 35t-86 88q-61 -86 -142.5 -173t-163.5 -159q18 -37 26.5 -82t8.5 -92q0 -156 -135 -258q-115 -86 -235 -86q-16 0 -17 12q0 10 68 21q111 18 184.5 122.5t73.5 227.5q0 25 -3 48.5t-12 54.5 q-127 -100 -269 -152.5t-320 -52.5q-182 0 -308 108q-137 119 -137 312zM440 487q0 -178 128 -312t309 -134q131 0 263 49t236 133q-37 84 -111.5 128t-156.5 44q-41 0 -100.5 -53t-110.5 -53q-43 0 -43 39q0 31 49 54.5t164 37.5q14 47 14 86q0 145 -90 235t-233 90 q-133 0 -225.5 -102.5t-92.5 -241.5zM1507 1526q70 72 144 157q82 95 129 179h28q16 -84 58 -179q39 -80 80 -157l-4 -4q-25 0 -88.5 90t-77.5 127q-68 -70 -156 -143.5t-104 -73.5zM1548 1202q0 -158 34 -290t110 -253q51 102 82.5 252t31.5 273q0 236 -125 235 q-59 0 -96 -59.5t-37 -157.5z" />
<glyph unicode="&#xcf;" horiz-adv-x="1488" d="M350 408q0 193 138.5 331t334.5 138q129 0 219 -64q100 -72 101 -199q0 -47 -13.5 -103t-37.5 -91q100 0 184 -42t135 -126q90 88 154 176q72 100 110 203q-78 104 -129 234t-51 249q0 145 48.5 237.5t146.5 92.5q96 0 167.5 -101.5t71.5 -261.5q0 -115 -53 -257 t-125 -240q41 -63 98 -113q10 -8 27 -20q0 -16 -14 -17q-8 0 -45 35t-86 88q-61 -86 -142.5 -173t-163.5 -159q18 -37 26.5 -82t8.5 -92q0 -156 -135 -258q-115 -86 -235 -86q-16 0 -17 12q0 10 68 21q111 18 184.5 122.5t73.5 227.5q0 25 -3 48.5t-12 54.5 q-127 -100 -269 -152.5t-320 -52.5q-182 0 -308 108q-137 119 -137 312zM440 487q0 -178 128 -312t309 -134q131 0 263 49t236 133q-37 84 -111.5 128t-156.5 44q-41 0 -100.5 -53t-110.5 -53q-43 0 -43 39q0 31 49 54.5t164 37.5q14 47 14 86q0 145 -90 235t-233 90 q-133 0 -225.5 -102.5t-92.5 -241.5zM1548 1202q0 -158 34 -290t110 -253q51 102 82.5 252t31.5 273q0 236 -125 235q-59 0 -96 -59.5t-37 -157.5zM1548 1675q0 35 17.5 58.5t54.5 23.5q59 0 59 -51q0 -43 -18.5 -65.5t-61.5 -22.5q-27 0 -39 12t-12 45zM1843 1675 q0 35 17.5 58.5t54.5 23.5q59 0 59 -51q0 -43 -18.5 -65.5t-61.5 -22.5q-27 0 -39 12t-12 45z" />
<glyph unicode="&#xd0;" horiz-adv-x="1820" />
<glyph unicode="&#xd1;" horiz-adv-x="2193" d="M350 440q0 160 39 239t94 79q63 0 64 -70q0 -41 -29 -65q-20 -18 -62 -30.5t-57.5 -44.5t-15.5 -75q0 -178 168 -301q150 -111 321 -111q250 0 476 187q188 158 350 432q131 223 215 481q-84 119 -205 190.5t-260 71.5q-188 0 -324.5 -132t-136.5 -343q0 -133 74 -237 q82 -115 205 -115q139 0 239 123q35 43 72 127q12 29 18 28q14 0 15 -12q0 -104 -152 -231q-114 -96 -266 -96q-131 0 -219 98t-88 231q0 256 198 439q190 174 441 174q258 0 430 -172q18 70 37 141q6 29 28 29q25 0 25 -33q0 -20 -20.5 -95t-22.5 -85q86 -121 124 -267.5 t38 -320.5q0 -78 -9 -154q-14 -100 -20 -149l4 -4q100 254 246 462q158 223 356 379l-4 4q-80 -25 -178 -24q-63 0 -117.5 8t-54.5 18q0 18 18 19q6 0 27 -6q47 -14 125 -15q59 0 128 16.5t101 39.5q104 80 162 123q109 80 166 79q59 0 59 -47q0 -51 -51 -84 q-41 -27 -186 -82q-193 -74 -385 -280q-150 -162 -283 -387q-111 -188 -131 -279q-29 -135 -57 -270q-14 -53 -58 -53q-41 0 -41 43q0 31 56.5 157.5t56.5 139.5q0 23 8 88t8 92q0 182 -36.5 329.5t-120.5 268.5q-123 -281 -258 -492q-180 -281 -379 -436 q-244 -190 -504 -190q-217 0 -339 129t-122 323zM2187 1620q0 29 35 82q46 70 107 70q35 0 71 -11q8 -2 76 -26q37 -12 78 -24.5t65 -12.5q47 0 74 28q20 33 43 66q8 -10 8 -14q0 -57 -48 -105.5t-111 -48.5q-31 0 -65 9t-75 26q-18 6 -58 20.5t-77 14.5q-49 0 -80.5 -44 t-34.5 -44q-8 10 -8 14z" />
<glyph unicode="&#xd2;" horiz-adv-x="1478" d="M639 393q0 416 315.5 745.5t696.5 329.5q154 0 256 -96t102 -254q0 -174 -115 -321q-51 -199 -191 -389.5t-308 -307.5l63 -6q102 0 193.5 51.5t156.5 139.5q6 12 10.5 19t12.5 7l10 -14q-29 -41 -51 -64q-70 -76 -145 -112q-96 -51 -222 -51l-73 6q-72 -45 -163 -66.5 t-186 -21.5q-160 0 -261 117.5t-101 287.5zM778 401q0 -176 72 -282.5t199 -106.5q53 0 146 24.5t126 49.5q-133 45 -198.5 158.5t-65.5 277.5q0 260 189.5 506t393.5 246q129 0 203 -107q63 -92 64 -231q0 -16 -4.5 -47t-4.5 -45q29 35 47.5 101.5t18.5 125.5 q0 178 -87 275.5t-251 97.5q-336 0 -600 -350q-248 -331 -248 -693zM1151 559q0 -160 49 -274q57 -131 170 -172q156 94 268 260q104 152 158 342l-4 4q-61 -45 -147 -66.5t-170 -21.5q-66 0 -87.5 4t-21.5 16q0 10 16 11q6 0 33 -3.5t39 -3.5q121 0 198 20.5t158 88.5 q10 31 16.5 82t6.5 90q0 166 -54.5 239.5t-142.5 73.5q-170 0 -327.5 -216t-157.5 -474zM1487 1817q0 14 13.5 29.5t33.5 15.5q47 0 65 -70q29 -109 55.5 -146.5t88.5 -89.5q27 -23 26 -26q0 -4 -10 -8q-39 0 -151 108q-121 117 -121 187z" />
<glyph unicode="&#xd3;" horiz-adv-x="1478" d="M639 393q0 416 315.5 745.5t696.5 329.5q154 0 256 -96t102 -254q0 -174 -115 -321q-51 -199 -191 -389.5t-308 -307.5l63 -6q102 0 193.5 51.5t156.5 139.5q6 12 10.5 19t12.5 7l10 -14q-29 -41 -51 -64q-70 -76 -145 -112q-96 -51 -222 -51l-73 6q-72 -45 -163 -66.5 t-186 -21.5q-160 0 -261 117.5t-101 287.5zM778 401q0 -176 72 -282.5t199 -106.5q53 0 146 24.5t126 49.5q-133 45 -198.5 158.5t-65.5 277.5q0 260 189.5 506t393.5 246q129 0 203 -107q63 -92 64 -231q0 -16 -4.5 -47t-4.5 -45q29 35 47.5 101.5t18.5 125.5 q0 178 -87 275.5t-251 97.5q-336 0 -600 -350q-248 -331 -248 -693zM1151 559q0 -160 49 -274q57 -131 170 -172q156 94 268 260q104 152 158 342l-4 4q-61 -45 -147 -66.5t-170 -21.5q-66 0 -87.5 4t-21.5 16q0 10 16 11q6 0 33 -3.5t39 -3.5q121 0 198 20.5t158 88.5 q10 31 16.5 82t6.5 90q0 166 -54.5 239.5t-142.5 73.5q-170 0 -327.5 -216t-157.5 -474zM1638 1530q0 4 25 24q61 51 89 91.5t56 144.5q19 72 66 72q23 0 35 -14.5t12 -30.5q0 -70 -116.5 -182.5t-155.5 -112.5q-10 4 -11 8z" />
<glyph unicode="&#xd4;" horiz-adv-x="1478" d="M639 393q0 416 315.5 745.5t696.5 329.5q154 0 256 -96t102 -254q0 -174 -115 -321q-51 -199 -191 -389.5t-308 -307.5l63 -6q102 0 193.5 51.5t156.5 139.5q6 12 10.5 19t12.5 7l10 -14q-29 -41 -51 -64q-70 -76 -145 -112q-96 -51 -222 -51l-73 6q-72 -45 -163 -66.5 t-186 -21.5q-160 0 -261 117.5t-101 287.5zM778 401q0 -176 72 -282.5t199 -106.5q53 0 146 24.5t126 49.5q-133 45 -198.5 158.5t-65.5 277.5q0 260 189.5 506t393.5 246q129 0 203 -107q63 -92 64 -231q0 -16 -4.5 -47t-4.5 -45q29 35 47.5 101.5t18.5 125.5 q0 178 -87 275.5t-251 97.5q-336 0 -600 -350q-248 -331 -248 -693zM1151 559q0 -160 49 -274q57 -131 170 -172q156 94 268 260q104 152 158 342l-4 4q-61 -45 -147 -66.5t-170 -21.5q-66 0 -87.5 4t-21.5 16q0 10 16 11q6 0 33 -3.5t39 -3.5q121 0 198 20.5t158 88.5 q10 31 16.5 82t6.5 90q0 166 -54.5 239.5t-142.5 73.5q-170 0 -327.5 -216t-157.5 -474zM1483 1526q70 72 143 157q82 95 129 179h29q16 -84 57 -179q39 -80 80 -157l-4 -4q-25 0 -88.5 90t-77.5 127q-68 -70 -156 -143.5t-104 -73.5z" />
<glyph unicode="&#xd5;" horiz-adv-x="1478" d="M639 393q0 416 315.5 745.5t696.5 329.5q154 0 256 -96t102 -254q0 -174 -115 -321q-51 -199 -191 -389.5t-308 -307.5l63 -6q102 0 193.5 51.5t156.5 139.5q6 12 10.5 19t12.5 7l10 -14q-29 -41 -51 -64q-70 -76 -145 -112q-96 -51 -222 -51l-73 6q-72 -45 -163 -66.5 t-186 -21.5q-160 0 -261 117.5t-101 287.5zM778 401q0 -176 72 -282.5t199 -106.5q53 0 146 24.5t126 49.5q-133 45 -198.5 158.5t-65.5 277.5q0 260 189.5 506t393.5 246q129 0 203 -107q63 -92 64 -231q0 -16 -4.5 -47t-4.5 -45q29 35 47.5 101.5t18.5 125.5 q0 178 -87 275.5t-251 97.5q-336 0 -600 -350q-248 -331 -248 -693zM1151 559q0 -160 49 -274q57 -131 170 -172q156 94 268 260q104 152 158 342l-4 4q-61 -45 -147 -66.5t-170 -21.5q-66 0 -87.5 4t-21.5 16q0 10 16 11q6 0 33 -3.5t39 -3.5q121 0 198 20.5t158 88.5 q10 31 16.5 82t6.5 90q0 166 -54.5 239.5t-142.5 73.5q-170 0 -327.5 -216t-157.5 -474zM1458 1620q0 29 35 82q45 70 106 70q35 0 72 -11q8 -2 76 -26q37 -12 78 -24.5t65 -12.5q47 0 74 28q20 33 43 66q8 -10 8 -14q0 -57 -48 -105.5t-112 -48.5q-31 0 -64.5 9t-74.5 26 q-18 6 -58 20.5t-77 14.5q-49 0 -81 -44t-34 -44q-8 10 -8 14z" />
<glyph unicode="&#xd6;" horiz-adv-x="1478" d="M639 393q0 416 315.5 745.5t696.5 329.5q154 0 256 -96t102 -254q0 -174 -115 -321q-51 -199 -191 -389.5t-308 -307.5l63 -6q102 0 193.5 51.5t156.5 139.5q6 12 10.5 19t12.5 7l10 -14q-29 -41 -51 -64q-70 -76 -145 -112q-96 -51 -222 -51l-73 6q-72 -45 -163 -66.5 t-186 -21.5q-160 0 -261 117.5t-101 287.5zM778 401q0 -176 72 -282.5t199 -106.5q53 0 146 24.5t126 49.5q-133 45 -198.5 158.5t-65.5 277.5q0 260 189.5 506t393.5 246q129 0 203 -107q63 -92 64 -231q0 -16 -4.5 -47t-4.5 -45q29 35 47.5 101.5t18.5 125.5 q0 178 -87 275.5t-251 97.5q-336 0 -600 -350q-248 -331 -248 -693zM1151 559q0 -160 49 -274q57 -131 170 -172q156 94 268 260q104 152 158 342l-4 4q-61 -45 -147 -66.5t-170 -21.5q-66 0 -87.5 4t-21.5 16q0 10 16 11q6 0 33 -3.5t39 -3.5q121 0 198 20.5t158 88.5 q10 31 16.5 82t6.5 90q0 166 -54.5 239.5t-142.5 73.5q-170 0 -327.5 -216t-157.5 -474zM1524 1675q0 35 17 58.5t54 23.5q59 0 60 -51q0 -43 -18.5 -65.5t-61.5 -22.5q-27 0 -39 12t-12 45zM1819 1675q0 35 17 58.5t54 23.5q59 0 60 -51q0 -43 -18.5 -65.5t-61.5 -22.5 q-27 0 -39 12t-12 45z" />
<glyph unicode="&#xd7;" horiz-adv-x="819" d="M469 45l238 242l-238 243l45 45l240 -243l239 243l45 -45l-239 -243l239 -242l-45 -45l-239 244l-240 -244z" />
<glyph unicode="&#xd8;" horiz-adv-x="1478" d="M639 393q0 416 315.5 745.5t696.5 329.5q98 0 176 -41l180 254h29l-187 -264q76 -45 118 -120.5t42 -178.5q0 -174 -115 -321q-51 -199 -191 -389.5t-308 -307.5l63 -6q102 0 193.5 51.5t156.5 139.5q6 12 10.5 19t12.5 7l10 -14q-29 -41 -51 -64q-70 -76 -145 -112 q-96 -51 -222 -51l-73 6q-72 -45 -163 -66.5t-186 -21.5q-74 0 -135 28l-192 -272h-31l199 283q-96 47 -149.5 144t-53.5 222zM778 401q1 -217 103 -319l196 278q-20 70 -20 162q0 260 189.5 506t393.5 246q37 0 72 -10l96 137q-74 43 -182 43q-336 0 -600 -350 q-248 -330 -248 -693zM901 66q63 -53 148 -54q53 0 146 24.5t126 49.5q-90 31 -148.5 93.5t-85.5 152.5zM1151 559l2 -88l543 768q-27 10 -60 10q-170 0 -327.5 -216t-157.5 -474zM1159 438q18 -121 70.5 -207t140.5 -118q156 94 268 260q104 152 158 342l-4 4 q-61 -45 -147 -66.5t-170 -21.5q-66 0 -87.5 4t-21.5 16q0 10 16 11q6 0 33 -3.5t39 -3.5q121 0 198 20.5t158 88.5q10 31 16.5 82t6.5 90q0 123 -30 193.5t-85 99.5zM1735 1253q86 -33 129 -119.5t43 -197.5q0 -16 -4.5 -47t-4.5 -45q29 35 47.5 101.5t18.5 125.5 q0 224 -135 318z" />
<glyph unicode="&#xd9;" horiz-adv-x="1820" d="M573 819q0 238 214 431.5t452 193.5q115 0 180.5 -59.5t65.5 -167.5q0 -113 -58 -240q-43 -98 -139 -232q-66 -92 -155 -198q66 6 157 39q68 23 115 47q23 12 55 29q6 2 15 8l10 -8q0 -8 -4 -13q-10 -12 -51 -31q-57 -29 -160 -64.5t-160 -41.5q-88 -104 -143 -197 q-74 -125 -74 -211q0 -92 94 -92q100 0 301 121q145 88 273 186q20 178 192 459q160 260 350 457q203 209 307 209q29 0 42.5 -17.5t13.5 -46.5q0 -125 -150 -336q-117 -166 -317 -372q-129 -133 -283 -275q-33 -121 -33 -278q0 -51 25 -80t70 -29q35 0 87 25.5t105 62.5 q61 45 137 133q31 37 64 74q4 0 7 -4t5 -6q0 -8 -36 -49t-44 -51q-78 -90 -161 -144q-100 -63 -197 -63q-86 0 -135 67.5t-49 194.5v39q-158 -119 -269 -185q-195 -117 -309 -116q-82 0 -123 45t-41 149q0 82 37 166q27 59 94 164q-164 0 -266 78q-111 84 -111 229zM676 819 q0 -129 63 -198q74 -82 230 -82q53 68 217 249q131 145 180 226q74 121 74 235q0 92 -57.5 131t-159.5 39q-186 0 -357 -166q-190 -184 -190 -434zM1706 1817q0 14 13.5 29.5t33.5 15.5q47 0 66 -70q29 -109 55.5 -146.5t87.5 -89.5q27 -23 27 -26q0 -4 -11 -8 q-39 0 -151 108q-121 117 -121 187zM1724 440l5 -4q272 252 479 512q233 295 233 430q0 41 -35 41q-86 0 -249 -205q-145 -180 -279 -421.5t-154 -352.5z" />
<glyph unicode="&#xda;" horiz-adv-x="1820" d="M573 819q0 238 214 431.5t452 193.5q115 0 180.5 -59.5t65.5 -167.5q0 -113 -58 -240q-43 -98 -139 -232q-66 -92 -155 -198q66 6 157 39q68 23 115 47q23 12 55 29q6 2 15 8l10 -8q0 -8 -4 -13q-10 -12 -51 -31q-57 -29 -160 -64.5t-160 -41.5q-88 -104 -143 -197 q-74 -125 -74 -211q0 -92 94 -92q100 0 301 121q145 88 273 186q20 178 192 459q160 260 350 457q203 209 307 209q29 0 42.5 -17.5t13.5 -46.5q0 -125 -150 -336q-117 -166 -317 -372q-129 -133 -283 -275q-33 -121 -33 -278q0 -51 25 -80t70 -29q35 0 87 25.5t105 62.5 q61 45 137 133q31 37 64 74q4 0 7 -4t5 -6q0 -8 -36 -49t-44 -51q-78 -90 -161 -144q-100 -63 -197 -63q-86 0 -135 67.5t-49 194.5v39q-158 -119 -269 -185q-195 -117 -309 -116q-82 0 -123 45t-41 149q0 82 37 166q27 59 94 164q-164 0 -266 78q-111 84 -111 229zM676 819 q0 -129 63 -198q74 -82 230 -82q53 68 217 249q131 145 180 226q74 121 74 235q0 92 -57.5 131t-159.5 39q-186 0 -357 -166q-190 -184 -190 -434zM1724 440l5 -4q272 252 479 512q233 295 233 430q0 41 -35 41q-86 0 -249 -205q-145 -180 -279 -421.5t-154 -352.5z M1858 1530q0 4 24 24q61 51 89 91.5t57 144.5q18 72 65 72q23 0 35 -14.5t12 -30.5q0 -70 -116.5 -182.5t-155.5 -112.5q-10 4 -10 8z" />
<glyph unicode="&#xdb;" horiz-adv-x="1820" d="M573 819q0 238 214 431.5t452 193.5q115 0 180.5 -59.5t65.5 -167.5q0 -113 -58 -240q-43 -98 -139 -232q-66 -92 -155 -198q66 6 157 39q68 23 115 47q23 12 55 29q6 2 15 8l10 -8q0 -8 -4 -13q-10 -12 -51 -31q-57 -29 -160 -64.5t-160 -41.5q-88 -104 -143 -197 q-74 -125 -74 -211q0 -92 94 -92q100 0 301 121q145 88 273 186q20 178 192 459q160 260 350 457q203 209 307 209q29 0 42.5 -17.5t13.5 -46.5q0 -125 -150 -336q-117 -166 -317 -372q-129 -133 -283 -275q-33 -121 -33 -278q0 -51 25 -80t70 -29q35 0 87 25.5t105 62.5 q61 45 137 133q31 37 64 74q4 0 7 -4t5 -6q0 -8 -36 -49t-44 -51q-78 -90 -161 -144q-100 -63 -197 -63q-86 0 -135 67.5t-49 194.5v39q-158 -119 -269 -185q-195 -117 -309 -116q-82 0 -123 45t-41 149q0 82 37 166q27 59 94 164q-164 0 -266 78q-111 84 -111 229zM676 819 q0 -129 63 -198q74 -82 230 -82q53 68 217 249q131 145 180 226q74 121 74 235q0 92 -57.5 131t-159.5 39q-186 0 -357 -166q-190 -184 -190 -434zM1702 1526q70 72 143 157q82 95 129 179h29q16 -84 57 -179q39 -80 80 -157l-4 -4q-25 0 -88 90t-78 127 q-68 -70 -156 -143.5t-104 -73.5zM1724 440l5 -4q272 252 479 512q233 295 233 430q0 41 -35 41q-86 0 -249 -205q-145 -180 -279 -421.5t-154 -352.5z" />
<glyph unicode="&#xdc;" horiz-adv-x="1820" d="M573 819q0 238 214 431.5t452 193.5q115 0 180.5 -59.5t65.5 -167.5q0 -113 -58 -240q-43 -98 -139 -232q-66 -92 -155 -198q66 6 157 39q68 23 115 47q23 12 55 29q6 2 15 8l10 -8q0 -8 -4 -13q-10 -12 -51 -31q-57 -29 -160 -64.5t-160 -41.5q-88 -104 -143 -197 q-74 -125 -74 -211q0 -92 94 -92q100 0 301 121q145 88 273 186q20 178 192 459q160 260 350 457q203 209 307 209q29 0 42.5 -17.5t13.5 -46.5q0 -125 -150 -336q-117 -166 -317 -372q-129 -133 -283 -275q-33 -121 -33 -278q0 -51 25 -80t70 -29q35 0 87 25.5t105 62.5 q61 45 137 133q31 37 64 74q4 0 7 -4t5 -6q0 -8 -36 -49t-44 -51q-78 -90 -161 -144q-100 -63 -197 -63q-86 0 -135 67.5t-49 194.5v39q-158 -119 -269 -185q-195 -117 -309 -116q-82 0 -123 45t-41 149q0 82 37 166q27 59 94 164q-164 0 -266 78q-111 84 -111 229zM676 819 q0 -129 63 -198q74 -82 230 -82q53 68 217 249q131 145 180 226q74 121 74 235q0 92 -57.5 131t-159.5 39q-186 0 -357 -166q-190 -184 -190 -434zM1724 440l5 -4q272 252 479 512q233 295 233 430q0 41 -35 41q-86 0 -249 -205q-145 -180 -279 -421.5t-154 -352.5z M1743 1675q0 35 17.5 58.5t54.5 23.5q59 0 59 -51q0 -43 -18.5 -65.5t-61.5 -22.5q-27 0 -39 12t-12 45zM2038 1675q0 35 17 58.5t54 23.5q59 0 60 -51q0 -43 -18.5 -65.5t-61.5 -22.5q-27 0 -39 12t-12 45z" />
<glyph unicode="&#xdd;" horiz-adv-x="1933" d="M408 12q0 90 32 189q45 131 113 131q27 0 45 -20.5t18 -43.5q0 -72 -88 -102.5t-88 -112.5q0 -172 168 -307q160 -127 346 -127q258 0 451 158q150 123 332 418l-4 4q-131 -92 -217 -138q-137 -74 -232 -73q-104 0 -151.5 61.5t-47.5 177.5q0 186 134 389 q125 162 251 326q135 178 136 295q0 66 -37 111q-43 51 -115 51q-90 0 -196.5 -50.5t-198.5 -129.5q-117 -104 -176 -224q-72 -143 -72 -325q0 -127 20 -232q23 -78 48 -155q0 -16 -9 -17q-16 0 -47 119q-37 143 -37 285q0 324 191 553q182 221 420 221q117 0 179 -58.5 t62 -173.5q0 -129 -116 -338q-109 -184 -215 -366q-119 -219 -119 -367q0 -72 25.5 -100.5t78.5 -28.5q94 0 246 84q90 51 219 144q113 246 275 510q180 293 340 473q184 209 294 209q33 0 50.5 -21.5t17.5 -54.5q0 -133 -141 -334q-127 -180 -346 -393q-190 -184 -441 -389 q-162 -299 -381 -476q-258 -207 -559 -206q-195 0 -323 118q-135 125 -135 336zM1831 293l4 -4q272 236 563 579q311 371 312 490q-1 49 -46 49q-96 0 -260 -201q-141 -170 -307 -446q-115 -188 -266 -467zM1917 1530q0 4 25 24q61 51 88.5 91.5t56.5 144.5q18 72 65 72 q23 0 35.5 -14.5t12.5 -30.5q0 -70 -117 -182.5t-156 -112.5q-10 4 -10 8z" />
<glyph unicode="&#xde;" horiz-adv-x="1933" />
<glyph unicode="&#xdf;" d="M-16 -573l639 1140l-5 4q-49 -41 -108 -108q-45 -53 -90 -107q-35 -41 -60 -67q-6 -6 -12 -13l-10 13q31 37 47 57q33 41 84 100q61 74 123 125q43 37 55 60q176 330 311 491q150 180 265 181q43 0 69.5 -27t26.5 -70q0 -72 -41 -154.5t-145 -205.5q-49 -59 -148 -133 q-61 -47 -61 -80q0 -29 8 -53q2 -6 22 -48q25 -57 40.5 -127.5t15.5 -125.5q0 -76 -27 -140l4 -4q18 16 55 53t54 58q25 29 37 44t18 15q10 -8 10 -12q-6 -10 -10 -14q-10 -12 -21 -25q-119 -141 -212 -207q-86 -59 -158 -59q-133 0 -133 116q0 25 15 42.5t40 17.5 q39 0 39 -51q0 -18 -8 -35t-15 -29q0 -29 39 -29q41 0 113 95q86 113 86 239q0 45 -5 75t-20.5 87t-17.5 62q-14 47 -14 67q0 25 26 51q4 4 51 41q102 70 210 221.5t108 237.5q0 74 -68 74q-76 0 -175 -129t-228 -377l-684 -1331z" />
<glyph unicode="&#xe0;" d="M340 289q0 4 6 12q23 27 27 33q88 106 200.5 173.5t217.5 67.5q45 0 66.5 -27.5t21.5 -74.5q0 -37 -7 -55l5 -4q14 23 55 98q26 49 57 49l98 4q-57 -74 -167 -254q-127 -209 -127 -258q0 -29 34 -28q41 0 123 71q72 63 168 176q16 18 31 33q6 0 10 -6q0 -4 2 -6 q-25 -29 -39 -45q-47 -55 -73 -84q-70 -74 -129.5 -119t-98.5 -45q-45 0 -67.5 30.5t-22.5 112.5l2 37q-78 -78 -121 -112q-84 -68 -133 -68q-72 0 -100.5 53t-28.5 135q0 29 2 44.5t8 52.5l-12 -6zM432 90q0 -66 47 -65q90 0 232.5 168.5t142.5 281.5q0 76 -63 76 q-117 0 -242 -174q-117 -164 -117 -287zM674 973q0 14 13.5 29.5t33.5 15.5q47 0 65 -70q29 -109 55.5 -146.5t88.5 -88.5q27 -23 26 -27q0 -4 -10 -8q-39 0 -151 108q-121 117 -121 187z" />
<glyph unicode="&#xe1;" d="M340 289q0 4 6 12q23 27 27 33q88 106 200.5 173.5t217.5 67.5q45 0 66.5 -27.5t21.5 -74.5q0 -37 -7 -55l5 -4q14 23 55 98q26 49 57 49l98 4q-57 -74 -167 -254q-127 -209 -127 -258q0 -29 34 -28q41 0 123 71q72 63 168 176q16 18 31 33q6 0 10 -6q0 -4 2 -6 q-25 -29 -39 -45q-47 -55 -73 -84q-70 -74 -129.5 -119t-98.5 -45q-45 0 -67.5 30.5t-22.5 112.5l2 37q-78 -78 -121 -112q-84 -68 -133 -68q-72 0 -100.5 53t-28.5 135q0 29 2 44.5t8 52.5l-12 -6zM432 90q0 -66 47 -65q90 0 232.5 168.5t142.5 281.5q0 76 -63 76 q-117 0 -242 -174q-117 -164 -117 -287zM825 686q0 4 25 25q61 51 89 91t56 144q19 72 66 72q23 0 35 -14.5t12 -30.5q0 -70 -117 -182.5t-155 -112.5q-10 4 -11 8z" />
<glyph unicode="&#xe2;" d="M340 289q0 4 6 12q23 27 27 33q88 106 200.5 173.5t217.5 67.5q45 0 66.5 -27.5t21.5 -74.5q0 -37 -7 -55l5 -4q14 23 55 98q26 49 57 49l98 4q-57 -74 -167 -254q-127 -209 -127 -258q0 -29 34 -28q41 0 123 71q72 63 168 176q16 18 31 33q6 0 10 -6q0 -4 2 -6 q-25 -29 -39 -45q-47 -55 -73 -84q-70 -74 -129.5 -119t-98.5 -45q-45 0 -67.5 30.5t-22.5 112.5l2 37q-78 -78 -121 -112q-84 -68 -133 -68q-72 0 -100.5 53t-28.5 135q0 29 2 44.5t8 52.5l-12 -6zM432 90q0 -66 47 -65q90 0 232.5 168.5t142.5 281.5q0 76 -63 76 q-117 0 -242 -174q-117 -164 -117 -287zM670 682q70 72 143 158q82 94 129 178h29q16 -84 57 -178q39 -80 80 -158l-4 -4q-25 0 -88.5 90t-77.5 127q-68 -70 -156 -143.5t-104 -73.5z" />
<glyph unicode="&#xe3;" d="M340 289q0 4 6 12q23 27 27 33q88 106 200.5 173.5t217.5 67.5q45 0 66.5 -27.5t21.5 -74.5q0 -37 -7 -55l5 -4q14 23 55 98q26 49 57 49l98 4q-57 -74 -167 -254q-127 -209 -127 -258q0 -29 34 -28q41 0 123 71q72 63 168 176q16 18 31 33q6 0 10 -6q0 -4 2 -6 q-25 -29 -39 -45q-47 -55 -73 -84q-70 -74 -129.5 -119t-98.5 -45q-45 0 -67.5 30.5t-22.5 112.5l2 37q-78 -78 -121 -112q-84 -68 -133 -68q-72 0 -100.5 53t-28.5 135q0 29 2 44.5t8 52.5l-12 -6zM432 90q0 -66 47 -65q90 0 232.5 168.5t142.5 281.5q0 76 -63 76 q-117 0 -242 -174q-117 -164 -117 -287zM645 776q0 29 35 82q45 70 106 70q35 0 72 -10q8 -2 76 -27q37 -12 78 -24.5t65 -12.5q47 0 74 29q20 33 43 65q8 -10 8 -14q0 -57 -48 -105.5t-112 -48.5q-31 0 -64.5 9.5t-74.5 25.5q-18 6 -58 20.5t-77 14.5q-49 0 -81 -44 t-34 -44q-8 10 -8 14z" />
<glyph unicode="&#xe4;" d="M340 289q0 4 6 12q23 27 27 33q88 106 200.5 173.5t217.5 67.5q45 0 66.5 -27.5t21.5 -74.5q0 -37 -7 -55l5 -4q14 23 55 98q26 49 57 49l98 4q-57 -74 -167 -254q-127 -209 -127 -258q0 -29 34 -28q41 0 123 71q72 63 168 176q16 18 31 33q6 0 10 -6q0 -4 2 -6 q-25 -29 -39 -45q-47 -55 -73 -84q-70 -74 -129.5 -119t-98.5 -45q-45 0 -67.5 30.5t-22.5 112.5l2 37q-78 -78 -121 -112q-84 -68 -133 -68q-72 0 -100.5 53t-28.5 135q0 29 2 44.5t8 52.5l-12 -6zM432 90q0 -66 47 -65q90 0 232.5 168.5t142.5 281.5q0 76 -63 76 q-117 0 -242 -174q-117 -164 -117 -287zM711 831q0 35 17 58.5t54 23.5q59 0 60 -51q0 -43 -18.5 -65.5t-61.5 -22.5q-27 0 -39 12.5t-12 44.5zM1006 831q0 35 17 58.5t54 23.5q59 0 60 -51q0 -43 -18.5 -65.5t-61.5 -22.5q-27 0 -39 12.5t-12 44.5z" />
<glyph unicode="&#xe5;" d="M340 289q0 4 6 12q23 27 27 33q88 106 200.5 173.5t217.5 67.5q45 0 66.5 -27.5t21.5 -74.5q0 -37 -7 -55l5 -4q14 23 55 98q26 49 57 49l98 4q-57 -74 -167 -254q-127 -209 -127 -258q0 -29 34 -28q41 0 123 71q72 63 168 176q16 18 31 33q6 0 10 -6q0 -4 2 -6 q-25 -29 -39 -45q-47 -55 -73 -84q-70 -74 -129.5 -119t-98.5 -45q-45 0 -67.5 30.5t-22.5 112.5l2 37q-78 -78 -121 -112q-84 -68 -133 -68q-72 0 -100.5 53t-28.5 135q0 29 2 44.5t8 52.5l-12 -6zM432 90q0 -66 47 -65q90 0 232.5 168.5t142.5 281.5q0 76 -63 76 q-117 0 -242 -174q-117 -164 -117 -287zM739 848q0 78 52.5 130t128.5 52t128 -52t52 -130q0 -76 -51.5 -129t-128.5 -53q-74 0 -127.5 53t-53.5 129zM784 848q0 -55 39 -96t97 -41q53 0 94 41t41 96t-39 96t-96 41q-53 0 -94.5 -41t-41.5 -96z" />
<glyph unicode="&#xe6;" horiz-adv-x="1024" d="M340 289q0 2 37 51q80 96 198.5 165.5t215.5 69.5q43 0 69.5 -22.5t34.5 -56.5q16 37 20 43q14 20 39 20l97 8q-16 -27 -27.5 -44t-32.5 -44l4 -4q51 47 108.5 73.5t117.5 26.5q47 0 74.5 -27.5t27.5 -72.5q0 -102 -172 -184q-135 -63 -299 -88q-12 -16 -22.5 -54 t-10.5 -65q0 -59 84 -59q78 0 174 43q117 51 213 147q39 37 70 76q14 16 18 16l11 -8q0 -8 -28 -40t-67 -69q-94 -86 -184 -133q-113 -57 -219 -57q-80 0 -117 27.5t-37 76.5q0 29 6 58q0 6 7 16l-5 4l-34 -37q-59 -61 -109 -96q-70 -49 -123 -49q-72 0 -100.5 53t-28.5 135 q0 33 1 44.5t9 52.5l-12 -6zM432 90q0 -66 47 -65q90 0 240.5 165.5t150.5 274.5q0 35 -20.5 60.5t-58.5 25.5q-117 0 -242 -174q-117 -164 -117 -287zM860 227q147 12 274.5 94.5t127.5 188.5q0 41 -41 41q-78 0 -178.5 -92t-182.5 -232z" />
<glyph unicode="&#xe7;" horiz-adv-x="569" d="M274 -350q8 12 13 12l47 -4q115 0 178 25q78 31 78 96q0 72 -94 71h-72l80 170h22l-55 -129h33q172 0 172 -106q0 -68 -76 -110t-205 -42q-78 0 -99.5 4.5t-21.5 12.5zM340 289q6 12 16 26q2 2 54 64q84 100 172 148t176 48q61 0 97 -25.5t36 -76.5q0 -31 -21.5 -59.5 t-54.5 -28.5q-27 0 -39 14.5t-12 36.5q0 27 30.5 41.5t30.5 36.5q0 37 -47 37q-102 0 -209 -133q-117 -145 -116 -312q0 -82 86 -81q53 0 124.5 39.5t137.5 109.5q84 88 102 109q10 12 19 24q6 0 10 -6q0 -4 2 -6q-14 -18 -23 -29q-33 -41 -57 -65q-96 -106 -174 -153.5 t-156 -47.5q-88 0 -129 76q-33 59 -33 151q0 25 1.5 35t5.5 21l-4 4l-15 -8z" />
<glyph unicode="&#xe8;" horiz-adv-x="569" d="M340 289q0 4 18 26q31 37 58 64q88 90 181 143t173 53q47 0 74.5 -27.5t27.5 -72.5q0 -100 -165 -184q-117 -59 -256 -88q-4 -16 -6.5 -31.5t-2.5 -36.5q0 -61 18.5 -85.5t67.5 -24.5t117 34q84 43 170 129q37 37 80 91q25 29 29 28q10 -8 10 -12q0 -8 -48 -62.5 t-93 -95.5q-145 -137 -279 -137q-78 0 -120 65.5t-42 153.5q0 25 1 36t5 24l-8 -3zM459 227q115 14 225 92q127 90 127 191q0 41 -41 41q-78 0 -183.5 -114.5t-127.5 -209.5zM569 973q0 14 13.5 29.5t33.5 15.5q47 0 66 -70q29 -109 55.5 -146.5t87.5 -88.5q27 -23 27 -27 t-10 -8q-39 0 -152 108q-121 117 -121 187z" />
<glyph unicode="&#xe9;" horiz-adv-x="569" d="M340 289q0 4 18 26q31 37 58 64q88 90 181 143t173 53q47 0 74.5 -27.5t27.5 -72.5q0 -100 -165 -184q-117 -59 -256 -88q-4 -16 -6.5 -31.5t-2.5 -36.5q0 -61 18.5 -85.5t67.5 -24.5t117 34q84 43 170 129q37 37 80 91q25 29 29 28q10 -8 10 -12q0 -8 -48 -62.5 t-93 -95.5q-145 -137 -279 -137q-78 0 -120 65.5t-42 153.5q0 25 1 36t5 24l-8 -3zM459 227q115 14 225 92q127 90 127 191q0 41 -41 41q-78 0 -183.5 -114.5t-127.5 -209.5zM721 686q0 4 24 25q61 51 89 91t57 144q18 72 65 72q23 0 35.5 -14.5t12.5 -30.5 q0 -70 -117 -182.5t-156 -112.5q-10 4 -10 8z" />
<glyph unicode="&#xea;" horiz-adv-x="569" d="M340 289q0 4 18 26q31 37 58 64q88 90 181 143t173 53q47 0 74.5 -27.5t27.5 -72.5q0 -100 -165 -184q-117 -59 -256 -88q-4 -16 -6.5 -31.5t-2.5 -36.5q0 -61 18.5 -85.5t67.5 -24.5t117 34q84 43 170 129q37 37 80 91q25 29 29 28q10 -8 10 -12q0 -8 -48 -62.5 t-93 -95.5q-145 -137 -279 -137q-78 0 -120 65.5t-42 153.5q0 25 1 36t5 24l-8 -3zM459 227q115 14 225 92q127 90 127 191q0 41 -41 41q-78 0 -183.5 -114.5t-127.5 -209.5zM565 682q70 72 144 158q82 94 129 178h28q16 -84 58 -178q39 -80 80 -158l-5 -4q-25 0 -88 90 t-77 127q-68 -70 -156 -143.5t-105 -73.5z" />
<glyph unicode="&#xeb;" horiz-adv-x="569" d="M340 289q0 4 18 26q31 37 58 64q88 90 181 143t173 53q47 0 74.5 -27.5t27.5 -72.5q0 -100 -165 -184q-117 -59 -256 -88q-4 -16 -6.5 -31.5t-2.5 -36.5q0 -61 18.5 -85.5t67.5 -24.5t117 34q84 43 170 129q37 37 80 91q25 29 29 28q10 -8 10 -12q0 -8 -48 -62.5 t-93 -95.5q-145 -137 -279 -137q-78 0 -120 65.5t-42 153.5q0 25 1 36t5 24l-8 -3zM459 227q115 14 225 92q127 90 127 191q0 41 -41 41q-78 0 -183.5 -114.5t-127.5 -209.5zM606 831q0 35 17.5 58.5t54.5 23.5q59 0 59 -51q0 -43 -18.5 -65.5t-61.5 -22.5q-27 0 -39 12.5 t-12 44.5zM901 831q0 35 17.5 58.5t54.5 23.5q59 0 59 -51q0 -43 -18.5 -65.5t-61.5 -22.5q-27 0 -39 12.5t-12 44.5z" />
<glyph unicode="&#xec;" horiz-adv-x="501" d="M340 291q6 6 10 12q29 35 51 64q63 70 97 106q62 67 80 94l129 8q-98 -164 -197 -327q-88 -147 -88 -180q0 -25 11 -34t28 -9q35 0 82 28q61 37 145 125q33 33 82 88q16 18 43 49q12 -6 12 -12q-16 -20 -28 -37q-37 -45 -97 -106q-152 -160 -241 -160q-47 0 -73 29.5 t-26 79.5q0 100 103 251q45 66 92 132l-4 4q-35 -35 -59 -62q-39 -43 -115 -129q-16 -20 -21.5 -23t-7.5 -3zM524 973q0 14 13.5 29.5t33.5 15.5q47 0 66 -70q29 -109 55.5 -146.5t87.5 -88.5q27 -23 27 -27t-10 -8q-39 0 -152 108q-121 117 -121 187z" />
<glyph unicode="&#xed;" horiz-adv-x="501" d="M340 291q6 6 10 12q29 35 51 64q63 70 97 106q62 67 80 94l129 8q-98 -164 -197 -327q-88 -147 -88 -180q0 -25 11 -34t28 -9q35 0 82 28q61 37 145 125q33 33 82 88q16 18 43 49q12 -6 12 -12q-16 -20 -28 -37q-37 -45 -97 -106q-152 -160 -241 -160q-47 0 -73 29.5 t-26 79.5q0 100 103 251q45 66 92 132l-4 4q-35 -35 -59 -62q-39 -43 -115 -129q-16 -20 -21.5 -23t-7.5 -3zM676 686q0 4 24 25q61 51 89 91t57 144q18 72 65 72q23 0 35 -14.5t12 -30.5q0 -70 -116.5 -182.5t-155.5 -112.5q-10 4 -10 8z" />
<glyph unicode="&#xee;" horiz-adv-x="501" d="M340 291q6 6 10 12q29 35 51 64q63 70 97 106q62 67 80 94l129 8q-98 -164 -197 -327q-88 -147 -88 -180q0 -25 11 -34t28 -9q35 0 82 28q61 37 145 125q33 33 82 88q16 18 43 49q12 -6 12 -12q-16 -20 -28 -37q-37 -45 -97 -106q-152 -160 -241 -160q-47 0 -73 29.5 t-26 79.5q0 100 103 251q45 66 92 132l-4 4q-35 -35 -59 -62q-39 -43 -115 -129q-16 -20 -21.5 -23t-7.5 -3zM520 682q70 72 144 158q82 94 129 178h28q16 -84 58 -178q39 -80 79 -158l-4 -4q-25 0 -88 90t-78 127q-68 -70 -155.5 -143.5t-104.5 -73.5z" />
<glyph unicode="&#xef;" horiz-adv-x="501" d="M340 291q6 6 10 12q29 35 51 64q63 70 97 106q62 67 80 94l129 8q-98 -164 -197 -327q-88 -147 -88 -180q0 -25 11 -34t28 -9q35 0 82 28q61 37 145 125q33 33 82 88q16 18 43 49q12 -6 12 -12q-16 -20 -28 -37q-37 -45 -97 -106q-152 -160 -241 -160q-47 0 -73 29.5 t-26 79.5q0 100 103 251q45 66 92 132l-4 4q-35 -35 -59 -62q-39 -43 -115 -129q-16 -20 -21.5 -23t-7.5 -3zM561 831q0 35 17.5 58.5t54.5 23.5q59 0 59 -51q0 -43 -18.5 -65.5t-61.5 -22.5q-27 0 -39 12.5t-12 44.5zM856 831q0 35 17.5 58.5t54.5 23.5q59 0 59 -51 q0 -43 -18.5 -65.5t-61.5 -22.5q-27 0 -39 12.5t-12 44.5z" />
<glyph unicode="&#xf0;" horiz-adv-x="681" />
<glyph unicode="&#xf1;" horiz-adv-x="909" d="M338 289q18 25 29 37q27 33 49 59q78 90 137 137q68 53 123 53q76 0 76 -102q0 -53 -47 -137q-33 -57 -82 -123l4 -4q119 129 200 211q156 156 220 155q35 0 54 -29.5t19 -68.5q0 -47 -24 -96q-16 -33 -52 -82q-137 -186 -137 -233q0 -41 33 -41q35 0 91 44t126 121 q33 35 76 86q27 31 33 31l8 -10q0 -8 -50 -64.5t-79 -85.5q-70 -72 -122 -109.5t-87 -37.5q-45 0 -67.5 37t-22.5 96q0 78 72.5 182.5t148.5 210.5q0 25 -29 25q-66 0 -278 -232q-186 -203 -252 -307l-137 -12q147 213 233 346q94 143 94 174t-30 31q-41 0 -90.5 -37 t-126.5 -123q-43 -47 -71 -81t-32 -34q-10 8 -10 13zM748 776q0 29 34 82q46 70 107 70q35 0 72 -10q8 -2 75 -27q37 -12 78 -24.5t66 -12.5q47 0 73 29q20 33 43 65q8 -10 9 -14q0 -57 -48.5 -105.5t-111.5 -48.5q-31 0 -64.5 9.5t-74.5 25.5q-18 6 -58.5 20.5t-77.5 14.5 q-49 0 -80.5 -44t-33.5 -44q-8 10 -8 14z" />
<glyph unicode="&#xf2;" horiz-adv-x="681" d="M332 281q0 6 41 51t78 80q84 82 173 122.5t162 40.5q55 0 89 -40t34 -103q0 -61 -35.5 -135t-85.5 -123l23 -4q53 0 100 25.5t90 74.5q16 18 31 31l4 4q4 0 8 -4q0 -4 3 -6q-4 -8 -14.5 -20.5t-37.5 -41.5q-39 -41 -92 -64.5t-110 -23.5l-27 2q-57 -66 -111 -100 q-74 -47 -151 -47q-61 0 -94 49t-33 135q0 49 3 69.5t7 37.5q0 4 -2 7t-4 5q-10 0 -25 -16q-4 -4 -12 -17zM459 100q0 -41 13 -58t40 -17q121 0 236.5 144.5t115.5 287.5q0 41 -17.5 67.5t-53.5 26.5q-104 0 -219 -160t-115 -291zM592 973q0 14 13.5 29.5t33.5 15.5 q47 0 66 -70q29 -109 55 -146.5t88 -88.5q27 -23 26 -27q0 -4 -10 -8q-39 0 -151 108q-121 117 -121 187z" />
<glyph unicode="&#xf3;" horiz-adv-x="681" d="M332 281q0 6 41 51t78 80q84 82 173 122.5t162 40.5q55 0 89 -40t34 -103q0 -61 -35.5 -135t-85.5 -123l23 -4q53 0 100 25.5t90 74.5q16 18 31 31l4 4q4 0 8 -4q0 -4 3 -6q-4 -8 -14.5 -20.5t-37.5 -41.5q-39 -41 -92 -64.5t-110 -23.5l-27 2q-57 -66 -111 -100 q-74 -47 -151 -47q-61 0 -94 49t-33 135q0 49 3 69.5t7 37.5q0 4 -2 7t-4 5q-10 0 -25 -16q-4 -4 -12 -17zM459 100q0 -41 13 -58t40 -17q121 0 236.5 144.5t115.5 287.5q0 41 -17.5 67.5t-53.5 26.5q-104 0 -219 -160t-115 -291zM743 686q0 4 25 25q61 51 89 91t56 144 q19 72 66 72q23 0 35 -14.5t12 -30.5q0 -70 -116.5 -182.5t-155.5 -112.5q-10 4 -11 8z" />
<glyph unicode="&#xf4;" horiz-adv-x="681" d="M332 281q0 6 41 51t78 80q84 82 173 122.5t162 40.5q55 0 89 -40t34 -103q0 -61 -35.5 -135t-85.5 -123l23 -4q53 0 100 25.5t90 74.5q16 18 31 31l4 4q4 0 8 -4q0 -4 3 -6q-4 -8 -14.5 -20.5t-37.5 -41.5q-39 -41 -92 -64.5t-110 -23.5l-27 2q-57 -66 -111 -100 q-74 -47 -151 -47q-61 0 -94 49t-33 135q0 49 3 69.5t7 37.5q0 4 -2 7t-4 5q-10 0 -25 -16q-4 -4 -12 -17zM459 100q0 -41 13 -58t40 -17q121 0 236.5 144.5t115.5 287.5q0 41 -17.5 67.5t-53.5 26.5q-104 0 -219 -160t-115 -291zM588 682q70 72 143 158q82 94 129 178h29 q16 -84 57 -178q39 -80 80 -158l-4 -4q-25 0 -88.5 90t-77.5 127q-68 -70 -156 -143.5t-104 -73.5z" />
<glyph unicode="&#xf5;" horiz-adv-x="681" d="M332 281q0 6 41 51t78 80q84 82 173 122.5t162 40.5q55 0 89 -40t34 -103q0 -61 -35.5 -135t-85.5 -123l23 -4q53 0 100 25.5t90 74.5q16 18 31 31l4 4q4 0 8 -4q0 -4 3 -6q-4 -8 -14.5 -20.5t-37.5 -41.5q-39 -41 -92 -64.5t-110 -23.5l-27 2q-57 -66 -111 -100 q-74 -47 -151 -47q-61 0 -94 49t-33 135q0 49 3 69.5t7 37.5q0 4 -2 7t-4 5q-10 0 -25 -16q-4 -4 -12 -17zM459 100q0 -41 13 -58t40 -17q121 0 236.5 144.5t115.5 287.5q0 41 -17.5 67.5t-53.5 26.5q-104 0 -219 -160t-115 -291zM563 776q0 29 35 82q46 70 107 70 q35 0 71 -10q8 -2 76 -27q37 -12 78 -24.5t65 -12.5q47 0 74 29q20 33 43 65q8 -10 8 -14q0 -57 -48 -105.5t-111 -48.5q-31 0 -65 9.5t-75 25.5q-18 6 -58 20.5t-77 14.5q-49 0 -81 -44t-34 -44q-8 10 -8 14z" />
<glyph unicode="&#xf6;" horiz-adv-x="681" d="M332 281q0 6 41 51t78 80q84 82 173 122.5t162 40.5q55 0 89 -40t34 -103q0 -61 -35.5 -135t-85.5 -123l23 -4q53 0 100 25.5t90 74.5q16 18 31 31l4 4q4 0 8 -4q0 -4 3 -6q-4 -8 -14.5 -20.5t-37.5 -41.5q-39 -41 -92 -64.5t-110 -23.5l-27 2q-57 -66 -111 -100 q-74 -47 -151 -47q-61 0 -94 49t-33 135q0 49 3 69.5t7 37.5q0 4 -2 7t-4 5q-10 0 -25 -16q-4 -4 -12 -17zM459 100q0 -41 13 -58t40 -17q121 0 236.5 144.5t115.5 287.5q0 41 -17.5 67.5t-53.5 26.5q-104 0 -219 -160t-115 -291zM629 831q0 35 17 58.5t54 23.5q59 0 60 -51 q0 -43 -18.5 -65.5t-61.5 -22.5q-27 0 -39 12.5t-12 44.5zM924 831q0 35 17 58.5t54 23.5q59 0 60 -51q0 -43 -18.5 -65.5t-61.5 -22.5q-27 0 -39 12.5t-12 44.5z" />
<glyph unicode="&#xf7;" horiz-adv-x="819" d="M469 256v63h569v-63h-569zM690 47q0 25 18.5 45.5t45.5 20.5t45 -18.5t18 -47.5q0 -27 -18.5 -45t-44.5 -18q-27 0 -45.5 18t-18.5 45zM690 528q0 27 18.5 45.5t45.5 18.5t45 -18.5t18 -45.5q0 -29 -18.5 -47t-44.5 -18q-27 0 -45.5 18t-18.5 47z" />
<glyph unicode="&#xf8;" horiz-adv-x="681" d="M332 281q0 6 41 51t78 80q84 82 173 122.5t162 40.5l15 -2l96 177h29l-101 -185q84 -25 84 -133q0 -61 -35.5 -135t-85.5 -123l23 -4q53 0 100 25.5t90 74.5q16 18 31 31l4 4q4 0 8 -4q0 -4 3 -6q-4 -8 -14.5 -20.5t-37.5 -41.5q-39 -41 -92 -64.5t-110 -23.5l-27 2 q-55 -66 -104 -98q-70 -47 -144 -47l-127 -233h-29l127 233q-53 4 -82.5 52t-29.5 130q0 49 3 69.5t7 37.5q0 4 -2 7t-4 5q-10 0 -25 -16q-4 -4 -12 -17zM459 100q0 -73 45 -73l284 524q-104 0 -216.5 -160t-112.5 -291zM532 29q117 12 224.5 150t107.5 278q0 37 -11 59.5 t-38 30.5z" />
<glyph unicode="&#xf9;" d="M342 293q8 12 16 22q25 31 88 97q53 55 70 71q33 33 94 84l115 8q-201 -311 -242 -378q-55 -88 -55 -138q0 -16 9 -25t26 -9q76 0 246 188q160 178 262 354l131 8q-147 -213 -225 -337q-84 -133 -84 -179q0 -35 34 -34q23 0 70 32q55 39 123 111q51 51 92 98q35 39 39 39 l10 -10q-27 -33 -43 -51q-43 -49 -78 -86q-152 -158 -223 -158q-47 0 -66.5 41t-19.5 92q0 18 4 37.5t10 40.5l-4 4q-100 -106 -127 -131q-94 -84 -153 -84q-47 0 -70.5 30.5t-23.5 82.5q0 98 75 209q68 88 136 178l-5 4q-20 -16 -66 -60.5t-122 -126.5q-31 -37 -35 -36 q-8 8 -8 12zM696 973q0 14 13.5 29.5t33.5 15.5q47 0 66 -70q29 -109 55.5 -146.5t87.5 -88.5q27 -23 27 -27t-10 -8q-39 0 -152 108q-121 117 -121 187z" />
<glyph unicode="&#xfa;" d="M342 293q8 12 16 22q25 31 88 97q53 55 70 71q33 33 94 84l115 8q-201 -311 -242 -378q-55 -88 -55 -138q0 -16 9 -25t26 -9q76 0 246 188q160 178 262 354l131 8q-147 -213 -225 -337q-84 -133 -84 -179q0 -35 34 -34q23 0 70 32q55 39 123 111q51 51 92 98q35 39 39 39 l10 -10q-27 -33 -43 -51q-43 -49 -78 -86q-152 -158 -223 -158q-47 0 -66.5 41t-19.5 92q0 18 4 37.5t10 40.5l-4 4q-100 -106 -127 -131q-94 -84 -153 -84q-47 0 -70.5 30.5t-23.5 82.5q0 98 75 209q68 88 136 178l-5 4q-20 -16 -66 -60.5t-122 -126.5q-31 -37 -35 -36 q-8 8 -8 12zM848 686q0 4 24 25q61 51 89 91t57 144q18 72 65 72q23 0 35 -14.5t12 -30.5q0 -70 -116.5 -182.5t-155.5 -112.5q-10 4 -10 8z" />
<glyph unicode="&#xfb;" d="M342 293q8 12 16 22q25 31 88 97q53 55 70 71q33 33 94 84l115 8q-201 -311 -242 -378q-55 -88 -55 -138q0 -16 9 -25t26 -9q76 0 246 188q160 178 262 354l131 8q-147 -213 -225 -337q-84 -133 -84 -179q0 -35 34 -34q23 0 70 32q55 39 123 111q51 51 92 98q35 39 39 39 l10 -10q-27 -33 -43 -51q-43 -49 -78 -86q-152 -158 -223 -158q-47 0 -66.5 41t-19.5 92q0 18 4 37.5t10 40.5l-4 4q-100 -106 -127 -131q-94 -84 -153 -84q-47 0 -70.5 30.5t-23.5 82.5q0 98 75 209q68 88 136 178l-5 4q-20 -16 -66 -60.5t-122 -126.5q-31 -37 -35 -36 q-8 8 -8 12zM692 682q70 72 144 158q82 94 129 178h28q16 -84 58 -178q39 -80 79 -158l-4 -4q-25 0 -88 90t-77 127q-68 -70 -156 -143.5t-105 -73.5z" />
<glyph unicode="&#xfc;" d="M342 293q8 12 16 22q25 31 88 97q53 55 70 71q33 33 94 84l115 8q-201 -311 -242 -378q-55 -88 -55 -138q0 -16 9 -25t26 -9q76 0 246 188q160 178 262 354l131 8q-147 -213 -225 -337q-84 -133 -84 -179q0 -35 34 -34q23 0 70 32q55 39 123 111q51 51 92 98q35 39 39 39 l10 -10q-27 -33 -43 -51q-43 -49 -78 -86q-152 -158 -223 -158q-47 0 -66.5 41t-19.5 92q0 18 4 37.5t10 40.5l-4 4q-100 -106 -127 -131q-94 -84 -153 -84q-47 0 -70.5 30.5t-23.5 82.5q0 98 75 209q68 88 136 178l-5 4q-20 -16 -66 -60.5t-122 -126.5q-31 -37 -35 -36 q-8 8 -8 12zM733 831q0 35 17.5 58.5t54.5 23.5q59 0 59 -51q0 -43 -18.5 -65.5t-61.5 -22.5q-27 0 -39 12.5t-12 44.5zM1028 831q0 35 17.5 58.5t54.5 23.5q59 0 59 -51q0 -43 -18.5 -65.5t-61.5 -22.5q-27 0 -39 12.5t-12 44.5z" />
<glyph unicode="&#xfd;" horiz-adv-x="909" d="M223 -535q0 74 72 154q61 70 201 166q113 78 295 188l178 344l-4 5q-55 -78 -170 -187q-139 -131 -205 -131q-37 0 -62.5 36t-25.5 83q0 80 98 221t98 180q0 27 -32 27q-37 0 -82 -33t-106.5 -98.5t-104.5 -118.5q-20 -25 -27 -25l-8 11q4 4 6 8q31 43 94 115 q82 94 136.5 129.5t95.5 35.5q43 0 66.5 -33.5t23.5 -80.5q0 -80 -98.5 -225.5t-98.5 -176.5t29 -30q86 0 280 217q181 198 238 317l131 12l-364 -598l4 -4q92 43 192 133q74 66 144 150q16 20 34 41q8 8 15 8l8 -10q-20 -25 -31 -39q-31 -39 -57 -68q-80 -90 -164 -151 q-72 -53 -168 -103q-324 -580 -530 -579q-100 0 -101 110zM268 -543q0 -78 62 -78q80 0 184 125q121 145 260 433l-4 -3q-276 -180 -389 -287.5t-113 -189.5zM856 686q0 4 25 25q61 51 88.5 91t56.5 144q19 72 66 72q23 0 35 -14.5t12 -30.5q0 -70 -117 -182.5t-156 -112.5 q-10 4 -10 8z" />
<glyph unicode="&#xfe;" />
<glyph unicode="&#xff;" horiz-adv-x="909" d="M223 -535q0 74 72 154q61 70 201 166q113 78 295 188l178 344l-4 5q-55 -78 -170 -187q-139 -131 -205 -131q-37 0 -62.5 36t-25.5 83q0 80 98 221t98 180q0 27 -32 27q-37 0 -82 -33t-106.5 -98.5t-104.5 -118.5q-20 -25 -27 -25l-8 11q4 4 6 8q31 43 94 115 q82 94 136.5 129.5t95.5 35.5q43 0 66.5 -33.5t23.5 -80.5q0 -80 -98.5 -225.5t-98.5 -176.5t29 -30q86 0 280 217q181 198 238 317l131 12l-364 -598l4 -4q92 43 192 133q74 66 144 150q16 20 34 41q8 8 15 8l8 -10q-20 -25 -31 -39q-31 -39 -57 -68q-80 -90 -164 -151 q-72 -53 -168 -103q-324 -580 -530 -579q-100 0 -101 110zM268 -543q0 -78 62 -78q80 0 184 125q121 145 260 433l-4 -3q-276 -180 -389 -287.5t-113 -189.5zM741 831q0 35 17.5 58.5t54.5 23.5q59 0 59 -51q0 -43 -18 -65.5t-61 -22.5q-27 0 -39.5 12.5t-12.5 44.5z M1036 831q0 35 17.5 58.5t54.5 23.5q59 0 59 -51q0 -43 -18.5 -65.5t-61.5 -22.5q-27 0 -39 12.5t-12 44.5z" />
<glyph unicode="&#x152;" horiz-adv-x="2048" d="M410 387q0 379 327 729q307 328 586 328q143 0 235.5 -82t92.5 -234q0 -70 -19.5 -156.5t-52.5 -162.5l4 -4q72 66 165 103.5t200 47.5q-4 12 -10.5 38t-6.5 40h-33q-37 0 -91 12.5t-54 22.5q8 12 12 12t47 -11t76 -11h43q0 160 141.5 287t301.5 127q72 0 124 -35 t52 -105q0 -129 -195 -219q-162 -76 -311 -76q0 -41 18 -82q123 0 209 -26q133 -41 133 -137q0 -45 -34.5 -72t-81.5 -27q-98 0 -197.5 71t-132.5 167q-221 -29 -336 -137q-123 -117 -123 -326q68 23 139.5 36t139.5 13q193 0 354 -90q197 -111 197 -295q0 -123 -115 -209 q-104 -78 -232 -78q-264 0 -426 158q-168 164 -167 451q-80 -119 -140 -191q-82 -98 -174 -166q16 -6 39 -8t43 -2q53 0 105 21q23 10 47 22l6 -6q0 -23 -65.5 -42.5t-108.5 -19.5q-29 0 -50.5 3.5t-48.5 7.5q-68 -47 -140.5 -77t-143.5 -30q-162 0 -255 116t-93 304z M549 369q0 -170 47 -263q55 -106 174 -106q63 0 124.5 22.5t115.5 61.5q-123 47 -180.5 148.5t-57.5 244.5q0 233 168 490q182 279 387 278q109 0 171.5 -104.5t62.5 -306.5q25 53 41 121.5t16 111.5q0 156 -79 254t-216 98q-147 0 -329.5 -144.5t-305.5 -373.5 q-139 -260 -139 -532zM866 510q0 -145 41 -243.5t144 -153.5q135 98 239 256q92 139 156 319q-53 -29 -160.5 -50.5t-181.5 -21.5q-16 0 -20.5 4.5t-6.5 8.5q0 12 21 12q100 0 188 21.5t170 66.5q14 72 22.5 121t8.5 100q0 125 -48 198t-132 73q-160 0 -300.5 -239 t-140.5 -472zM1499 440q0 -207 146 -370q158 -178 383 -179q88 0 161 50q86 57 86 153q0 162 -190 275q-172 102 -365 102q-59 0 -111.5 -7t-109.5 -24zM2042 1063q186 16 313 88q142 79 142 190q0 57 -38 82t-100 25q-131 0 -224 -109.5t-93 -275.5zM2066 932 q14 -57 92.5 -130t133.5 -73q33 0 60.5 16.5t27.5 49.5q0 80 -123 114q-80 23 -191 23z" />
<glyph unicode="&#x153;" horiz-adv-x="1024" d="M332 281q0 6 40 49t79 82q84 82 171 122.5t152 40.5q55 0 89 -39.5t34 -103.5q0 -41 -14 -72l4 -4q55 96 151.5 157.5t186.5 61.5q47 0 74.5 -27.5t27.5 -72.5q0 -98 -164 -184q-111 -57 -245 -88q-6 -14 -11.5 -35t-5.5 -35q0 -61 17.5 -84.5t64.5 -23.5q49 0 115 32 q80 41 157 121q53 51 87 90t36 39q10 -8 11 -12q0 -6 -50.5 -62.5t-85.5 -89.5q-147 -143 -284 -143q-76 0 -113 61q-29 47 -29 113q0 49 13 84l-4 4q-53 -106 -142 -180q-96 -82 -190 -82q-61 0 -94 49t-33 135q0 49 3 69.5t7 37.5q0 4 -2 7t-4 5q-8 0 -23 -16 q-4 -4 -14 -17q-6 0 -9 4.5t-3 6.5zM459 100q0 -41 13 -58t40 -17q115 0 231 151q109 141 109 258q0 55 -16.5 86t-55.5 31q-96 0 -208.5 -160t-112.5 -291zM926 227q106 14 215 92q125 91 125 191q0 41 -41 41q-78 0 -174.5 -109.5t-124.5 -214.5z" />
<glyph unicode="&#x178;" horiz-adv-x="1933" d="M408 12q0 90 32 189q45 131 113 131q27 0 45 -20.5t18 -43.5q0 -72 -88 -102.5t-88 -112.5q0 -172 168 -307q160 -127 346 -127q258 0 451 158q150 123 332 418l-4 4q-131 -92 -217 -138q-137 -74 -232 -73q-104 0 -151.5 61.5t-47.5 177.5q0 186 134 389 q125 162 251 326q135 178 136 295q0 66 -37 111q-43 51 -115 51q-90 0 -196.5 -50.5t-198.5 -129.5q-117 -104 -176 -224q-72 -143 -72 -325q0 -127 20 -232q23 -78 48 -155q0 -16 -9 -17q-16 0 -47 119q-37 143 -37 285q0 324 191 553q182 221 420 221q117 0 179 -58.5 t62 -173.5q0 -129 -116 -338q-109 -184 -215 -366q-119 -219 -119 -367q0 -72 25.5 -100.5t78.5 -28.5q94 0 246 84q90 51 219 144q113 246 275 510q180 293 340 473q184 209 294 209q33 0 50.5 -21.5t17.5 -54.5q0 -133 -141 -334q-127 -180 -346 -393q-190 -184 -441 -389 q-162 -299 -381 -476q-258 -207 -559 -206q-195 0 -323 118q-135 125 -135 336zM1802 1675q0 35 17.5 58.5t54.5 23.5q59 0 59 -51q0 -43 -18.5 -65.5t-61.5 -22.5q-27 0 -39 12t-12 45zM1831 293l4 -4q272 236 563 579q311 371 312 490q-1 49 -46 49q-96 0 -260 -201 q-141 -170 -307 -446q-115 -188 -266 -467zM2097 1675q0 35 17.5 58.5t54.5 23.5q59 0 59 -51q0 -43 -18.5 -65.5t-61.5 -22.5q-27 0 -39 12t-12 45z" />
<glyph unicode="&#x2c6;" horiz-adv-x="454" d="M473 682q70 72 143 158q82 94 129 178h29q16 -84 57 -178q39 -80 80 -158l-4 -4q-25 0 -88 90t-78 127q-68 -70 -155.5 -143.5t-104.5 -73.5z" />
<glyph unicode="&#x2dc;" horiz-adv-x="454" d="M449 776q0 29 34 82q46 70 107 70q35 0 72 -10q8 -2 75 -27q37 -12 78 -24.5t66 -12.5q47 0 73 29q20 33 43 65q8 -10 9 -14q0 -57 -48.5 -105.5t-111.5 -48.5q-31 0 -64.5 9.5t-74.5 25.5q-18 6 -58.5 20.5t-77.5 14.5q-49 0 -80.5 -44t-33.5 -44q-8 10 -8 14z" />
<glyph unicode="&#x2000;" horiz-adv-x="937" />
<glyph unicode="&#x2001;" horiz-adv-x="1874" />
<glyph unicode="&#x2002;" horiz-adv-x="937" />
<glyph unicode="&#x2003;" horiz-adv-x="1874" />
<glyph unicode="&#x2004;" horiz-adv-x="624" />
<glyph unicode="&#x2005;" horiz-adv-x="468" />
<glyph unicode="&#x2006;" horiz-adv-x="312" />
<glyph unicode="&#x2007;" horiz-adv-x="312" />
<glyph unicode="&#x2008;" horiz-adv-x="234" />
<glyph unicode="&#x2009;" horiz-adv-x="374" />
<glyph unicode="&#x200a;" horiz-adv-x="104" />
<glyph unicode="&#x2010;" horiz-adv-x="681" d="M457 248l24 80h453l-25 -80h-452z" />
<glyph unicode="&#x2011;" horiz-adv-x="681" d="M457 248l24 80h453l-25 -80h-452z" />
<glyph unicode="&#x2012;" horiz-adv-x="681" d="M457 248l24 80h453l-25 -80h-452z" />
<glyph unicode="&#x2013;" horiz-adv-x="1024" d="M342 248l25 80h1024l-25 -80h-1024z" />
<glyph unicode="&#x2014;" horiz-adv-x="2048" d="M342 248l25 80h2048l-25 -80h-2048z" />
<glyph unicode="&#x2018;" horiz-adv-x="454" d="M588 729q0 72 127 201q119 121 153 121q4 0 9 -4q0 -4 2 -7q0 -8 -35 -32q-66 -47 -99.5 -89t-33.5 -81q0 -100 -17.5 -134t-62.5 -34q-20 0 -31.5 17t-11.5 42z" />
<glyph unicode="&#x2019;" horiz-adv-x="454" d="M670 680q0 8 35 33q63 49 98 91t35 79q0 100 17 134t63 34q23 0 33 -16.5t10 -41.5q0 -74 -127 -202q-119 -121 -154 -121q-4 0 -6 3t-4 7z" />
<glyph unicode="&#x201a;" horiz-adv-x="454" />
<glyph unicode="&#x201c;" d="M651 729q0 72 127 201q119 121 154 121q4 0 8 -4q0 -4 2 -7q0 -8 -35 -32q-66 -47 -99.5 -89t-33.5 -81q0 -100 -17.5 -134t-62.5 -34q-20 0 -31.5 17t-11.5 42zM954 729q0 72 127 201q119 121 154 121q4 0 8 -4q0 -4 2 -7q0 -8 -35 -32q-66 -47 -99.5 -89t-33.5 -81 q0 -100 -17.5 -134t-62.5 -34q-20 0 -31.5 17t-11.5 42z" />
<glyph unicode="&#x201d;" d="M645 680q0 8 35 33q63 49 98 91t35 79q0 100 17.5 134t62.5 34q23 0 33 -16.5t10 -41.5q0 -74 -127 -202q-119 -121 -154 -121q-4 0 -6 3t-4 7zM948 680q0 8 35 33q63 49 98 91t35 79q0 100 17.5 134t62.5 34q23 0 33 -16.5t10 -41.5q0 -74 -127 -202 q-119 -121 -154 -121q-4 0 -6 3t-4 7z" />
<glyph unicode="&#x201e;" />
<glyph unicode="&#x2022;" horiz-adv-x="1024" d="M686 715q0 150 102.5 254t251.5 104q147 0 251 -105.5t104 -252.5t-102.5 -252t-252.5 -105q-145 0 -249.5 105t-104.5 252z" />
<glyph unicode="&#x2026;" horiz-adv-x="2048" />
<glyph unicode="&#x202f;" horiz-adv-x="374" />
<glyph unicode="&#x2039;" horiz-adv-x="569" />
<glyph unicode="&#x203a;" horiz-adv-x="569" />
<glyph unicode="&#x205f;" horiz-adv-x="468" />
<glyph unicode="&#x2122;" horiz-adv-x="2027" d="M756 1253v179h667v-179h-24q-18 70 -43 101q-35 45 -94 45h-127v-627q0 -80 12 -94t88 -25v-32h-291v32q78 10 89 23.5t11 95.5v627h-126q-57 0 -93 -43q-27 -33 -45 -103h-24zM1522 1399v33h192l336 -678l334 678h170v-33q-61 0 -89 -30t-28 -89v-508q0 -80 12.5 -94 t87.5 -25v-32h-288v32q72 10 85 24.5t13 94.5v479l-319 -639h-19l-307 633l-4 -463q0 -68 20.5 -94t83.5 -35v-32h-250v32q61 8 81 36t20 93v518q-12 45 -49 72t-82 27z" />
<glyph unicode="&#x25fc;" horiz-adv-x="573" d="M0 0v573h573v-573h-573z" />
</font>
</defs>
</svg>
