<?xml version="1.0" encoding="UTF-8" standalone="no"?>
<!-- Created with Inkscape (http://www.inkscape.org/) -->

<svg
   xmlns:dc="http://purl.org/dc/elements/1.1/"
   xmlns:cc="http://creativecommons.org/ns#"
   xmlns:rdf="http://www.w3.org/1999/02/22-rdf-syntax-ns#"
   xmlns:svg="http://www.w3.org/2000/svg"
   xmlns="http://www.w3.org/2000/svg"
   xmlns:sodipodi="http://sodipodi.sourceforge.net/DTD/sodipodi-0.dtd"
   xmlns:inkscape="http://www.inkscape.org/namespaces/inkscape"
   width="222.23546"
   height="70.202728"
   id="svg2"
   version="1.1"
   inkscape:version="0.48.4 r9939"
   sodipodi:docname="fleur.svg"
   inkscape:export-filename="/home/caroline/Documents/projects/lydie/site/static/images/flowers_top.png"
   inkscape:export-xdpi="90"
   inkscape:export-ydpi="90">
  <defs
     id="defs4" />
  <sodipodi:namedview
     id="base"
     pagecolor="#ffffff"
     bordercolor="#666666"
     borderopacity="1.0"
     inkscape:pageopacity="0.0"
     inkscape:pageshadow="2"
     inkscape:zoom="1"
     inkscape:cx="-309.7575"
     inkscape:cy="103.34056"
     inkscape:document-units="px"
     inkscape:current-layer="layer1"
     showgrid="false"
     inkscape:window-width="1867"
     inkscape:window-height="1056"
     inkscape:window-x="53"
     inkscape:window-y="24"
     inkscape:window-maximized="1"
     fit-margin-top="0"
     fit-margin-left="0"
     fit-margin-right="0"
     fit-margin-bottom="0"
     showguides="true"
     inkscape:guide-bbox="true">
    <inkscape:grid
       type="xygrid"
       id="grid3337"
       empspacing="5"
       visible="true"
       enabled="true"
       snapvisiblegridlinesonly="true"
       originx="-747.26907px"
       originy="-245.66082px" />
  </sodipodi:namedview>
  <metadata
     id="metadata7">
    <rdf:RDF>
      <cc:Work
         rdf:about="">
        <dc:format>image/svg+xml</dc:format>
        <dc:type
           rdf:resource="http://purl.org/dc/dcmitype/StillImage" />
        <dc:title />
      </cc:Work>
    </rdf:RDF>
  </metadata>
  <g
     inkscape:label="Tiges et fleurs"
     inkscape:groupmode="layer"
     id="layer1"
     transform="translate(-731.02468,-752.65933)"
     style="display:inline">
    <g
       id="g4139"
       transform="matrix(3.5980965,0,0,3.5980965,-95.948871,-759.51476)" />
    <g
       id="g4141"
       transform="matrix(3.5980965,0,0,3.5980965,-95.948871,-759.51476)" />
    <g
       id="g4143"
       transform="matrix(3.5980965,0,0,3.5980965,-95.948871,-759.51476)" />
    <g
       id="g4145"
       transform="matrix(3.5980965,0,0,3.5980965,-95.948871,-759.51476)" />
    <g
       id="g4147"
       transform="matrix(3.5980965,0,0,3.5980965,-95.948871,-759.51476)" />
    <g
       id="g4149"
       transform="matrix(3.5980965,0,0,3.5980965,-95.948871,-759.51476)" />
    <g
       id="g3841">
      <path
         sodipodi:nodetypes="cscscscscscsc"
         inkscape:connector-curvature="0"
         id="path3026"
         d="m 844.20953,771.99276 c 0,0 -8.76377,-13.64019 -15.78363,-6.9448 -6.67711,6.36848 4.67195,14.39468 4.67195,14.39468 0,0 -14.90722,6.34524 -7.3236,16.41498 6.35244,8.43495 17.04632,-3.283 17.04632,-3.283 0,0 -0.18031,14.22062 11.23795,9.72272 7.41856,-2.92233 1.89403,-14.89975 1.89403,-14.89975 0,0 9.17135,15.50025 15.65737,6.9448 5.66891,-7.47763 -6.43972,-13.76333 -6.43972,-13.76333 0,0 15.32454,-9.05709 9.09137,-17.1726 -6.21111,-8.08679 -17.93021,5.55584 -17.93021,5.55584 0,0 3.14901,-17.84231 -8.71256,-15.65736 -12.90172,2.37654 -3.40927,18.68782 -3.40927,18.68782 z"
         style="fill:#236d7b;fill-opacity:1;stroke:none" />
      <path
         sodipodi:nodetypes="scscscscscscs"
         inkscape:connector-curvature="0"
         id="path4337"
         d="m 942.08004,756.50106 c 4.1589,-0.60803 3.40927,6.31345 3.40927,6.31345 0,0 5.68436,-2.25113 7.07106,-1e-5 2.84728,4.62214 -3.91433,6.566 -3.91433,6.566 0,0 5.34329,1.5326 3.40927,6.18719 -0.90512,2.17833 -5.93465,-1.13643 -5.93465,-1.13643 0,0 -0.42244,5.51815 -2.39912,5.42957 -4.82588,-0.21625 -5.05076,-5.6821 -5.05076,-5.6821 0,0 -4.13761,4.43926 -7.57614,1.26268 -2.10048,-1.94046 2.65164,-6.69225 2.65164,-6.69225 0,0 -5.96378,-3.1518 -3.28299,-6.69227 2.68173,-3.54172 7.32361,0.50508 7.32361,0.50508 0,0 0.0423,-5.43943 4.29314,-6.06091 z"
         style="fill:#236d7b;fill-opacity:1;stroke:none" />
      <g
         transform="translate(483,-11)"
         id="g5383">
        <path
           style="fill:#5cadbd;fill-opacity:1;stroke:#5cadbd;stroke-width:0.1;stroke-linecap:butt;stroke-linejoin:miter;stroke-miterlimit:4;stroke-opacity:1;stroke-dasharray:none"
           d="m 324.68209,817.49998 c 0,0 -20.55034,6.79193 -25.2538,-6.06091 -4.61098,-12.60007 19.44542,-19.57171 19.44542,-19.57171 0,0 -9.49644,-13.97782 -3.53553,-18.43528 8.02099,-5.99796 21.08693,5.05076 21.08693,5.05076 0,0 5.87117,-16.33446 15.90992,-14.64721 13.24153,2.22556 6.94479,17.67767 6.94479,17.67767 0,0 16.20683,-7.67931 22.98097,4.16688 6.29735,11.01241 -13.63706,15.02602 -13.63706,15.02602 0,0 18.71562,8.35114 6.56599,20.96066 -7.58488,7.87199 -22.85469,-4.16688 -22.85469,-4.16688 0,0 -7.07928,16.93486 -14.26841,16.28871 -11.06721,-0.99471 -13.38453,-16.28871 -13.38453,-16.28871 z"
           id="path4205"
           inkscape:connector-curvature="0"
           sodipodi:nodetypes="cscscscscscsc" />
        <path
           style="fill:#3197ab;fill-opacity:1;stroke:none"
           d="m 323.79821,793.50886 c 0,0 -5.1692,-10.30866 -0.75762,-13.00571 5.25672,-3.21374 13.51079,3.91434 13.51079,3.91434 0,0 8.64818,-13.57407 14.89975,-12.87944 3.51715,0.3908 2.77792,15.40482 2.77792,15.40482 0,0 16.70331,-2.9637 16.54125,3.15672 -0.10856,4.10014 -11.23795,6.18719 -11.23795,6.18719 0,0 14.89289,10.79742 9.97526,17.42513 -5.99078,8.07404 -20.20305,-7.57614 -20.20305,-7.57614 0,0 -2.51116,19.99742 -11.74303,19.06663 -8.38032,-0.84493 -9.84898,-15.15229 -9.84898,-15.15229 0,0 -16.79299,7.7321 -20.58186,0.12626 -5.41156,-10.86324 16.66752,-16.66751 16.66752,-16.66751 z"
           id="path4207"
           inkscape:connector-curvature="0"
           sodipodi:nodetypes="cscscscscscsc" />
        <g
           id="g4241">
          <path
             transform="translate(-16.244385,297.66571)"
             d="m 360.30877,490.50827 c 0,0.88914 -0.77732,1.60993 -1.7362,1.60993 -0.95888,0 -1.7362,-0.72079 -1.7362,-1.60993 0,-0.88914 0.77732,-1.60993 1.7362,-1.60993 0.95888,0 1.7362,0.72079 1.7362,1.60993 z"
             sodipodi:ry="1.6099306"
             sodipodi:rx="1.7361996"
             sodipodi:cy="490.50827"
             sodipodi:cx="358.57257"
             id="path4211"
             style="fill:#136d80;fill-opacity:1;stroke:none"
             sodipodi:type="arc" />
          <path
             transform="translate(-16.244385,297.66571)"
             d="m 367.94805,493.8544 c 0,0.88914 -0.73493,1.60993 -1.6415,1.60993 -0.90658,0 -1.6415,-0.72079 -1.6415,-1.60993 0,-0.88914 0.73492,-1.60993 1.6415,-1.60993 0.90657,0 1.6415,0.72079 1.6415,1.60993 z"
             sodipodi:ry="1.6099306"
             sodipodi:rx="1.6414979"
             sodipodi:cy="493.8544"
             sodipodi:cx="366.30655"
             id="path4213"
             style="fill:#136d80;fill-opacity:1;stroke:none"
             sodipodi:type="arc" />
          <path
             transform="translate(-16.244385,297.66571)"
             d="m 369.58957,500.45197 c 0,0.80196 -0.81972,1.45209 -1.8309,1.45209 -1.01118,0 -1.8309,-0.65013 -1.8309,-1.45209 0,-0.80197 0.81972,-1.4521 1.8309,-1.4521 1.01118,0 1.8309,0.65013 1.8309,1.4521 z"
             sodipodi:ry="1.4520943"
             sodipodi:rx="1.8309015"
             sodipodi:cy="500.45197"
             sodipodi:cx="367.75867"
             id="path4215"
             style="fill:#136d80;fill-opacity:1;stroke:none"
             sodipodi:type="arc" />
          <path
             transform="translate(-16.244385,297.66571)"
             d="m 364.91761,502.9458 c 0,0.8194 -0.65013,1.48366 -1.45209,1.48366 -0.80197,0 -1.4521,-0.66426 -1.4521,-1.48366 0,-0.8194 0.65013,-1.48366 1.4521,-1.48366 0.80196,0 1.45209,0.66426 1.45209,1.48366 z"
             sodipodi:ry="1.4836615"
             sodipodi:rx="1.4520943"
             sodipodi:cy="502.9458"
             sodipodi:cx="363.46552"
             id="path4218"
             style="fill:#136d80;fill-opacity:1;stroke:none"
             sodipodi:type="arc" />
          <path
             transform="translate(-16.244385,297.66571)"
             d="m 359.55118,506.1972 c 0,1.01118 -0.74906,1.83091 -1.67307,1.83091 -0.92401,0 -1.67306,-0.81973 -1.67306,-1.83091 0,-1.01117 0.74905,-1.8309 1.67306,-1.8309 0.92401,0 1.67307,0.81973 1.67307,1.8309 z"
             sodipodi:ry="1.8309015"
             sodipodi:rx="1.6730652"
             sodipodi:cy="506.1972"
             sodipodi:cx="357.87811"
             id="path4220"
             style="fill:#136d80;fill-opacity:1;stroke:none"
             sodipodi:type="arc" />
          <path
             transform="translate(-16.244385,297.66571)"
             d="m 351.09115,505.31332 c 0,0.83684 -0.77732,1.51523 -1.7362,1.51523 -0.95888,0 -1.7362,-0.67839 -1.7362,-1.51523 0,-0.83683 0.77732,-1.51522 1.7362,-1.51522 0.95888,0 1.7362,0.67839 1.7362,1.51522 z"
             sodipodi:ry="1.5152287"
             sodipodi:rx="1.7361996"
             sodipodi:cy="505.31332"
             sodipodi:cx="349.35495"
             id="path4222"
             style="fill:#136d80;fill-opacity:1;stroke:none"
             sodipodi:type="arc" />
          <path
             transform="translate(-16.244385,297.66571)"
             d="m 350.90174,496.2851 c 0,0.7671 -0.72079,1.38895 -1.60993,1.38895 -0.88914,0 -1.60993,-0.62185 -1.60993,-1.38895 0,-0.76711 0.72079,-1.38896 1.60993,-1.38896 0.88914,0 1.60993,0.62185 1.60993,1.38896 z"
             sodipodi:ry="1.3889598"
             sodipodi:rx="1.6099306"
             sodipodi:cy="496.2851"
             sodipodi:cx="349.29181"
             id="path4224"
             style="fill:#136d80;fill-opacity:1;stroke:none"
             sodipodi:type="arc" />
          <path
             transform="translate(-16.244385,297.66571)"
             inkscape:connector-curvature="0"
             id="path4226"
             d="m 350.08099,496.41136 c 0.14731,0 0.29462,0 0.44194,0 0.1894,0 0.37881,0 0.56821,0 0.025,0 0.28871,-0.0135 0.31567,0 0.0266,0.0133 0.0349,0.0537 0.0631,0.0631 0.0399,0.0133 0.0854,-0.0102 0.12627,0 0.0913,0.0228 0.16123,0.10344 0.25253,0.12627 0.0408,0.0102 0.0854,-0.0102 0.12627,0 0.0457,0.0114 0.0801,0.0539 0.12627,0.0631 0.0619,0.0124 0.12816,-0.0153 0.18941,0 0.0289,0.007 0.0421,0.0421 0.0631,0.0631 0.0421,0 0.0842,0 0.12627,0"
             style="fill:none;stroke:#136d80;stroke-width:0.40000001;stroke-linecap:butt;stroke-linejoin:miter;stroke-miterlimit:4;stroke-opacity:1;stroke-dasharray:none" />
          <path
             transform="translate(-16.244385,297.66571)"
             inkscape:connector-curvature="0"
             id="path4228"
             d="m 357.9728,490.85552 c -0.18382,0.0919 -0.26311,0.0983 -0.3788,0.25254 -0.0282,0.0376 -0.037,0.0871 -0.0631,0.12627 -0.0165,0.0248 -0.0466,0.0384 -0.0631,0.0631 -0.0522,0.0783 -0.0698,0.17725 -0.12627,0.25254 -0.0357,0.0476 -0.0996,0.073 -0.12627,0.12627 -0.0188,0.0376 0.0133,0.0863 0,0.12627 -0.009,0.0282 -0.0466,0.0384 -0.0631,0.0631 -0.13504,0.0237 -0.0352,0.1335 -0.0631,0.1894 -0.0133,0.0266 -0.0537,0.0349 -0.0631,0.0631 -0.02,0.0599 0,0.12627 0,0.18941 0,0.10522 0,0.21045 0,0.31567 0,0.33672 0,0.67343 0,1.01015"
             style="fill:none;stroke:#136d80;stroke-width:0.40000001;stroke-linecap:butt;stroke-linejoin:miter;stroke-miterlimit:4;stroke-opacity:1;stroke-dasharray:none" />
          <path
             transform="translate(-16.244385,297.66571)"
             inkscape:connector-curvature="0"
             id="path4231"
             d="m 365.99089,494.70673 c -0.4209,0 -0.84179,0 -1.26269,0 -0.0842,0 -0.16836,0 -0.25254,0 -0.0421,0 -0.0847,-0.007 -0.12627,0 -0.16291,-0.0653 -0.24829,0.10017 -0.37881,0.12627 -0.0619,0.0124 -0.12749,-0.0124 -0.1894,0 -0.0923,0.0185 -0.16325,0.0965 -0.25254,0.12627 -0.02,0.007 -0.0432,-0.007 -0.0631,0 -0.39188,0.13062 0.20983,-0.005 -0.31567,0.12627 -0.0204,0.005 -0.0432,-0.007 -0.0631,0 -0.0893,0.0298 -0.16325,0.0965 -0.25254,0.12627 -0.02,0.007 -0.0443,-0.009 -0.0631,0 -0.0266,0.0133 -0.0349,0.0537 -0.0631,0.0631 -0.0399,0.0133 -0.0863,-0.0133 -0.12627,0 -0.0282,0.009 -0.0421,0.0421 -0.0631,0.0631 -0.0421,0.0421 -0.0767,0.0933 -0.12627,0.12627 -0.0175,0.0117 -0.0443,-0.009 -0.0631,0 -0.0532,0.0266 -0.073,0.0996 -0.12627,0.12627 -0.0188,0.009 -0.0483,-0.0149 -0.0631,0 -0.0149,0.0149 0.0149,0.0483 0,0.0631 -0.0149,0.0149 -0.0443,-0.009 -0.0631,0 -0.0266,0.0133 -0.0365,0.0498 -0.0631,0.0631 -0.0188,0.009 -0.0443,-0.009 -0.0631,0 -0.15603,0.078 0.0218,0.0631 -0.12627,0.0631"
             style="fill:none;stroke:#136d80;stroke-width:0.40000001;stroke-linecap:butt;stroke-linejoin:miter;stroke-miterlimit:4;stroke-opacity:1;stroke-dasharray:none" />
          <path
             transform="translate(-16.244385,297.66571)"
             inkscape:connector-curvature="0"
             id="path4233"
             d="m 367.88493,500.26257 c -0.46299,0 -0.92598,0 -1.38896,0 -0.0353,0 -0.55753,0.0123 -0.63135,0 -0.0656,-0.0109 -0.12376,-0.0522 -0.1894,-0.0631 -0.0623,-0.0104 -0.12713,0.0104 -0.18941,0 -0.0656,-0.0109 -0.12541,-0.0448 -0.1894,-0.0631 -0.0834,-0.0238 -0.16961,-0.0376 -0.25254,-0.0631 -0.19082,-0.0587 -0.37244,-0.15024 -0.56821,-0.1894 -0.12382,-0.0248 -0.25306,0.0114 -0.37881,0 -0.18949,0.0494 -0.33259,-0.1071 -0.50507,-0.12627 -0.1255,-0.0139 -0.25331,0.0139 -0.37881,0 -0.13229,-0.0147 -0.24829,-0.10016 -0.37881,-0.12627 -0.0413,-0.008 -0.0847,0.007 -0.12627,0 -0.21169,-0.0353 -0.42089,-0.0842 -0.63134,-0.12627 -0.10523,-0.021 -0.20881,-0.0534 -0.31567,-0.0631 -0.12575,-0.0114 -0.25458,0.0226 -0.37881,0 -0.1115,-0.0203 -0.20504,-0.10169 -0.31567,-0.12627 -0.0822,-0.0183 -0.16836,0 -0.25254,0 -0.14732,0 -0.29463,0 -0.44194,0"
             style="fill:none;stroke:#136d80;stroke-width:0.40000001;stroke-linecap:butt;stroke-linejoin:miter;stroke-miterlimit:4;stroke-opacity:1;stroke-dasharray:none" />
          <path
             transform="translate(-16.244385,297.66571)"
             inkscape:connector-curvature="0"
             id="path4235"
             d="m 362.64476,502.28287 c -0.0842,-0.0631 -0.16499,-0.13103 -0.25254,-0.1894 -0.0392,-0.0261 -0.0871,-0.037 -0.12627,-0.0631 -0.0248,-0.0165 -0.0421,-0.0421 -0.0631,-0.0631 -0.0421,-0.0421 -0.0842,-0.0842 -0.12627,-0.12627 -0.0421,-0.0421 -0.0786,-0.0906 -0.12627,-0.12627 -0.0377,-0.0282 -0.0886,-0.0349 -0.12627,-0.0631 -0.0476,-0.0357 -0.0798,-0.0891 -0.12627,-0.12627 -0.0593,-0.0474 -0.1287,-0.0807 -0.1894,-0.12627 -0.0192,-0.0144 -0.18139,-0.17337 -0.18941,-0.1894 -0.009,-0.0188 0.0149,-0.0483 0,-0.0631 -0.0149,-0.0149 -0.0443,0.009 -0.0631,0 -0.0532,-0.0266 -0.073,-0.0996 -0.12627,-0.12627 -0.0188,-0.009 -0.0482,0.0149 -0.0631,0 -0.0149,-0.0149 0.009,-0.0443 0,-0.0631 -0.0756,-0.15118 -0.12627,0.0398 -0.12627,-0.12627"
             style="fill:none;stroke:#136d80;stroke-width:0.40000001;stroke-linecap:butt;stroke-linejoin:miter;stroke-miterlimit:4;stroke-opacity:1;stroke-dasharray:none" />
          <path
             transform="translate(-16.244385,297.66571)"
             inkscape:connector-curvature="0"
             id="path4237"
             d="m 358.03594,505.2502 c 0.0539,-0.16036 -0.094,-0.24969 -0.12627,-0.37881 -0.0102,-0.0408 0.0102,-0.0854 0,-0.12627 -0.10305,-0.41218 -0.0339,0.23853 -0.12627,-0.31567 -0.0104,-0.0623 0.0124,-0.1275 0,-0.18941 -0.009,-0.0461 -0.0421,-0.0842 -0.0631,-0.12627 -0.0211,-0.10522 -0.048,-0.20944 -0.0631,-0.31567 -0.0135,-0.0947 0,-0.27699 0,-0.37881 0,-0.27358 0,-0.54716 0,-0.82074"
             style="fill:none;stroke:#136d80;stroke-width:0.40000001;stroke-linecap:butt;stroke-linejoin:miter;stroke-miterlimit:4;stroke-opacity:1;stroke-dasharray:none" />
          <path
             transform="translate(-16.244385,297.66571)"
             inkscape:connector-curvature="0"
             id="path4239"
             d="m 349.51278,504.42945 c 0.2661,-0.0506 0.0151,-0.2197 0.0631,-0.31568 0.0133,-0.0266 0.0498,-0.0365 0.0631,-0.0631 0.0777,-0.1555 -0.18327,0.057 0.0631,-0.1894 0.30623,-0.30623 -0.004,0.11547 0.1894,-0.12627 0.0657,-0.0822 0.10857,-0.18518 0.18941,-0.25254 0.0139,-0.0116 0.35351,-0.11109 0.3788,-0.12627 0.051,-0.0306 0.0786,-0.0906 0.12627,-0.12627 0.0975,-0.0731 0.27368,-0.11931 0.37881,-0.1894 0.0248,-0.0165 0.0384,-0.0466 0.0631,-0.0631 0.0862,-0.0575 0.4232,-0.18137 0.44194,-0.1894 0.0433,-0.0185 0.0806,-0.0517 0.12627,-0.0631 0.0408,-0.0102 0.0854,0.0102 0.12626,0 0.0457,-0.0114 0.0806,-0.0517 0.12627,-0.0631 0.0408,-0.0102 0.0854,0.0102 0.12627,0 0.0457,-0.0114 0.0806,-0.0517 0.12627,-0.0631 0.0408,-0.0102 0.0854,0.0102 0.12627,0 0.0457,-0.0114 0.0842,-0.0421 0.12627,-0.0631 0.0631,-0.021 0.12415,-0.0501 0.1894,-0.0631 0.0619,-0.0124 0.12951,0.02 0.18941,0 0.45731,-0.15244 -0.0995,0.0182 0.1894,-0.12627 0.0188,-0.009 0.0421,0 0.0631,0 0.0421,0 0.0854,0.0102 0.12626,0 0.0457,-0.0114 0.0842,-0.0421 0.12627,-0.0631 0.0631,-0.021 0.12415,-0.0501 0.18941,-0.0631 0.0413,-0.008 0.0863,0.0133 0.12627,0 0.23404,-0.078 -0.077,-0.0631 0.12627,-0.0631"
             style="fill:none;stroke:#136d80;stroke-width:0.40000001;stroke-linecap:butt;stroke-linejoin:miter;stroke-miterlimit:4;stroke-opacity:1;stroke-dasharray:none" />
          <path
             transform="translate(-17.380807,295.456)"
             d="m 363.65492,500.57825 c 0,3.0684 -2.5157,5.55584 -5.61897,5.55584 -3.10327,0 -5.61897,-2.48744 -5.61897,-5.55584 0,-3.06841 2.5157,-5.55584 5.61897,-5.55584 3.10327,0 5.61897,2.48743 5.61897,5.55584 z"
             sodipodi:ry="5.5558391"
             sodipodi:rx="5.6189733"
             sodipodi:cy="500.57825"
             sodipodi:cx="358.03595"
             id="path4209"
             style="fill:#5cadbd;fill-opacity:1;stroke:none"
             sodipodi:type="arc" />
        </g>
      </g>
      <g
         transform="translate(322,97)"
         id="g4212">
        <path
           style="fill:#5cadbd;fill-opacity:1;stroke:none"
           d="m 431.33514,402.71971 c 0,0 0.49539,-4.25583 2.2097,-4.79822 1.99236,-0.63036 4.04061,2.65165 4.04061,2.65165 0,0 4.25128,-2.21196 5.36644,-0.82076 0.83661,1.04372 -0.44195,4.41943 -0.44195,4.41943 0,0 4.96858,1.57691 5.17703,3.85121 0.19416,2.11821 -4.23,2.77792 -4.23,2.77792 0,0 0.10084,4.22905 -2.14658,4.79822 -2.13517,0.54074 -3.78807,-2.02031 -3.78807,-2.02031 0,0 -3.3792,3.22636 -5.49271,2.33598 -1.90309,-0.80174 -0.3788,-6.06091 -0.3788,-6.06091 0,0 -6.16283,-0.43618 -6.37659,-2.96733 -0.20988,-2.48521 6.06092,-4.16688 6.06092,-4.16688 z"
           id="path4179"
           inkscape:connector-curvature="0"
           transform="translate(-16.244385,297.66571)"
           sodipodi:nodetypes="cscscscscscsc" />
        <g
           id="g4201">
          <path
             transform="translate(-16.244385,297.66571)"
             d="m 435.90923,404.7637 c 0,0.38442 -0.32648,0.69606 -0.72921,0.69606 -0.40272,0 -0.7292,-0.31164 -0.7292,-0.69606 0,-0.38442 0.32648,-0.69606 0.7292,-0.69606 0.40273,0 0.72921,0.31164 0.72921,0.69606 z"
             sodipodi:ry="0.69605821"
             sodipodi:rx="0.72920388"
             sodipodi:cy="404.7637"
             sodipodi:cx="435.18002"
             id="path4181"
             style="fill:#0f6a7b;fill-opacity:1;stroke:#5cadbd;stroke-width:0.1;stroke-miterlimit:4;stroke-opacity:1;stroke-dasharray:none"
             sodipodi:type="arc" />
          <path
             transform="translate(-16.244385,297.66571)"
             d="m 440.06348,406.01218 c 0,0.48815 -0.40562,0.88388 -0.90598,0.88388 -0.50036,0 -0.90598,-0.39573 -0.90598,-0.88388 0,-0.48816 0.40562,-0.88389 0.90598,-0.88389 0.50036,0 0.90598,0.39573 0.90598,0.88389 z"
             sodipodi:ry="0.88388348"
             sodipodi:rx="0.90598059"
             sodipodi:cy="406.01218"
             sodipodi:cx="439.1575"
             id="path4183"
             style="fill:#0f6a7b;fill-opacity:1;stroke:#5cadbd;stroke-width:0.1;stroke-miterlimit:4;stroke-opacity:1;stroke-dasharray:none"
             sodipodi:type="arc" />
          <path
             transform="translate(-16.244385,297.66571)"
             d="m 436.85941,408.64172 c 0,0.45155 -0.39573,0.8176 -0.88389,0.8176 -0.48815,0 -0.88388,-0.36605 -0.88388,-0.8176 0,-0.45154 0.39573,-0.81759 0.88388,-0.81759 0.48816,0 0.88389,0.36605 0.88389,0.81759 z"
             sodipodi:ry="0.8175922"
             sodipodi:rx="0.88388348"
             sodipodi:cy="408.64172"
             sodipodi:cx="435.97552"
             id="path4185"
             style="fill:#0f6a7b;fill-opacity:1;stroke:#5cadbd;stroke-width:0.1;stroke-miterlimit:4;stroke-opacity:1;stroke-dasharray:none"
             sodipodi:type="arc" />
          <path
             transform="matrix(1.0046551,0,0,0.83241411,-18.601442,364.45648)"
             d="m 440.7927,411.1387 c 0,0.59799 -0.40562,1.08276 -0.90598,1.08276 -0.50036,0 -0.90598,-0.48477 -0.90598,-1.08276 0,-0.59799 0.40562,-1.08275 0.90598,-1.08275 0.50036,0 0.90598,0.48476 0.90598,1.08275 z"
             sodipodi:ry="1.0827572"
             sodipodi:rx="0.90598059"
             sodipodi:cy="411.1387"
             sodipodi:cx="439.88672"
             id="path4187"
             style="fill:#0f6a7b;fill-opacity:1;stroke:#5cadbd;stroke-width:0.1;stroke-miterlimit:4;stroke-opacity:1;stroke-dasharray:none"
             sodipodi:type="arc" />
          <path
             transform="translate(-16.244385,297.66571)"
             inkscape:connector-curvature="0"
             id="path4189"
             d="m 435.57778,405.1062 c 0.0445,0.0623 0.0765,0.13088 0.11048,0.19887 0.007,0.0147 0.0122,0.031 0.0221,0.0442 0.0125,0.0167 0.0295,0.0295 0.0442,0.0442 0.0147,0.0295 0.0259,0.061 0.0442,0.0884 0.0126,0.0299 0.0489,0.0403 0.0663,0.0663 0.0339,0.0508 0.0103,0.0597 0.0442,0.11048 0.006,0.009 0.0159,0.0138 0.0221,0.0221 0.0159,0.0213 0.0283,0.0451 0.0442,0.0663 0.006,0.008 0.0163,0.0134 0.0221,0.0221 0.0419,-0.003 0.0147,0.0516 0.0221,0.0663 0.009,0.0186 0.0349,0.0256 0.0442,0.0442 0.003,0.007 -0.003,0.0155 0,0.0221 0.005,0.009 0.0159,0.0138 0.0221,0.0221 0.0159,0.0212 0.0283,0.045 0.0442,0.0663 0.0209,0.0279 0.0626,0.0626 0.0884,0.0884 0.0221,0.0221 0.0442,0.0442 0.0663,0.0663 0.007,0.007 0.0134,0.0163 0.0221,0.0221 0.0137,0.009 0.0305,0.013 0.0442,0.0221 0.0173,0.0116 0.0256,0.0349 0.0442,0.0442 0.007,0.003 0.0169,-0.005 0.0221,0 0.005,0.005 -0.005,0.0169 0,0.0221 0.005,0.005 0.0169,-0.005 0.0221,0 0.005,0.005 -0.005,0.0169 0,0.0221 0.0104,0.0104 0.0338,-0.0104 0.0442,0 0.005,0.005 -0.005,0.0169 0,0.0221 0.005,0.005 0.0169,-0.005 0.0221,0 0.0295,0.0295 -0.0368,0.0221 0.0221,0.0221"
             style="fill:none;stroke:#0f6a7b;stroke-width:0.40000001;stroke-linecap:butt;stroke-linejoin:miter;stroke-miterlimit:4;stroke-opacity:1;stroke-dasharray:none" />
          <path
             transform="translate(-16.244385,297.66571)"
             inkscape:connector-curvature="0"
             id="path4191"
             d="m 438.71556,406.52041 c -0.10486,0 -0.062,-0.0132 -0.13258,0.0221 -0.0147,0.007 -0.0286,0.0169 -0.0442,0.0221 -0.0288,0.01 -0.0612,0.009 -0.0884,0.0221 -0.0186,0.009 -0.0279,0.0312 -0.0442,0.0442 -0.0207,0.0166 -0.0425,0.0323 -0.0663,0.0442 -0.0208,0.0104 -0.0455,0.0117 -0.0663,0.0221 -0.0238,0.0119 -0.0435,0.0305 -0.0663,0.0442 -0.0141,0.008 -0.0305,0.013 -0.0442,0.0221 -0.009,0.006 -0.0128,0.0174 -0.0221,0.0221 -0.007,0.003 -0.0155,-0.003 -0.0221,0 -0.0169,0.008 -0.0513,0.0613 -0.0663,0.0663 -0.014,0.005 -0.031,-0.007 -0.0442,0 -0.007,0.003 0.005,0.0169 0,0.0221 -0.005,0.005 -0.0155,-0.003 -0.0221,0 -0.0265,0.0133 -0.0398,0.053 -0.0663,0.0663 -0.007,0.003 -0.0169,-0.005 -0.0221,0 -0.005,0.005 0,0.0147 0,0.0221"
             style="fill:none;stroke:#0f6a7b;stroke-width:0.40000001;stroke-linecap:butt;stroke-linejoin:miter;stroke-miterlimit:4;stroke-opacity:1;stroke-dasharray:none" />
          <path
             transform="translate(-16.244385,297.66571)"
             inkscape:connector-curvature="0"
             id="path4193"
             d="m 439.26799,408.8406 c -0.0327,-0.038 -0.0389,-0.0915 -0.0663,-0.13258 -0.006,-0.009 -0.0174,-0.0128 -0.0221,-0.0221 -0.007,-0.0132 0.007,-0.031 0,-0.0442 -0.0133,-0.0265 -0.053,-0.0398 -0.0663,-0.0663 -0.003,-0.007 0,-0.0147 0,-0.0221 -0.007,-0.0147 -0.0118,-0.0313 -0.0221,-0.0442 -0.0195,-0.0244 -0.0468,-0.0419 -0.0663,-0.0663 -0.0201,-0.0251 -0.0472,-0.11353 -0.0663,-0.13259 -0.0117,-0.0116 -0.0326,-0.0104 -0.0442,-0.0221 -0.0117,-0.0117 -0.0147,-0.0295 -0.0221,-0.0442 -0.0801,-0.16021 0.0233,0.0349 -0.0442,-0.0663 -0.009,-0.0137 -0.0118,-0.0313 -0.0221,-0.0442 -0.0195,-0.0244 -0.0419,-0.0468 -0.0663,-0.0663 -0.0383,-0.0307 -0.0422,-0.008 -0.0663,-0.0442 -0.009,-0.0137 -0.0147,-0.0295 -0.0221,-0.0442 -0.0147,-0.0147 -0.0312,-0.0279 -0.0442,-0.0442 -0.0166,-0.0207 -0.0254,-0.0475 -0.0442,-0.0663 -0.0117,-0.0116 -0.031,-0.0122 -0.0442,-0.0221 -0.0167,-0.0125 -0.0295,-0.0295 -0.0442,-0.0442 -0.0295,-0.0295 -0.0564,-0.0617 -0.0884,-0.0884 -0.0127,-0.0105 -0.0305,-0.013 -0.0442,-0.0221 -0.0191,-0.0127 -0.049,-0.049 -0.0663,-0.0663 -0.007,-0.007 -0.0147,-0.0147 -0.0221,-0.0221 -0.007,-0.007 -0.0174,-0.0128 -0.0221,-0.0221 -0.003,-0.007 0.005,-0.0169 0,-0.0221 -0.005,-0.005 -0.0147,0 -0.0221,0"
             style="fill:none;stroke:#0f6a7b;stroke-width:0.40000001;stroke-linecap:butt;stroke-linejoin:miter;stroke-miterlimit:4;stroke-opacity:1;stroke-dasharray:none" />
          <path
             transform="translate(-16.244385,297.66571)"
             inkscape:connector-curvature="0"
             id="path4195"
             d="m 436.06391,408.22188 c 0.1501,-0.20012 3e-4,-0.0278 0.11049,-0.11048 0.0333,-0.025 0.0559,-0.0624 0.0884,-0.0884 0.0207,-0.0166 0.0455,-0.0276 0.0663,-0.0442 0.0325,-0.026 0.0589,-0.0589 0.0884,-0.0884 0.0147,-0.0147 0.0261,-0.0339 0.0442,-0.0442 0.0344,-0.0197 0.075,-0.0265 0.11049,-0.0442 0.009,-0.005 0.0134,-0.0163 0.0221,-0.0221 0.0137,-0.009 0.031,-0.0122 0.0442,-0.0221 0.0167,-0.0125 0.0256,-0.0349 0.0442,-0.0442 0.0132,-0.007 0.0299,0.004 0.0442,0 0.0142,-0.004 0.11687,-0.0569 0.13258,-0.0663 0.0228,-0.0137 0.0416,-0.0343 0.0663,-0.0442 0.0137,-0.005 0.031,0.007 0.0442,0 0.007,-0.003 -0.005,-0.0169 0,-0.0221 0.0104,-0.0104 0.0302,0.005 0.0442,0 0.16006,-0.0534 -0.0348,0.006 0.0663,-0.0442 0.0132,-0.007 0.0338,0.0104 0.0442,0 0.005,-0.005 -0.005,-0.0169 0,-0.0221 0.005,-0.005 0.0151,0.002 0.0221,0 0.0156,-0.005 0.0295,-0.0147 0.0442,-0.0221 0.0147,-0.007 0.0305,-0.013 0.0442,-0.0221 0.009,-0.006 0.0128,-0.0174 0.0221,-0.0221 0.007,-0.003 0.0147,0 0.0221,0 0.007,0 0.0147,0 0.0221,0"
             style="fill:none;stroke:#0f6a7b;stroke-width:0.40000001;stroke-linecap:butt;stroke-linejoin:miter;stroke-miterlimit:4;stroke-opacity:1;stroke-dasharray:none" />
          <path
             transform="matrix(1.3258525,0.36944682,-0.31644498,1.1356422,-29.860742,81.154085)"
             d="m 438.18523,406.84082 c 0,0.50646 -0.46003,0.91703 -1.02752,0.91703 -0.56748,0 -1.02751,-0.41057 -1.02751,-0.91703 0,-0.50646 0.46003,-0.91703 1.02751,-0.91703 0.56749,0 1.02752,0.41057 1.02752,0.91703 z"
             sodipodi:ry="0.91702908"
             sodipodi:rx="1.0275146"
             sodipodi:cy="406.84082"
             sodipodi:cx="437.15771"
             id="path4199"
             style="fill:#5cadbd;fill-opacity:1;stroke:none"
             sodipodi:type="arc" />
        </g>
      </g>
      <g
         transform="translate(289,342)"
         id="g5504">
        <path
           style="fill:#47a2b4;fill-opacity:1;stroke:none"
           d="m 595.78918,456.3376 c 0,0 -10.32127,-5.32701 -6.31346,-11.93243 5.2641,-8.67596 14.26841,0.0631 14.26841,0.0631 0,0 -3.03267,-12.33385 4.98763,-13.8896 9.65592,-1.87303 12.31123,10.98541 12.31123,10.98541 0,0 8.73899,-9.5673 15.21542,-3.21986 8.32694,8.16109 -4.98762,17.5514 -4.98762,17.5514 0,0 7.50554,3.69887 5.3033,9.53331 -2.77321,7.34712 -11.55362,1.07329 -11.55362,1.07329 0,0 2.66036,13.90909 -6.81853,14.2684 -10.52402,0.39892 -11.42735,-10.66973 -11.42735,-10.66973 0,0 -12.42962,7.46433 -16.54125,-1.01015 -4.35979,-8.98595 5.55584,-12.75318 5.55584,-12.75318 z"
           id="path5026"
           inkscape:connector-curvature="0"
           sodipodi:nodetypes="cscscscscscsc" />
        <path
           style="fill:#3197ab;fill-opacity:1;stroke:none"
           d="m 606.08011,447.7513 c 0,0 -1.66888,-9.44119 4.23001,-10.98541 6.64967,-1.74076 9.97526,7.89182 9.97526,7.89182 0,0 8.61786,-7.94542 12.56377,-2.46225 4.40929,6.12708 -6.69226,12.69005 -6.69226,12.69005 0,0 7.64558,2.73105 5.36643,7.95495 -1.95137,4.47261 -9.72271,-0.63135 -9.72271,-0.63135 0,0 3.33749,13.42809 -4.10375,14.20527 -7.93061,0.82829 -8.33376,-11.04854 -8.33376,-11.04854 0,0 -10.67307,7.50129 -13.8896,1.26269 -3.36286,-6.52241 5.42957,-10.03839 5.42957,-10.03839 0,0 -7.6185,-3.93372 -5.74524,-8.08122 2.4549,-5.43529 10.92228,-0.75762 10.92228,-0.75762 z"
           id="path5020"
           inkscape:connector-curvature="0"
           sodipodi:nodetypes="cscscscscscsc" />
        <g
           id="g4398"
           transform="translate(-0.3125,1.125)">
          <path
             transform="translate(-16.244385,297.66571)"
             d="m 632.9375,148.88843 c 0,0.70761 -0.57364,1.28125 -1.28125,1.28125 -0.70761,0 -1.28125,-0.57364 -1.28125,-1.28125 0,-0.70762 0.57364,-1.28125 1.28125,-1.28125 0.70761,0 1.28125,0.57363 1.28125,1.28125 z"
             sodipodi:ry="1.28125"
             sodipodi:rx="1.28125"
             sodipodi:cy="148.88843"
             sodipodi:cx="631.65625"
             id="path4370"
             style="fill:#1e7588;fill-opacity:1;stroke:none"
             sodipodi:type="arc" />
          <path
             transform="translate(-16.244385,297.66571)"
             d="m 635.25,151.91968 c 0,0.48325 -0.36377,0.875 -0.8125,0.875 -0.44873,0 -0.8125,-0.39175 -0.8125,-0.875 0,-0.48325 0.36377,-0.875 0.8125,-0.875 0.44873,0 0.8125,0.39175 0.8125,0.875 z"
             sodipodi:ry="0.875"
             sodipodi:rx="0.8125"
             sodipodi:cy="151.91968"
             sodipodi:cx="634.4375"
             id="path4372"
             style="fill:#1e7588;fill-opacity:1;stroke:none"
             sodipodi:type="arc" />
          <path
             transform="translate(-16.244385,297.66571)"
             d="m 638.9375,156.79468 c 0,0.65584 -0.55964,1.1875 -1.25,1.1875 -0.69036,0 -1.25,-0.53166 -1.25,-1.1875 0,-0.65584 0.55964,-1.1875 1.25,-1.1875 0.69036,0 1.25,0.53166 1.25,1.1875 z"
             sodipodi:ry="1.1875"
             sodipodi:rx="1.25"
             sodipodi:cy="156.79468"
             sodipodi:cx="637.6875"
             id="path4374"
             style="fill:#1e7588;fill-opacity:1;stroke:none"
             sodipodi:type="arc" />
          <path
             transform="translate(-16.244385,297.66571)"
             d="m 637,161.66968 c 0,0.5868 -0.54565,1.0625 -1.21875,1.0625 -0.6731,0 -1.21875,-0.4757 -1.21875,-1.0625 0,-0.5868 0.54565,-1.0625 1.21875,-1.0625 0.6731,0 1.21875,0.4757 1.21875,1.0625 z"
             sodipodi:ry="1.0625"
             sodipodi:rx="1.21875"
             sodipodi:cy="161.66968"
             sodipodi:cx="635.78125"
             id="path4376"
             style="fill:#1e7588;fill-opacity:1;stroke:none"
             sodipodi:type="arc" />
          <path
             transform="translate(-16.244385,297.66571)"
             d="m 630.5,163.91968 c 0,0.62132 -0.54565,1.125 -1.21875,1.125 -0.6731,0 -1.21875,-0.50368 -1.21875,-1.125 0,-0.62132 0.54565,-1.125 1.21875,-1.125 0.6731,0 1.21875,0.50368 1.21875,1.125 z"
             sodipodi:ry="1.125"
             sodipodi:rx="1.21875"
             sodipodi:cy="163.91968"
             sodipodi:cx="629.28125"
             id="path4378"
             style="fill:#1e7588;fill-opacity:1;stroke:none"
             sodipodi:type="arc" />
          <path
             transform="translate(-16.244385,297.66571)"
             d="m 625.625,158.01343 c 0,0.67309 -0.51767,1.21875 -1.15625,1.21875 -0.63858,0 -1.15625,-0.54566 -1.15625,-1.21875 0,-0.6731 0.51767,-1.21875 1.15625,-1.21875 0.63858,0 1.15625,0.54565 1.15625,1.21875 z"
             sodipodi:ry="1.21875"
             sodipodi:rx="1.15625"
             sodipodi:cy="158.01343"
             sodipodi:cx="624.46875"
             id="path4380"
             style="fill:#1e7588;fill-opacity:1;stroke:none"
             sodipodi:type="arc" />
          <path
             transform="translate(-17.119385,298.66571)"
             d="m 627.5625,150.76343 c 0,0.70761 -0.55964,1.28125 -1.25,1.28125 -0.69036,0 -1.25,-0.57364 -1.25,-1.28125 0,-0.70762 0.55964,-1.28125 1.25,-1.28125 0.69036,0 1.25,0.57363 1.25,1.28125 z"
             sodipodi:ry="1.28125"
             sodipodi:rx="1.25"
             sodipodi:cy="150.76343"
             sodipodi:cx="626.3125"
             id="path4382"
             style="fill:#1e7588;fill-opacity:1;stroke:none"
             sodipodi:type="arc" />
          <path
             transform="translate(-16.244385,297.66571)"
             inkscape:connector-curvature="0"
             id="path4384"
             d="m 625.75,152.29468 c 0.10417,0.0208 0.21036,0.0333 0.3125,0.0625 0.0448,0.0128 0.0793,0.0534 0.125,0.0625 0.22398,0.0448 0.15919,-0.067 0.375,0.0625 0.0505,0.0303 0.0723,0.0986 0.125,0.125 0.0373,0.0186 0.0855,-0.0132 0.125,0 0.028,0.009 0.0417,0.0417 0.0625,0.0625 0.0208,0.0208 0.0493,0.0361 0.0625,0.0625 0.009,0.0186 -0.0147,0.0478 0,0.0625 0.0147,0.0147 0.0478,-0.0147 0.0625,0 0.0295,0.0295 -0.0295,0.0955 0,0.125 0.0833,0.0833 0.0625,-0.10417 0.0625,0.0625 0,0.0208 -0.0147,0.0478 0,0.0625 0.0147,0.0147 0.0478,-0.0147 0.0625,0 0.0147,0.0147 -0.009,0.0439 0,0.0625 0.0132,0.0264 0.0493,0.0361 0.0625,0.0625 0.009,0.0186 -0.0147,0.0478 0,0.0625 0.0147,0.0147 0.0417,0 0.0625,0 0,0.0208 -0.009,0.0439 0,0.0625 0.0132,0.0264 0.0833,0.0417 0.0625,0.0625 -0.0208,0.0208 -0.0417,-0.0417 -0.0625,-0.0625"
             style="fill:none;stroke:#1e7588;stroke-width:0.40000001;stroke-linecap:butt;stroke-linejoin:miter;stroke-miterlimit:4;stroke-opacity:1;stroke-dasharray:none" />
          <path
             transform="translate(-16.244385,297.66571)"
             inkscape:connector-curvature="0"
             id="path4386"
             d="m 631.25,149.48218 c 0,0.16667 0,0.33333 0,0.5 0,0.0417 0.008,0.0841 0,0.125 -0.0129,0.0646 -0.0496,0.1229 -0.0625,0.1875 -0.008,0.0409 0.0132,0.0855 0,0.125 -0.009,0.028 -0.0493,0.0361 -0.0625,0.0625 -0.009,0.0186 0.007,0.0427 0,0.0625 -0.0295,0.0884 -0.1024,0.15961 -0.125,0.25 -0.0101,0.0404 0,0.0833 0,0.125 0,0.0417 0,0.0833 0,0.125 0,0.20833 0,0.41667 0,0.625 0,0.14657 0.0147,-0.0295 -0.0625,0.125 -0.01,0.019 0,0.15935 0,0.1875 0,0.16667 0,0.33333 0,0.5"
             style="fill:none;stroke:#1e7588;stroke-width:0.40000001;stroke-linecap:butt;stroke-linejoin:miter;stroke-miterlimit:4;stroke-opacity:1;stroke-dasharray:none" />
          <path
             transform="translate(-16.244385,297.66571)"
             inkscape:connector-curvature="0"
             id="path4388"
             d="m 634.1875,152.48218 c 0,0.27946 0.0589,0.19107 -0.0625,0.3125 -0.1433,0.1433 0.0263,-0.0395 -0.125,0.1875 -0.0163,0.0245 -0.0448,0.0389 -0.0625,0.0625 -0.0451,0.0601 -0.0799,0.12741 -0.125,0.1875 -0.0354,0.0471 -0.0833,0.0833 -0.125,0.125 -0.0625,0.0625 -0.125,0.125 -0.1875,0.1875 -0.0208,0.0208 -0.0417,0.0417 -0.0625,0.0625 -0.0208,0.0208 -0.0493,0.0361 -0.0625,0.0625 -0.009,0.0186 0,0.0417 0,0.0625 -0.0208,0.0417 -0.0367,0.0862 -0.0625,0.125 -0.0163,0.0245 -0.0493,0.0361 -0.0625,0.0625 -0.0186,0.0373 0.0417,0.125 0,0.125 -0.0208,0 0,-0.0417 0,-0.0625"
             style="fill:none;stroke:#1e7588;stroke-width:0.40000001;stroke-linecap:butt;stroke-linejoin:miter;stroke-miterlimit:4;stroke-opacity:1;stroke-dasharray:none" />
          <path
             transform="translate(-16.244385,297.66571)"
             inkscape:connector-curvature="0"
             id="path4390"
             d="m 637.9375,157.10718 c -0.14017,-0.0259 -0.24242,-0.14331 -0.375,-0.1875 -0.0375,-0.0125 -0.26263,0 -0.3125,0 -0.14583,0 -0.29167,0 -0.4375,0 -0.0417,0 -0.0839,-0.007 -0.125,0 -0.0847,0.0141 -0.16527,0.0484 -0.25,0.0625 -0.0411,0.007 -0.0846,-0.0101 -0.125,0 -0.0452,0.0113 -0.0798,0.0512 -0.125,0.0625 -0.10852,0.0271 -0.26649,-0.0271 -0.375,0 -0.0452,0.0113 -0.0793,0.0534 -0.125,0.0625 -0.0613,0.0123 -0.125,0 -0.1875,0 -0.16667,0 -0.33333,0 -0.5,0 -0.0208,0 -0.0417,0 -0.0625,0 -0.0208,0 -0.0478,-0.0147 -0.0625,0 -0.0147,0.0147 0.0147,0.0478 0,0.0625 -0.0147,0.0147 -0.0417,0 -0.0625,0 -0.125,0 -0.25,0 -0.375,0"
             style="fill:none;stroke:#1e7588;stroke-width:0.40000001;stroke-linecap:butt;stroke-linejoin:miter;stroke-miterlimit:4;stroke-opacity:1;stroke-dasharray:none" />
          <path
             transform="translate(-16.244385,297.66571)"
             inkscape:connector-curvature="0"
             id="path4392"
             d="m 635.5625,161.35718 c -0.6526,-1.08766 0.10929,0.12489 -0.3125,-0.4375 -0.028,-0.0373 -0.0367,-0.0862 -0.0625,-0.125 -0.0163,-0.0245 -0.0462,-0.038 -0.0625,-0.0625 -0.0517,-0.0775 -0.0733,-0.17248 -0.125,-0.25 -0.049,-0.0735 -0.13447,-0.11679 -0.1875,-0.1875 -0.028,-0.0373 -0.0345,-0.0877 -0.0625,-0.125 -0.27033,-0.27033 -0.01,0.0166 -0.1875,-0.25 -0.0163,-0.0245 -0.0493,-0.0361 -0.0625,-0.0625 -0.009,-0.0186 0.009,-0.0439 0,-0.0625 -0.0263,-0.0527 -0.0987,-0.0723 -0.125,-0.125 -0.009,-0.0186 0.009,-0.0439 0,-0.0625 -0.0263,-0.0527 -0.0923,-0.076 -0.125,-0.125 -0.0258,-0.0388 -0.0367,-0.0862 -0.0625,-0.125 -0.0163,-0.0245 -0.0493,-0.0361 -0.0625,-0.0625 -0.009,-0.0186 0.009,-0.0439 0,-0.0625 -0.0263,-0.0527 -0.0987,-0.0723 -0.125,-0.125 -0.092,-0.18393 0.14479,0.0823 -0.0625,-0.125"
             style="fill:none;stroke:#1e7588;stroke-width:0.40000001;stroke-linecap:butt;stroke-linejoin:miter;stroke-miterlimit:4;stroke-opacity:1;stroke-dasharray:none" />
          <path
             transform="translate(-16.244385,297.66571)"
             inkscape:connector-curvature="0"
             id="path4394"
             d="m 629.9375,163.29468 c 0.032,-0.14319 -0.024,-0.29365 0,-0.4375 0.0108,-0.065 0.0417,-0.125 0.0625,-0.1875 0.0208,-0.0625 0.038,-0.12633 0.0625,-0.1875 0.0583,-0.14573 0.0954,-0.13483 0.125,-0.3125 0.0103,-0.0616 -0.0103,-0.12585 0,-0.1875 0.0108,-0.065 0.0444,-0.12416 0.0625,-0.1875 0.0236,-0.0826 0.0306,-0.17025 0.0625,-0.25 0.0109,-0.0274 0.0493,-0.0361 0.0625,-0.0625 0.0207,-0.0415 -0.0202,-0.31438 0,-0.375 0.0147,-0.0442 0.0512,-0.0798 0.0625,-0.125 0.0101,-0.0404 0,-0.0833 0,-0.125 0,-0.16667 0,-0.33333 0,-0.5 0,-0.1875 0,-0.375 0,-0.5625 0,-0.0208 0,-0.0417 0,-0.0625 0,-0.0208 -0.0147,-0.0478 0,-0.0625 0.0147,-0.0147 0.0417,0 0.0625,0"
             style="fill:none;stroke:#1e7588;stroke-width:0.40000001;stroke-linecap:butt;stroke-linejoin:miter;stroke-miterlimit:4;stroke-opacity:1;stroke-dasharray:none" />
          <path
             transform="translate(-16.244385,297.66571)"
             inkscape:connector-curvature="0"
             id="path4396"
             d="m 624.4375,158.48218 c 0.0833,0 0.1678,-0.0137 0.25,0 0.0459,0.008 0.0793,0.0534 0.125,0.0625 0.0613,0.0123 0.12585,-0.0103 0.1875,0 0.065,0.0108 0.1229,0.0496 0.1875,0.0625 0.0817,0.0163 0.16828,-0.0163 0.25,0 0.0646,0.0129 0.12358,0.0465 0.1875,0.0625 0.0461,0.0115 0.26792,0 0.3125,0 0.27083,0 0.54167,0 0.8125,0 0.14583,0 0.29167,0 0.4375,0 0.0625,0 0.12821,0.0198 0.1875,0 0.028,-0.009 0.0345,-0.0532 0.0625,-0.0625 0.0372,-0.0124 0.30117,0 0.375,0 0.0208,0 0.0439,0.009 0.0625,0 0.0263,-0.0132 0.0362,-0.0493 0.0625,-0.0625 0.0186,-0.009 0.0417,0 0.0625,0 0.0208,0 0.0417,0 0.0625,0 0.0833,0 0.16667,0 0.25,0"
             style="fill:none;stroke:#1e7588;stroke-width:0.40000001;stroke-linecap:butt;stroke-linejoin:miter;stroke-miterlimit:4;stroke-opacity:1;stroke-dasharray:none" />
          <path
             transform="matrix(0.96190522,0.4546683,-0.3557104,0.75254794,62.749257,48.927899)"
             d="m 635.25,156.76343 c 0,2.2264 -1.83283,4.03125 -4.09375,4.03125 -2.26092,0 -4.09375,-1.80485 -4.09375,-4.03125 0,-2.2264 1.83283,-4.03125 4.09375,-4.03125 2.26092,0 4.09375,1.80485 4.09375,4.03125 z"
             sodipodi:ry="4.03125"
             sodipodi:rx="4.09375"
             sodipodi:cy="156.76343"
             sodipodi:cx="631.15625"
             id="path4368"
             style="fill:#59acbd;fill-opacity:1;stroke:none"
             sodipodi:type="arc" />
        </g>
      </g>
    </g>
  </g>
</svg>
