<?xml version="1.0" encoding="UTF-8" standalone="no"?>
<!-- Created with Inkscape (http://www.inkscape.org/) -->

<svg
   xmlns:dc="http://purl.org/dc/elements/1.1/"
   xmlns:cc="http://creativecommons.org/ns#"
   xmlns:rdf="http://www.w3.org/1999/02/22-rdf-syntax-ns#"
   xmlns:svg="http://www.w3.org/2000/svg"
   xmlns="http://www.w3.org/2000/svg"
   xmlns:sodipodi="http://sodipodi.sourceforge.net/DTD/sodipodi-0.dtd"
   xmlns:inkscape="http://www.inkscape.org/namespaces/inkscape"
   width="219.65353"
   height="24.329851"
   id="svg2"
   version="1.1"
   inkscape:version="0.48.4 r9939"
   sodipodi:docname="fleur (copie).svg"
   inkscape:export-filename="/home/caroline/Documents/projects/lydie/site/static/images/flowers_top.png"
   inkscape:export-xdpi="90"
   inkscape:export-ydpi="90">
  <sodipodi:namedview
     id="base"
     pagecolor="#ffffff"
     bordercolor="#666666"
     borderopacity="1.0"
     inkscape:pageopacity="0.0"
     inkscape:pageshadow="2"
     inkscape:zoom="3"
     inkscape:cx="114.05649"
     inkscape:cy="-27.437202"
     inkscape:document-units="px"
     inkscape:current-layer="layer1"
     showgrid="false"
     inkscape:window-width="1867"
     inkscape:window-height="1056"
     inkscape:window-x="53"
     inkscape:window-y="24"
     inkscape:window-maximized="1"
     fit-margin-top="0"
     fit-margin-left="0"
     fit-margin-right="0"
     fit-margin-bottom="0"
     showguides="true"
     inkscape:guide-bbox="true">
    <inkscape:grid
       originy="-268.42671px"
       originx="-748.47348px"
       snapvisiblegridlinesonly="true"
       enabled="true"
       visible="true"
       empspacing="5"
       id="grid3337"
       type="xygrid" />
  </sodipodi:namedview>
  <defs
     id="defs4">
    <inkscape:perspective
       id="perspective3309"
       inkscape:persp3d-origin="111.11773 : 23.400909 : 1"
       inkscape:vp_z="222.23546 : 35.101364 : 1"
       inkscape:vp_y="0 : 1000 : 0"
       inkscape:vp_x="0 : 35.101364 : 1"
       sodipodi:type="inkscape:persp3d" />
  </defs>
  <metadata
     id="metadata7">
    <rdf:RDF>
      <cc:Work
         rdf:about="">
        <dc:format>image/svg+xml</dc:format>
        <dc:type
           rdf:resource="http://purl.org/dc/dcmitype/StillImage" />
        <dc:title />
      </cc:Work>
    </rdf:RDF>
  </metadata>
  <g
     style="display:inline"
     transform="translate(-732.22909,-775.76632)"
     id="layer1"
     inkscape:groupmode="layer"
     inkscape:label="Tiges et fleurs">
    <g
       transform="matrix(3.5980965,0,0,3.5980965,-95.948871,-759.51476)"
       id="g4139" />
    <g
       transform="matrix(3.5980965,0,0,3.5980965,-95.948871,-759.51476)"
       id="g4141" />
    <g
       transform="matrix(3.5980965,0,0,3.5980965,-95.948871,-759.51476)"
       id="g4143" />
    <g
       transform="matrix(3.5980965,0,0,3.5980965,-95.948871,-759.51476)"
       id="g4145" />
    <g
       transform="matrix(3.5980965,0,0,3.5980965,-95.948871,-759.51476)"
       id="g4147" />
    <g
       transform="matrix(3.5980965,0,0,3.5980965,-95.948871,-759.51476)"
       id="g4149" />
    <g
       id="g5268"
       transform="matrix(1.58419,0,0,0.82871857,-476.34271,190.07958)">
      <path
         style="fill:#236d7b;fill-opacity:1;stroke:none"
         d="m 837.56498,712.16833 c 0,0 -4.6534,-3.94531 -8.51827,-2.10796 -3.95296,1.87924 2.09327,4.51478 2.09327,4.51478 0,0 -9.22265,2.20309 -5.31825,6.23258 3.74838,3.86847 11.09657,-1.27929 11.09657,-1.27929 0,0 -0.0127,6.46644 7.84173,4.35172 4.85682,-1.30764 0.28133,-6.34104 0.28133,-6.34104 0,0 7.50368,6.70743 10.76844,2.87968 2.55272,-2.99292 -5.6625,-5.34658 -5.6625,-5.34658 0,0 7.9191,-2.96955 3.47565,-5.41162 -4.01085,-2.20431 -9.39298,1.60097 -9.39298,1.60097 0,0 0.76295,-4.87282 -5.12261,-4.33453 -6.52126,0.59644 -1.54238,5.24129 -1.54238,5.24129 0,0 0,0 0,0"
         id="path3026"
         inkscape:connector-curvature="0"
         sodipodi:nodetypes="cscscscscscsc" />
      <path
         style="fill:#236d7b;fill-opacity:1;stroke:none"
         d="m 888.89584,707.83047 c 2.05701,-0.15908 3.91508,1.76375 3.91508,1.76375 0,0 2.40246,-0.63569 3.98528,0.0103 3.39184,1.38434 0.19326,1.9742 0.19326,1.9742 0,0 3.76333,0.49793 4.53707,2.02954 0.37805,0.74836 -4.0834,-0.39955 -4.0834,-0.39955 0,0 1.99794,1.91104 0.71899,1.87252 -3.10925,-0.0936 -5.31533,-1.9766 -5.31533,-1.9766 0,0 -0.89698,1.50506 -4.12534,0.40181 -1.90459,-0.65088 -0.64701,-2.15552 -0.64701,-2.15552 0,0 -4.38012,-0.9681 -3.89598,-1.99574 0.46512,-0.98727 4.23079,0.15503 4.23079,0.15503 0,0 -1.62584,-1.5164 0.48659,-1.67976 0,0 0,0 0,0"
         id="path4337"
         inkscape:connector-curvature="0"
         sodipodi:nodetypes="scscscscscscs" />
      <g
         id="g5383"
         transform="matrix(1,0,0,0.99502948,483,-6.855616)">
        <path
           sodipodi:nodetypes="cscscscscscsc"
           inkscape:connector-curvature="0"
           id="path4205"
           d="m 329.38737,736.08303 c 0,0 -16.16739,3.36109 -15.51828,-3.03898 0.52672,-5.19336 16.01984,-7.61767 16.01984,-7.61767 0,0 -3.13663,-4.4556 0.60006,-5.71026 4.75562,-1.59678 10.60579,1.47565 10.60579,1.47565 0,0 3.92462,-4.39387 8.85105,-3.96937 6.68054,0.57564 3.53238,4.92841 3.53238,4.92841 0,0 8.60593,-2.24081 13.19285,1.37826 4.94111,3.89851 -7.22421,5.36747 -7.22421,5.36747 0,0 13.04465,3.63359 5.97972,9.78565 -5.15193,4.48624 -16.69984,-2.37927 -16.69984,-2.37927 0,0 -6.36674,9.72178 -12.06646,9.20053 -8.58123,-0.78479 -7.2729,-9.42042 -7.2729,-9.42042 0,0 0,0 0,0"
           style="fill:#5cadbd;fill-opacity:1;stroke:#5cadbd;stroke-width:0.1;stroke-linecap:butt;stroke-linejoin:miter;stroke-miterlimit:4;stroke-opacity:1;stroke-dasharray:none" />
        <path
           sodipodi:nodetypes="cscscscscscsc"
           inkscape:connector-curvature="0"
           id="path4207"
           d="m 332.52274,726.01749 c 0,0 -1.55926,-3.43304 1.17283,-4.24851 3.15147,-0.94064 7.04011,1.23902 7.04011,1.23902 0,0 5.39598,-3.96407 8.62055,-3.76777 1.83038,0.11142 1.24829,4.62895 1.24829,4.62895 0,0 9.47123,-0.91831 9.65923,1.11191 0.13444,1.4518 -6.57202,2.17751 -6.57202,2.17751 0,0 9.90279,4.4193 7.01738,7.41443 -3.9165,4.06543 -13.61267,-3.54587 -13.61267,-3.54587 0,0 -2.8544,9.87701 -9.66938,9.25099 -6.0542,-0.55614 -4.7816,-7.67625 -4.7816,-7.67625 0,0 -12.8063,3.5129 -13.44626,-0.0714 -0.79844,-4.47195 13.32354,-6.51299 13.32354,-6.51299 0,0 0,0 0,0"
           style="fill:#3197ab;fill-opacity:1;stroke:none" />
        <g
           id="g4241">
          <path
             inkscape:connector-curvature="0"
             id="path4211"
             d="m 360.98851,426.5831 c -0.0458,0.29794 -0.53321,0.5396 -1.08784,0.53669 -0.55431,-0.003 -0.95676,-0.24896 -0.8998,-0.54653 0.0563,-0.29426 0.54168,-0.52836 1.08491,-0.52582 0.54354,0.003 0.94804,0.24103 0.90273,0.53566 0,0 0,0 0,0"
             style="fill:#136d80;fill-opacity:1;stroke:none"
             transform="translate(-16.244385,297.66571)" />
          <path
             inkscape:connector-curvature="0"
             id="path4213"
             d="m 365.29539,427.74703 c -0.0221,0.31186 -0.4768,0.56476 -1.01515,0.5616 -0.53805,-0.003 -0.94682,-0.26085 -0.91366,-0.57232 0.0328,-0.30792 0.48611,-0.55273 1.01313,-0.54996 0.52731,0.003 0.9375,0.25238 0.91568,0.56068 0,0 0,0 0,0"
             style="fill:#136d80;fill-opacity:1;stroke:none"
             transform="translate(-16.244385,297.66571)" />
          <path
             inkscape:connector-curvature="0"
             id="path4215"
             d="m 366.13413,430.15701 c -0.0162,0.30695 -0.5384,0.55462 -1.16574,0.55014 -0.62693,-0.004 -1.11157,-0.25903 -1.08314,-0.56553 0.0281,-0.30321 0.5488,-0.54337 1.16361,-0.53935 0.6152,0.004 1.10133,0.25108 1.08527,0.55474 0,0 0,0 0,0"
             style="fill:#136d80;fill-opacity:1;stroke:none"
             transform="translate(-16.244385,297.66571)" />
          <path
             inkscape:connector-curvature="0"
             id="path4218"
             d="m 363.16583,431.10116 c -0.0336,0.32389 -0.4705,0.58602 -0.97523,0.58215 -0.50447,-0.004 -0.87738,-0.27196 -0.83361,-0.59546 0.0433,-0.3199 0.47859,-0.5738 0.97295,-0.57032 0.49462,0.003 0.86912,0.26335 0.83589,0.58363 0,0 0,0 0,0"
             style="fill:#136d80;fill-opacity:1;stroke:none"
             transform="translate(-16.244385,297.66571)" />
          <path
             inkscape:connector-curvature="0"
             id="path4220"
             d="m 359.61486,432.38077 c -0.0677,0.41777 -0.60514,0.75676 -1.19922,0.75174 -0.5937,-0.005 -1.00678,-0.35167 -0.92407,-0.76885 0.0815,-0.41132 0.61575,-0.73696 1.19454,-0.73253 0.57914,0.004 0.99548,0.33773 0.92875,0.74964 0,0 0,0 0,0"
             style="fill:#136d80;fill-opacity:1;stroke:none"
             transform="translate(-16.244385,297.66571)" />
          <path
             inkscape:connector-curvature="0"
             id="path4222"
             d="m 354.34689,431.97852 c -0.0862,0.33986 -0.64977,0.61425 -1.25757,0.60927 -0.60741,-0.005 -1.0186,-0.28703 -0.91984,-0.62639 0.0976,-0.33545 0.6579,-0.60092 1.2528,-0.59644 0.59528,0.004 1.00978,0.27763 0.92461,0.61356 0,0 0,0 0,0"
             style="fill:#136d80;fill-opacity:1;stroke:none"
             transform="translate(-16.244385,297.66571)" />
          <path
             inkscape:connector-curvature="0"
             id="path4224"
             d="m 355.10477,428.54722 c -0.0705,0.27568 -0.55788,0.49851 -1.08777,0.49517 -0.52958,-0.003 -0.89327,-0.23127 -0.81333,-0.50662 0.0791,-0.27261 0.56419,-0.48919 1.08434,-0.4862 0.52045,0.003 0.88653,0.2247 0.81676,0.49765 0,0 0,0 0,0"
             style="fill:#136d80;fill-opacity:1;stroke:none"
             transform="translate(-16.244385,297.66571)" />
          <path
             style="fill:none;stroke:#136d80;stroke-width:0.40000001;stroke-linecap:butt;stroke-linejoin:miter;stroke-miterlimit:4;stroke-opacity:1;stroke-dasharray:none"
             d="m 354.60786,428.58947 c 0.0871,5.3e-4 0.1742,10e-4 0.26132,0.002 0.11201,6.8e-4 0.22404,10e-4 0.33608,0.002 0.0148,9e-5 0.17203,-0.004 0.18677,10e-4 0.0146,0.005 0.0158,0.0194 0.0317,0.0228 0.0224,0.005 0.0515,-0.003 0.0748,4.5e-4 0.052,0.009 0.0863,0.0377 0.13839,0.0462 0.0233,0.004 0.0515,-0.003 0.0748,4.5e-4 0.0261,0.004 0.0428,0.0197 0.0693,0.0231 0.0356,0.005 0.0773,-0.005 0.11231,6.9e-4 0.0165,0.003 0.0213,0.0153 0.032,0.0229 0.025,1.5e-4 0.05,3.1e-4 0.0749,4.6e-4"
             id="path4226"
             inkscape:connector-curvature="0"
             transform="translate(-16.244385,297.66571)" />
          <path
             style="fill:none;stroke:#136d80;stroke-width:0.40000001;stroke-linecap:butt;stroke-linejoin:miter;stroke-miterlimit:4;stroke-opacity:1;stroke-dasharray:none"
             d="m 359.63016,426.69234 c -0.11098,0.0302 -0.15686,0.0321 -0.2327,0.0835 -0.0185,0.0125 -0.0266,0.0291 -0.044,0.0422 -0.011,0.008 -0.0292,0.0128 -0.0402,0.021 -0.0349,0.0262 -0.0512,0.0595 -0.0884,0.0847 -0.0235,0.0159 -0.0619,0.0243 -0.0807,0.0423 -0.0132,0.0126 0.002,0.0292 -0.008,0.0427 -0.007,0.01 -0.0293,0.0128 -0.0404,0.0212 -0.0794,0.008 -0.0288,0.0451 -0.0485,0.064 -0.009,0.009 -0.0333,0.0117 -0.0405,0.0212 -0.0154,0.0203 -0.008,0.0429 -0.0122,0.0644 -0.007,0.0359 -0.0136,0.0718 -0.0204,0.1077 -0.0219,0.11537 -0.0438,0.23122 -0.0658,0.34758"
             id="path4228"
             inkscape:connector-curvature="0"
             transform="translate(-16.244385,297.66571)" />
          <path
             style="fill:none;stroke:#136d80;stroke-width:0.40000001;stroke-linecap:butt;stroke-linejoin:miter;stroke-miterlimit:4;stroke-opacity:1;stroke-dasharray:none"
             d="m 364.11756,428.03929 c -0.24857,-10e-4 -0.49706,-0.003 -0.74549,-0.004 -0.0497,-2.9e-4 -0.0994,-5.7e-4 -0.14903,-8.6e-4 -0.0248,-1.4e-4 -0.0497,-0.003 -0.0745,-4.2e-4 -0.0935,-0.0235 -0.15046,0.0344 -0.22855,0.0432 -0.0371,0.004 -0.0748,-0.005 -0.11181,-6.4e-4 -0.0553,0.006 -0.10037,0.0335 -0.15436,0.0437 -0.0121,0.002 -0.0252,-0.003 -0.0373,-2.2e-4 -0.23715,0.0448 0.12415,-10e-4 -0.19192,0.0435 -0.0123,0.002 -0.0252,-0.003 -0.0373,-2.1e-4 -0.0541,0.0102 -0.10076,0.0336 -0.15489,0.0438 -0.0121,0.002 -0.0258,-0.003 -0.0373,-2.2e-4 -0.0163,0.005 -0.0231,0.0189 -0.0402,0.0221 -0.0242,0.005 -0.0504,-0.005 -0.0747,-4.3e-4 -0.0171,0.003 -0.0268,0.0148 -0.0402,0.0222 -0.0269,0.0148 -0.0497,0.0328 -0.0806,0.0444 -0.0109,0.004 -0.0258,-0.003 -0.0374,-2.2e-4 -0.0328,0.009 -0.0479,0.0352 -0.0807,0.0445 -0.0116,0.003 -0.0279,-0.005 -0.0374,-2.2e-4 -0.01,0.005 0.007,0.0173 -0.003,0.0225 -0.01,0.005 -0.0258,-0.003 -0.0374,-2.2e-4 -0.0164,0.005 -0.024,0.0176 -0.0405,0.0223 -0.0116,0.003 -0.0258,-0.003 -0.0374,-2.2e-4 -0.0964,0.0273 0.01,0.0226 -0.078,0.0221"
             id="path4231"
             inkscape:connector-curvature="0"
             transform="translate(-16.244385,297.66571)" />
          <path
             style="fill:none;stroke:#136d80;stroke-width:0.40000001;stroke-linecap:butt;stroke-linejoin:miter;stroke-miterlimit:4;stroke-opacity:1;stroke-dasharray:none"
             d="m 365.0917,430.07788 c -0.28396,-0.002 -0.56783,-0.004 -0.85162,-0.006 -0.0216,-1.4e-4 -0.34205,0.002 -0.38684,-0.003 -0.0398,-0.004 -0.0739,-0.0203 -0.11374,-0.0247 -0.0378,-0.004 -0.0782,0.003 -0.11596,-7.9e-4 -0.0398,-0.004 -0.0751,-0.0175 -0.11357,-0.0247 -0.0501,-0.009 -0.10232,-0.0149 -0.15206,-0.0249 -0.11436,-0.023 -0.22168,-0.0583 -0.33963,-0.0738 -0.0746,-0.01 -0.15496,0.003 -0.23124,-0.002 -0.11778,0.0179 -0.19828,-0.0417 -0.30259,-0.0496 -0.0759,-0.006 -0.15505,0.004 -0.23091,-0.002 -0.0799,-0.006 -0.14661,-0.0387 -0.22485,-0.049 -0.0248,-0.003 -0.0519,0.002 -0.0769,-5.1e-4 -0.12714,-0.0141 -0.25201,-0.0333 -0.37789,-0.0499 -0.0629,-0.008 -0.12421,-0.0208 -0.18865,-0.0249 -0.0758,-0.005 -0.15586,0.007 -0.23014,-0.002 -0.0667,-0.008 -0.11906,-0.0389 -0.18487,-0.0485 -0.0489,-0.007 -0.10216,-6.8e-4 -0.15324,-10e-4 -0.0894,-6e-4 -0.17875,-0.001 -0.26811,-0.002"
             id="path4233"
             inkscape:connector-curvature="0"
             transform="translate(-16.244385,297.66571)" />
          <path
             style="fill:none;stroke:#136d80;stroke-width:0.40000001;stroke-linecap:butt;stroke-linejoin:miter;stroke-miterlimit:4;stroke-opacity:1;stroke-dasharray:none"
             d="m 361.7832,430.83158 c -0.049,-0.0249 -0.0956,-0.0517 -0.14683,-0.0747 -0.0229,-0.0103 -0.052,-0.0147 -0.0749,-0.025 -0.0145,-0.007 -0.0239,-0.0165 -0.0358,-0.0247 -0.0238,-0.0165 -0.0477,-0.033 -0.0715,-0.0494 -0.0238,-0.0165 -0.0438,-0.0354 -0.0714,-0.0493 -0.0218,-0.0111 -0.0528,-0.0139 -0.0746,-0.0249 -0.0275,-0.014 -0.0445,-0.0347 -0.0711,-0.0492 -0.034,-0.0185 -0.075,-0.0316 -0.10985,-0.0494 -0.011,-0.006 -0.10215,-0.0673 -0.1062,-0.0735 -0.005,-0.007 0.0118,-0.0184 0.003,-0.0242 -0.008,-0.006 -0.0277,0.003 -0.0388,-2.7e-4 -0.0312,-0.0104 -0.0394,-0.0384 -0.0706,-0.0489 -0.011,-0.004 -0.0304,0.005 -0.0387,-2.7e-4 -0.008,-0.006 0.008,-0.0169 0.004,-0.0241 -0.0379,-0.058 -0.0797,0.0147 -0.0704,-0.0487"
             id="path4235"
             inkscape:connector-curvature="0"
             transform="translate(-16.244385,297.66571)" />
          <path
             style="fill:none;stroke:#136d80;stroke-width:0.40000001;stroke-linecap:butt;stroke-linejoin:miter;stroke-miterlimit:4;stroke-opacity:1;stroke-dasharray:none"
             d="m 358.72158,431.98733 c 0.0455,-0.0645 -0.0412,-0.10131 -0.0521,-0.15348 -0.003,-0.0165 0.0126,-0.0343 0.009,-0.0508 -0.0349,-0.16562 -0.0386,0.0958 -0.0564,-0.12715 -0.002,-0.025 0.017,-0.0509 0.0137,-0.0757 -0.002,-0.0184 -0.0203,-0.0338 -0.0303,-0.0506 -0.006,-0.042 -0.0148,-0.0835 -0.0166,-0.12573 -0.002,-0.0376 0.02,-0.10962 0.0273,-0.14981 0.0197,-0.1077 0.0392,-0.21501 0.0588,-0.32192"
             id="path4237"
             inkscape:connector-curvature="0"
             transform="translate(-16.244385,297.66571)" />
          <path
             style="fill:none;stroke:#136d80;stroke-width:0.40000001;stroke-linecap:butt;stroke-linejoin:miter;stroke-miterlimit:4;stroke-opacity:1;stroke-dasharray:none"
             d="m 353.45243,431.61626 c 0.17129,-0.0189 0.0331,-0.0874 0.0732,-0.12525 0.0111,-0.0105 0.0349,-0.0143 0.046,-0.0247 0.0649,-0.0612 -0.12008,0.0217 0.0594,-0.0747 0.22225,-0.11945 -0.0148,0.0457 0.13093,-0.049 0.0494,-0.0321 0.0867,-0.0725 0.14387,-0.0987 0.01,-0.005 0.23044,-0.0421 0.24766,-0.0479 0.0347,-0.0118 0.0579,-0.0352 0.091,-0.049 0.0677,-0.0282 0.18132,-0.0455 0.25332,-0.0725 0.017,-0.006 0.0284,-0.0181 0.0453,-0.0244 0.059,-0.0221 0.27919,-0.0689 0.29154,-0.072 0.0285,-0.007 0.0548,-0.0198 0.084,-0.024 0.0262,-0.004 0.0517,0.004 0.0779,5.7e-4 0.0293,-0.004 0.0547,-0.0198 0.084,-0.024 0.0261,-0.004 0.0517,0.004 0.0779,5.7e-4 0.0293,-0.004 0.0546,-0.0198 0.0839,-0.024 0.0261,-0.004 0.0517,0.004 0.0779,5.7e-4 0.0293,-0.004 0.0559,-0.016 0.0838,-0.024 0.0409,-0.008 0.0812,-0.0189 0.12262,-0.0237 0.0393,-0.005 0.078,0.008 0.11675,8.5e-4 0.29561,-0.0571 -0.063,0.007 0.12822,-0.0482 0.0124,-0.003 0.0259,1.9e-4 0.0389,2.8e-4 0.0259,1.9e-4 0.0517,0.004 0.0778,5.6e-4 0.0292,-0.004 0.0556,-0.0159 0.0834,-0.0239 0.0407,-0.008 0.0809,-0.0189 0.12224,-0.0236 0.0261,-0.003 0.052,0.006 0.0777,5.6e-4 0.15089,-0.0292 -0.0418,-0.0248 0.0833,-0.0239"
             id="path4239"
             inkscape:connector-curvature="0"
             transform="translate(-16.244385,297.66571)" />
          <path
             inkscape:connector-curvature="0"
             id="path4209"
             d="m 363.03398,431.55709 c -0.15011,1.15634 -1.85153,2.11772 -3.79084,2.10306 -1.93528,-0.0146 -3.25754,-0.9953 -2.96801,-2.14649 0.27802,-1.1054 1.95106,-1.96194 3.74984,-1.95228 1.80224,0.01 3.15313,0.88551 3.00901,1.99571 0,0 0,0 0,0"
             style="fill:#5cadbd;fill-opacity:1;stroke:none"
             transform="translate(-17.380807,295.456)" />
        </g>
      </g>
      <g
         id="g4212"
         transform="matrix(1,0,0,0.99502948,322,100.60757)">
        <path
           sodipodi:nodetypes="cscscscscscsc"
           transform="translate(-16.244385,297.66571)"
           inkscape:connector-curvature="0"
           id="path4179"
           d="m 463.56336,325.78133 c 0,0 2.223,-1.7357 3.48439,-1.94187 1.45614,-0.23799 1.30863,1.08513 1.30863,1.08513 0,0 3.49118,-0.87099 3.61235,-0.30662 0.0925,0.43084 -2.10269,1.84621 -2.10269,1.84621 0,0 2.47552,0.71893 1.6493,1.74276 -0.79473,0.98482 -4.003,1.26513 -4.003,1.26513 0,0 -1.9696,2.07624 -3.78424,2.34694 -1.736,0.25896 -1.51549,-1.04584 -1.51549,-1.04584 0,0 -4.01645,1.60487 -4.95444,1.12856 -0.83238,-0.42268 3.0101,-2.95992 3.0101,-2.95992 0,0 -3.74865,-0.24526 -2.54282,-1.39403 1.14179,-1.08776 5.83791,-1.76645 5.83791,-1.76645 0,0 0,0 0,0"
           style="fill:#5cadbd;fill-opacity:1;stroke:none" />
        <g
           id="g4201">
          <path
             inkscape:connector-curvature="0"
             id="path4181"
             d="m 465.46169,326.68088 c -0.17733,0.1672 -0.52757,0.30142 -0.78131,0.29895 -0.25367,-0.002 -0.31282,-0.14061 -0.13307,-0.3077 0.17877,-0.16618 0.52663,-0.29833 0.77789,-0.29597 0.25133,0.002 0.31286,0.13843 0.13649,0.30472 0,0 0,0 0,0"
             style="fill:#0f6a7b;fill-opacity:1;stroke:#5cadbd;stroke-width:0.1;stroke-miterlimit:4;stroke-opacity:1"
             transform="translate(-16.244385,297.66571)" />
          <path
             inkscape:connector-curvature="0"
             id="path4183"
             d="m 467.51443,327.25326 c -0.22048,0.21672 -0.6593,0.39091 -0.97861,0.38769 -0.3192,-0.003 -0.39482,-0.1825 -0.17043,-0.39903 0.22282,-0.21503 0.65784,-0.38578 0.97315,-0.38274 0.31542,0.003 0.39484,0.17887 0.17589,0.39408 0,0 0,0 0,0"
             style="fill:#0f6a7b;fill-opacity:1;stroke:#5cadbd;stroke-width:0.1;stroke-miterlimit:4;stroke-opacity:1"
             transform="translate(-16.244385,297.66571)" />
          <path
             inkscape:connector-curvature="0"
             id="path4185"
             d="m 464.23955,328.41719 c -0.21847,0.20792 -0.65327,0.37472 -0.96975,0.37132 -0.31636,-0.003 -0.39162,-0.17557 -0.16952,-0.38332 0.22063,-0.20637 0.65188,-0.37006 0.96462,-0.36683 0.31285,0.003 0.39166,0.17229 0.17465,0.37883 0,0 0,0 0,0"
             style="fill:#0f6a7b;fill-opacity:1;stroke:#5cadbd;stroke-width:0.1;stroke-miterlimit:4;stroke-opacity:1"
             transform="translate(-16.244385,297.66571)" />
          <path
             inkscape:connector-curvature="0"
             id="path4187"
             d="m 466.58673,314.5422 c -0.23288,0.27748 -0.68755,0.50045 -1.01387,0.49617 -0.32621,-0.004 -0.39712,-0.23399 -0.16008,-0.51123 0.23532,-0.27522 0.68582,-0.49358 1.00788,-0.48954 0.32218,0.004 0.39726,0.22915 0.16607,0.5046 0,0 0,0 0,0"
             style="fill:#0f6a7b;fill-opacity:1;stroke:#5cadbd;stroke-width:0.1;stroke-miterlimit:4;stroke-opacity:1"
             transform="matrix(1.0046551,0,0,0.83241411,-18.601442,364.45648)" />
          <path
             style="fill:none;stroke:#0f6a7b;stroke-width:0.40000001;stroke-linecap:butt;stroke-linejoin:miter;stroke-miterlimit:4;stroke-opacity:1;stroke-dasharray:none"
             d="m 465.09536,326.82779 c -9.1e-4,0.0274 -0.0126,0.0576 -0.0228,0.0875 -0.002,0.006 -0.007,0.0136 -0.007,0.0195 1.1e-4,0.007 0.005,0.0131 0.007,0.0196 -0.004,0.013 -0.0121,0.0269 -0.0133,0.039 -0.006,0.0132 0.0121,0.018 0.0109,0.0295 -0.002,0.0225 -0.0213,0.0263 -0.0236,0.0488 -4.1e-4,0.004 0.004,0.006 0.004,0.01 1.1e-4,0.009 -0.003,0.02 -0.003,0.0294 6e-5,0.004 0.004,0.006 0.004,0.01 0.0279,-10e-4 -0.0148,0.0228 -0.017,0.0293 -0.003,0.008 0.0101,0.0115 0.007,0.0198 -10e-4,0.003 -0.009,0.007 -0.0103,0.01 -10e-4,0.004 0.004,0.006 0.004,0.01 1.6e-4,0.009 -0.003,0.02 -0.003,0.0295 1.9e-4,0.0125 0.0104,0.028 0.0146,0.0396 0.004,0.01 0.007,0.0198 0.011,0.0297 10e-4,0.003 8.7e-4,0.007 0.004,0.01 0.004,0.004 0.0132,0.006 0.0177,0.0101 0.006,0.005 -9e-5,0.0156 0.007,0.0199 0.003,0.001 0.0131,-0.002 0.014,1.4e-4 8.3e-4,0.002 -0.0111,0.007 -0.0103,0.01 8.3e-4,0.002 0.0131,-0.002 0.014,1.4e-4 8.3e-4,0.002 -0.0111,0.007 -0.0103,0.01 0.002,0.005 0.0263,-0.004 0.028,2.8e-4 8.4e-4,0.002 -0.0111,0.007 -0.0103,0.01 8.3e-4,0.002 0.0131,-0.002 0.014,1.4e-4 0.005,0.0133 -0.0337,0.01 0.004,0.01"
             id="path4189"
             inkscape:connector-curvature="0"
             transform="translate(-16.244385,297.66571)" />
          <path
             style="fill:none;stroke:#0f6a7b;stroke-width:0.40000001;stroke-linecap:butt;stroke-linejoin:miter;stroke-miterlimit:4;stroke-opacity:1;stroke-dasharray:none"
             d="m 466.42691,327.47035 c -0.0667,-6.7e-4 -0.0334,-0.006 -0.0945,0.009 -0.0126,0.003 -0.026,0.007 -0.0383,0.01 -0.0229,0.004 -0.0431,0.004 -0.0664,0.009 -0.016,0.004 -0.0321,0.0137 -0.0485,0.0194 -0.0208,0.007 -0.042,0.0141 -0.0626,0.0193 -0.0181,0.005 -0.0344,0.005 -0.0524,0.009 -0.0207,0.005 -0.0418,0.0133 -0.0627,0.0193 -0.0127,0.003 -0.0254,0.006 -0.0384,0.01 -0.009,0.003 -0.0162,0.008 -0.0243,0.01 -0.006,10e-4 -0.008,-0.001 -0.0141,-1.4e-4 -0.0145,0.003 -0.0611,0.0271 -0.073,0.0292 -0.0112,0.002 -0.0165,-0.003 -0.0282,-2.8e-4 -0.006,0.001 -0.005,0.008 -0.0103,0.01 -0.006,0.002 -0.008,-10e-4 -0.0141,-1.5e-4 -0.0231,0.006 -0.05,0.0235 -0.0731,0.0293 -0.006,0.001 -0.008,-0.002 -0.0141,-1.4e-4 -0.006,0.002 -0.007,0.007 -0.0103,0.01"
             id="path4191"
             inkscape:connector-curvature="0"
             transform="translate(-16.244385,297.66571)" />
          <path
             style="fill:none;stroke:#0f6a7b;stroke-width:0.40000001;stroke-linecap:butt;stroke-linejoin:miter;stroke-miterlimit:4;stroke-opacity:1;stroke-dasharray:none"
             d="m 465.70025,328.52507 c -0.003,-0.0177 0.0181,-0.0424 0.0198,-0.0615 3.7e-4,-0.004 -0.005,-0.006 -0.004,-0.0103 0.002,-0.006 0.0191,-0.0142 0.0208,-0.0203 0.004,-0.0123 -0.0155,-0.0186 -0.0115,-0.0309 0.001,-0.003 0.007,-0.007 0.0104,-0.0101 0.002,-0.007 0.007,-0.0144 0.007,-0.0204 -10e-4,-0.0113 -0.0105,-0.0195 -0.0115,-0.0308 -10e-4,-0.0116 0.023,-0.0523 0.0197,-0.0611 -0.002,-0.005 -0.0161,-0.005 -0.0181,-0.0104 -0.002,-0.005 0.004,-0.0136 0.007,-0.0203 0.0237,-0.0736 -10e-4,0.0161 0.003,-0.0306 6.5e-4,-0.006 0.007,-0.0144 0.007,-0.0203 -10e-4,-0.0113 -0.005,-0.0216 -0.0115,-0.0307 -0.0102,-0.0142 -0.0234,-0.004 -0.0219,-0.0206 6.5e-4,-0.006 0.004,-0.0135 0.007,-0.0203 -0.003,-0.007 -0.007,-0.0129 -0.008,-0.0204 -9.5e-4,-0.01 0.006,-0.0217 0.003,-0.0304 -0.002,-0.005 -0.0142,-0.006 -0.018,-0.0103 -0.005,-0.006 -0.005,-0.0136 -0.008,-0.0204 -0.005,-0.0136 -0.007,-0.0283 -0.0153,-0.0407 -0.003,-0.005 -0.0135,-0.006 -0.018,-0.0103 -0.006,-0.006 -0.008,-0.0225 -0.0114,-0.0305 -10e-4,-0.003 -0.003,-0.007 -0.004,-0.0102 -0.001,-0.003 -0.005,-0.006 -0.004,-0.0101 0.001,-0.003 0.0111,-0.008 0.0104,-0.01 -8.6e-4,-0.002 -0.009,-9e-5 -0.0141,-1.4e-4"
             id="path4193"
             inkscape:connector-curvature="0"
             transform="translate(-16.244385,297.66571)" />
          <path
             style="fill:none;stroke:#0f6a7b;stroke-width:0.40000001;stroke-linecap:butt;stroke-linejoin:miter;stroke-miterlimit:4;stroke-opacity:1;stroke-dasharray:none"
             d="m 463.93004,328.21977 c 0.19281,-0.0901 0.0136,-0.0127 0.12425,-0.0496 0.0334,-0.0112 0.0659,-0.028 0.0993,-0.0396 0.0213,-0.007 0.0424,-0.0122 0.0638,-0.0197 0.0333,-0.0116 0.066,-0.0264 0.0991,-0.0396 0.0165,-0.007 0.033,-0.0152 0.0495,-0.0198 0.0315,-0.009 0.0607,-0.0115 0.092,-0.0193 0.008,-0.002 0.0164,-0.007 0.0247,-0.01 0.0131,-0.004 0.0257,-0.005 0.0389,-0.01 0.0167,-0.006 0.0331,-0.0156 0.0494,-0.0197 0.0118,-0.003 0.0172,0.002 0.0283,2.9e-4 0.011,-0.002 0.10193,-0.025 0.11646,-0.0291 0.0211,-0.006 0.0429,-0.0152 0.0635,-0.0195 0.0111,-0.002 0.0165,0.003 0.0283,2.9e-4 0.006,-0.001 0.005,-0.008 0.0105,-0.01 0.0116,-0.005 0.017,0.002 0.0283,2.9e-4 0.12774,-0.0231 -0.0251,0.002 0.0634,-0.0195 0.0118,-0.003 0.0167,0.005 0.0283,2.9e-4 0.006,-0.002 0.005,-0.008 0.0105,-0.01 0.006,-0.002 0.009,10e-4 0.0141,1.5e-4 0.0123,-0.002 0.0258,-0.006 0.0387,-0.01 0.0127,-0.003 0.0257,-0.006 0.0387,-0.01 0.009,-0.003 0.0164,-0.008 0.0246,-0.01 0.006,-10e-4 0.009,9e-5 0.0141,1.4e-4 0.004,5e-5 0.009,1e-4 0.0141,1.5e-4"
             id="path4195"
             inkscape:connector-curvature="0"
             transform="translate(-16.244385,297.66571)" />
          <path
             inkscape:connector-curvature="0"
             id="path4199"
             d="m 441.8107,335.6251 c -0.20975,0.29669 -0.61547,0.54323 -0.90371,0.54841 -0.2872,0.005 -0.3456,-0.2315 -0.13295,-0.52637 0.21092,-0.29247 0.61039,-0.53345 0.8947,-0.54041 0.28533,-0.007 0.34998,0.22411 0.14196,0.51837 0,0 0,0 0,0"
             style="fill:#5cadbd;fill-opacity:1;stroke:none"
             transform="matrix(1.3258525,0.36944682,-0.31644498,1.1356422,-29.860742,81.154085)" />
        </g>
      </g>
      <g
         id="g5504"
         transform="matrix(1,0,0,0.99502948,289,344.38979)">
        <path
           sodipodi:nodetypes="cscscscscscsc"
           inkscape:connector-curvature="0"
           id="path5026"
           d="m 576.43059,379.74884 c 0,0 -7.93289,-2.38988 -6.3857,-5.02098 1.83816,-3.12591 9.03301,0.0848 9.03301,0.0848 0,0 -4.27893,-4.39897 0.0996,-4.88493 5.18739,-0.57575 10.10784,3.85206 10.10784,3.85206 0,0 2.60639,-3.33598 8.52008,-1.12568 8.41797,3.1463 3.19467,7.12102 3.19467,7.12102 0,0 6.99914,1.8059 8.20464,4.77192 1.68681,4.15024 -8.31057,0.47399 -8.31057,0.47399 0,0 9.18088,8.52614 1.19371,8.64037 -8.85047,0.12657 -13.81528,-6.81802 -13.81528,-6.81802 0,0 -7.49518,4.36905 -12.97392,-0.72943 -5.01924,-4.67085 1.13195,-6.3651 1.13195,-6.3651 0,0 10e-6,2e-5 10e-6,2e-5"
           style="fill:#47a2b4;fill-opacity:1;stroke:none" />
        <path
           sodipodi:nodetypes="cscscscscscsc"
           inkscape:connector-curvature="0"
           id="path5020"
           d="m 581.33798,376.12044 c 0,0 -3.15547,-3.58691 0.0958,-4.11181 3.60182,-0.58149 8.26803,2.94864 8.26803,2.94864 0,0 3.04203,-2.90817 7.26305,-0.89361 5.11959,2.44343 0.0618,5.21809 0.0618,5.21809 0,0 6.48915,1.31307 7.13384,3.867 0.59489,2.35665 -7.45587,-0.39898 -7.45587,-0.39898 0,0 8.61679,7.61421 2.84672,8.01654 -6.1962,0.43204 -10.91453,-6.49136 -10.91453,-6.49136 0,0 -5.7867,4.09038 -9.99666,0.54786 -3.9623,-3.33412 1.38062,-4.92558 1.38062,-4.92558 0,0 -6.05314,-1.79521 -5.62423,-3.52254 0.52644,-2.12017 6.94144,-0.25425 6.94144,-0.25425 0,0 0,0 0,0"
           style="fill:#3197ab;fill-opacity:1;stroke:none" />
        <g
           transform="translate(-0.3125,1.125)"
           id="g4398">
          <path
             inkscape:connector-curvature="0"
             id="path4370"
             d="m 604.60596,77.350156 c 0.20571,0.288563 -0.005,0.521718 -0.47331,0.518142 -0.46763,-0.0036 -1.00784,-0.242265 -1.20499,-0.530513 -0.19521,-0.285402 0.02,-0.512057 0.47911,-0.508796 0.45933,0.0033 0.9955,0.235456 1.19919,0.521167 0,0 0,0 0,0"
             style="fill:#1e7588;fill-opacity:1;stroke:none"
             transform="translate(-16.244385,297.66571)" />
          <path
             inkscape:connector-curvature="0"
             id="path4372"
             d="m 607.05272,78.619357 c 0.15197,0.205638 0.0303,0.371376 -0.27276,0.368887 -0.3029,-0.0025 -0.66919,-0.17214 -0.81728,-0.377631 -0.14706,-0.20407 -0.0232,-0.366569 0.27586,-0.364227 0.29913,0.0023 0.66327,0.168756 0.81418,0.372971 0,0 0,0 0,0"
             style="fill:#1e7588;fill-opacity:1;stroke:none"
             transform="translate(-16.244385,297.66571)" />
          <path
             inkscape:connector-curvature="0"
             id="path4374"
             d="m 611.20623,80.785114 c 0.23473,0.300649 0.0326,0.542839 -0.45334,0.538266 -0.4857,-0.0046 -1.06405,-0.253884 -1.29001,-0.554181 -0.22375,-0.297378 -0.0171,-0.532914 0.4599,-0.528692 0.47721,0.0042 1.05101,0.246883 1.28345,0.544607 0,0 0,0 0,0"
             style="fill:#1e7588;fill-opacity:1;stroke:none"
             transform="translate(-16.244385,297.66571)" />
          <path
             inkscape:connector-curvature="0"
             id="path4376"
             d="m 611.60434,83.078363 c 0.21951,0.289292 6.7e-4,0.521537 -0.49041,0.516338 -0.49082,-0.0052 -1.06123,-0.245583 -1.27252,-0.534527 -0.20938,-0.286336 0.0133,-0.51264 0.49598,-0.507789 0.48288,0.0049 1.04942,0.239298 1.26695,0.525978 0,0 0,0 0,0"
             style="fill:#1e7588;fill-opacity:1;stroke:none"
             transform="translate(-16.244385,297.66571)" />
          <path
             inkscape:connector-curvature="0"
             id="path4378"
             d="m 607.67808,84.150057 c 0.21679,0.316317 -0.01,0.570508 -0.50745,0.564937 -0.49756,-0.0056 -1.07071,-0.26847 -1.27857,-0.584396 -0.20584,-0.312864 0.0247,-0.560074 0.51337,-0.554893 0.48891,0.0052 1.05795,0.261105 1.27265,0.574352 0,0 0,0 0,0"
             style="fill:#1e7588;fill-opacity:1;stroke:none"
             transform="translate(-16.244385,297.66571)" />
          <path
             inkscape:connector-curvature="0"
             id="path4380"
             d="m 602.31065,81.258273 c 0.19692,0.312321 -0.006,0.564304 -0.45595,0.559938 -0.44925,-0.0044 -0.96758,-0.263141 -1.15617,-0.575121 -0.1867,-0.308859 0.0206,-0.553712 0.46162,-0.549686 0.44117,0.004 0.95556,0.255676 1.1505,0.564869 0,0 0,0 0,0"
             style="fill:#1e7588;fill-opacity:1;stroke:none"
             transform="translate(-16.244385,297.66571)" />
          <path
             inkscape:connector-curvature="0"
             id="path4382"
             d="m 602.15555,77.507457 c 0.1926,0.299787 -0.0262,0.541952 -0.49035,0.538113 -0.46389,-0.0038 -0.99029,-0.251952 -1.17425,-0.55141 -0.18212,-0.296447 0.0405,-0.531736 0.49584,-0.528226 0.45552,0.0035 0.9781,0.244752 1.16876,0.541523 0,0 0,0 0,0"
             style="fill:#1e7588;fill-opacity:1;stroke:none"
             transform="translate(-17.119385,298.66571)" />
          <path
             style="fill:none;stroke:#1e7588;stroke-width:0.40000001;stroke-linecap:butt;stroke-linejoin:miter;stroke-miterlimit:4;stroke-opacity:1;stroke-dasharray:none"
             d="m 600.79797,78.727161 c 0.0752,0.0094 0.14962,0.01528 0.22582,0.02824 0.0334,0.0057 0.0675,0.02314 0.10056,0.02726 0.16213,0.02029 0.0884,-0.02762 0.2681,0.02865 0.0421,0.01318 0.0754,0.04242 0.11797,0.05397 0.0301,0.0081 0.0537,-0.0052 0.0838,6.85e-4 0.0213,0.004 0.0394,0.01803 0.0591,0.02702 0.0197,0.009 0.043,0.01569 0.0592,0.02705 0.0112,0.008 0.003,0.02036 0.0172,0.02673 0.0139,0.0064 0.028,-0.006 0.042,3.45e-4 0.028,0.01279 0.007,0.04073 0.0346,0.05353 0.0791,0.03619 0.0132,-0.04427 0.0593,0.02715 0.006,0.0089 0.003,0.02043 0.0173,0.02683 0.014,0.0064 0.0281,-0.006 0.0421,3.48e-4 0.014,0.0064 0.006,0.01881 0.0174,0.02685 0.0162,0.01142 0.0433,0.0158 0.0595,0.02723 0.0113,0.0081 0.003,0.02049 0.0174,0.0269 0.014,0.0064 0.0281,2.34e-4 0.0421,3.5e-4 0.006,0.009 0.006,0.01886 0.0175,0.02693 0.0163,0.01146 0.0678,0.01845 0.0596,0.0273 -0.008,0.0089 -0.0398,-0.01822 -0.0596,-0.0273"
             id="path4384"
             inkscape:connector-curvature="0"
             transform="translate(-16.244385,297.66571)" />
          <path
             style="fill:none;stroke:#1e7588;stroke-width:0.40000001;stroke-linecap:butt;stroke-linejoin:miter;stroke-miterlimit:4;stroke-opacity:1;stroke-dasharray:none"
             d="m 603.66815,77.58377 c 0.0473,0.06823 0.0948,0.136614 0.14235,0.205164 0.0119,0.01718 0.0293,0.03469 0.0358,0.05152 0.01,0.0266 0.002,0.05049 0.0124,0.07713 0.006,0.01688 0.0333,0.03545 0.0359,0.05175 0.002,0.01156 -0.0223,0.01471 -0.0234,0.02559 -6.2e-4,0.0077 0.0169,0.01775 0.018,0.02593 0.006,0.03656 -0.022,0.0658 -0.011,0.103304 0.005,0.01678 0.024,0.03472 0.036,0.05211 0.012,0.0174 0.024,0.03478 0.0361,0.0522 0.0603,0.08721 0.12071,0.174687 0.18133,0.262418 0.0428,0.06188 10e-4,-0.01236 -0.005,0.05243 -10e-4,0.008 0.0465,0.0674 0.0548,0.07932 0.0488,0.07069 0.0977,0.141547 0.14675,0.212578"
             id="path4386"
             inkscape:connector-curvature="0"
             transform="translate(-16.244385,297.66571)" />
          <path
             style="fill:none;stroke:#1e7588;stroke-width:0.40000001;stroke-linecap:butt;stroke-linejoin:miter;stroke-miterlimit:4;stroke-opacity:1;stroke-dasharray:none"
             d="m 606.5139,78.853025 c 0.087,0.119654 0.0992,0.08208 0.0551,0.133486 -0.0521,0.06077 0.005,-0.0168 -0.026,0.07989 -0.003,0.01045 -0.0181,0.0165 -0.0227,0.02656 -0.0118,0.02565 -0.0143,0.05448 -0.0261,0.08017 -0.009,0.02015 -0.0304,0.03553 -0.0457,0.05333 -0.0229,0.0267 -0.0457,0.05342 -0.0686,0.08016 -0.008,0.0089 -0.0153,0.01786 -0.0229,0.02677 -0.008,0.0089 -0.0222,0.0154 -0.0229,0.02679 -3.1e-4,0.008 0.013,0.01813 0.0195,0.02717 -10e-4,0.01802 0.002,0.03731 -0.003,0.05406 -0.003,0.01058 -0.0222,0.01545 -0.023,0.02688 -10e-4,0.01616 0.0675,0.05481 0.0391,0.05456 -0.0142,-1.2e-4 -0.0131,-0.01821 -0.0196,-0.02729"
             id="path4388"
             inkscape:connector-curvature="0"
             transform="translate(-16.244385,297.66571)" />
          <path
             style="fill:none;stroke:#1e7588;stroke-width:0.40000001;stroke-linecap:butt;stroke-linejoin:miter;stroke-miterlimit:4;stroke-opacity:1;stroke-dasharray:none"
             d="m 610.6184,80.921566 c -0.1071,-0.01276 -0.21974,-0.06713 -0.32776,-0.08817 -0.0305,-0.0059 -0.18328,-0.0017 -0.21808,-0.002 -0.10175,-9.31e-4 -0.2035,-0.0019 -0.30523,-0.0028 -0.0291,-2.66e-4 -0.0609,-0.0037 -0.0872,-7.99e-4 -0.0542,0.0059 -0.0986,0.02105 -0.15288,0.02695 -0.0263,0.0029 -0.0625,-0.0052 -0.0872,-8e-4 -0.0277,0.0049 -0.0381,0.02289 -0.0658,0.02777 -0.0665,0.0117 -0.19522,-0.0141 -0.26168,-0.0024 -0.0277,0.0049 -0.0371,0.02392 -0.0659,0.02779 -0.0386,0.0052 -0.0873,-8.02e-4 -0.13087,-0.0012 -0.11631,-0.0011 -0.2326,-0.0021 -0.34888,-0.0032 -0.0145,-1.34e-4 -0.0291,-2.68e-4 -0.0436,-4.02e-4 -0.0145,-1.33e-4 -0.0383,-0.007 -0.0436,-4.01e-4 -0.005,0.0066 0.0263,0.02197 0.021,0.0286 -0.005,0.0066 -0.0291,-2.68e-4 -0.0436,-4.02e-4 -0.0872,-8.04e-4 -0.17445,-0.0016 -0.26166,-0.0024"
             id="path4390"
             inkscape:connector-curvature="0"
             transform="translate(-16.244385,297.66571)" />
          <path
             style="fill:none;stroke:#1e7588;stroke-width:0.40000001;stroke-linecap:butt;stroke-linejoin:miter;stroke-miterlimit:4;stroke-opacity:1;stroke-dasharray:none"
             d="m 610.45075,82.914746 c -0.85752,-0.531076 0.12422,0.06182 -0.38264,-0.215082 -0.0335,-0.01828 -0.0572,-0.04202 -0.0896,-0.06098 -0.0204,-0.01197 -0.0467,-0.01871 -0.0672,-0.03067 -0.0647,-0.0378 -0.11393,-0.08377 -0.17847,-0.121487 -0.0611,-0.03571 -0.13755,-0.05713 -0.20042,-0.09147 -0.0331,-0.0181 -0.0555,-0.04231 -0.0886,-0.06038 -0.28742,-0.131139 -10e-4,0.0079 -0.2213,-0.120856 -0.0202,-0.0118 -0.0477,-0.01757 -0.0663,-0.03025 -0.0129,-0.0089 -0.009,-0.02086 -0.0218,-0.02978 -0.0371,-0.02527 -0.0954,-0.03511 -0.13236,-0.06035 -0.0128,-0.0089 -0.009,-0.0208 -0.0217,-0.02969 -0.0369,-0.0252 -0.0919,-0.03671 -0.13201,-0.06017 -0.0317,-0.01856 -0.0557,-0.04108 -0.0874,-0.05962 -0.02,-0.0117 -0.0474,-0.01741 -0.0658,-0.02998 -0.0128,-0.0088 -0.009,-0.02068 -0.0214,-0.02952 -0.0367,-0.02505 -0.0947,-0.03479 -0.13132,-0.05982 -0.12778,-0.08718 0.1307,0.0398 -0.0869,-0.05927"
             id="path4392"
             inkscape:connector-curvature="0"
             transform="translate(-16.244385,297.66571)" />
          <path
             style="fill:none;stroke:#1e7588;stroke-width:0.40000001;stroke-linecap:butt;stroke-linejoin:miter;stroke-miterlimit:4;stroke-opacity:1;stroke-dasharray:none"
             d="m 607.05172,83.830559 c -0.0254,-0.07149 -0.11724,-0.147129 -0.14849,-0.21868 -0.0141,-0.03228 -0.012,-0.06189 -0.018,-0.09279 -0.006,-0.03087 -0.015,-0.0624 -0.0179,-0.09252 -0.007,-0.07165 0.0237,-0.06598 -0.0147,-0.153455 -0.0132,-0.03027 -0.0497,-0.06205 -0.0629,-0.09229 -0.014,-0.03185 -0.01,-0.06063 -0.0177,-0.09155 -0.0106,-0.04028 -0.0348,-0.0831 -0.0385,-0.121821 -10e-4,-0.01329 0.0234,-0.01725 0.0241,-0.03004 0.001,-0.02008 -0.11912,-0.153117 -0.12474,-0.18238 -0.004,-0.02132 0.0102,-0.0383 0.003,-0.06011 -0.006,-0.01947 -0.0276,-0.04029 -0.0414,-0.06045 -0.0551,-0.08042 -0.10998,-0.160624 -0.16476,-0.240631 -0.0615,-0.08976 -0.12274,-0.179272 -0.18385,-0.268524 -0.007,-0.0099 -0.0136,-0.01982 -0.0203,-0.02969 -0.007,-0.0099 -0.026,-0.02279 -0.0203,-0.02967 0.006,-0.0069 0.0296,2.91e-4 0.0443,4.36e-4"
             id="path4394"
             inkscape:connector-curvature="0"
             transform="translate(-16.244385,297.66571)" />
          <path
             style="fill:none;stroke:#1e7588;stroke-width:0.40000001;stroke-linecap:butt;stroke-linejoin:miter;stroke-miterlimit:4;stroke-opacity:1;stroke-dasharray:none"
             d="m 601.61642,81.467522 c 0.0583,5.56e-4 0.11346,-0.0052 0.17492,0.0017 0.0344,0.004 0.0709,0.02536 0.10553,0.02989 0.0465,0.0061 0.0851,-0.004 0.13128,0.0013 0.0487,0.0055 0.10049,0.02391 0.14951,0.03035 0.062,0.0081 0.11315,-0.0065 0.17518,0.0017 0.0491,0.0064 0.10026,0.02249 0.14978,0.03038 0.0357,0.0057 0.18789,0.0018 0.21916,0.0021 0.18997,0.0018 0.38,0.0036 0.57005,0.0055 0.10235,9.81e-4 0.20472,0.002 0.30709,0.0029 0.0439,4.2e-4 0.096,0.0101 0.13164,0.0013 0.0169,-0.004 0.008,-0.02458 0.0249,-0.02873 0.0224,-0.0055 0.2114,0.002 0.26323,0.0025 0.0146,1.4e-4 0.0336,0.0045 0.0439,4.2e-4 0.0144,-0.006 0.0103,-0.02274 0.0248,-0.02871 0.0103,-0.0041 0.0293,2.79e-4 0.0439,4.19e-4 0.0146,1.39e-4 0.0293,2.79e-4 0.0439,4.18e-4 0.0585,5.58e-4 0.11698,0.0011 0.17547,0.0017"
             id="path4396"
             inkscape:connector-curvature="0"
             transform="translate(-16.244385,297.66571)" />
          <path
             inkscape:connector-curvature="0"
             id="path4368"
             d="m 582.42854,86.724014 c 0.32222,0.843953 -0.88881,1.885981 -2.68394,2.30166 -1.7646,0.40861 -3.36919,0.04162 -3.6057,-0.794965 -0.23094,-0.816863 0.92887,-1.797113 2.61025,-2.212814 1.70921,-0.422582 3.365,-0.117327 3.67939,0.706119 0,0 0,0 0,0"
             style="fill:#59acbd;fill-opacity:1;stroke:none"
             transform="matrix(0.96190522,0.4546683,-0.3557104,0.75254794,62.749257,48.927899)" />
        </g>
      </g>
    </g>
  </g>
</svg>
