<?xml version="1.0" encoding="UTF-8" standalone="no"?>
<!-- Created with Inkscape (http://www.inkscape.org/) -->

<svg
   xmlns:dc="http://purl.org/dc/elements/1.1/"
   xmlns:cc="http://creativecommons.org/ns#"
   xmlns:rdf="http://www.w3.org/1999/02/22-rdf-syntax-ns#"
   xmlns:svg="http://www.w3.org/2000/svg"
   xmlns="http://www.w3.org/2000/svg"
   xmlns:sodipodi="http://sodipodi.sourceforge.net/DTD/sodipodi-0.dtd"
   xmlns:inkscape="http://www.inkscape.org/namespaces/inkscape"
   inkscape:export-ydpi="90"
   inkscape:export-xdpi="90"
   inkscape:export-filename="/home/caroline/Documents/projects/lydie/site/static/images/flowers_top.png"
   sodipodi:docname="fleur.svg"
   inkscape:version="0.48.4 r9939"
   version="1.1"
   id="svg2"
   height="70.202728"
   width="222.23546">
  <sodipodi:namedview
     id="base"
     pagecolor="#ffffff"
     bordercolor="#666666"
     borderopacity="1.0"
     inkscape:pageopacity="0.0"
     inkscape:pageshadow="2"
     inkscape:zoom="4"
     inkscape:cx="161.84926"
     inkscape:cy="42.086108"
     inkscape:document-units="px"
     inkscape:current-layer="layer1"
     showgrid="false"
     inkscape:window-width="1867"
     inkscape:window-height="1056"
     inkscape:window-x="53"
     inkscape:window-y="24"
     inkscape:window-maximized="1"
     fit-margin-top="0"
     fit-margin-left="0"
     fit-margin-right="0"
     fit-margin-bottom="0"
     showguides="true"
     inkscape:guide-bbox="true">
    <inkscape:grid
       originy="-245.66082px"
       originx="-747.26907px"
       snapvisiblegridlinesonly="true"
       enabled="true"
       visible="true"
       empspacing="5"
       id="grid3337"
       type="xygrid" />
  </sodipodi:namedview>
  <defs
     id="defs4" />
  <metadata
     id="metadata7">
    <rdf:RDF>
      <cc:Work
         rdf:about="">
        <dc:format>image/svg+xml</dc:format>
        <dc:type
           rdf:resource="http://purl.org/dc/dcmitype/StillImage" />
        <dc:title></dc:title>
      </cc:Work>
    </rdf:RDF>
  </metadata>
  <g
     style="display:inline"
     transform="translate(-731.02468,-752.65933)"
     id="layer1"
     inkscape:groupmode="layer"
     inkscape:label="Tiges et fleurs">
    <g
       transform="matrix(3.5980965,0,0,3.5980965,-95.948871,-759.51476)"
       id="g4139" />
    <g
       transform="matrix(3.5980965,0,0,3.5980965,-95.948871,-759.51476)"
       id="g4141" />
    <g
       transform="matrix(3.5980965,0,0,3.5980965,-95.948871,-759.51476)"
       id="g4143" />
    <g
       transform="matrix(3.5980965,0,0,3.5980965,-95.948871,-759.51476)"
       id="g4145" />
    <g
       transform="matrix(3.5980965,0,0,3.5980965,-95.948871,-759.51476)"
       id="g4147" />
    <g
       transform="matrix(3.5980965,0,0,3.5980965,-95.948871,-759.51476)"
       id="g4149" />
    <g
       id="g6815"
       transform="translate(-3.5,77.5)">
      <g
         id="g6625">
        <g
           id="g6438">
          <g
             id="g3841">
            <path
               sodipodi:nodetypes="cscscscscscsc"
               inkscape:connector-curvature="0"
               id="path3026"
               d="m 848.18115,701.77732 c 0,0 -7.83707,-5.38006 -14.57215,-2.69416 -6.4755,2.58239 3.87928,5.78183 3.87928,5.78183 0,0 -14.3572,2.68036 -7.58644,6.86702 5.80033,3.5866 16.48438,-1.44932 16.48438,-1.44932 0,0 -0.52482,6.09229 10.71509,4.11164 7.27266,-1.28155 2.01134,-6.33896 2.01134,-6.33896 0,0 8.82147,6.56603 15.15116,2.86979 5.45161,-3.18348 -6.25738,-5.74568 -6.25738,-5.74568 0,0 14.61015,-3.78984 8.59761,-7.02295 -5.87701,-3.16022 -16.94216,2.3319 -16.94216,2.3319 0,0 3.09246,-7.07279 -7.92769,-6.14282 -11.98456,1.01134 -3.55304,7.43171 -3.55304,7.43171 0,0 0,0 0,0"
               style="fill:#236d7b;fill-opacity:1;stroke:none" />
            <path
               sodipodi:nodetypes="scscscscscscs"
               inkscape:connector-curvature="0"
               id="path4337"
               d="m 941.05519,694.96841 c 3.96415,-0.27032 3.78763,2.51045 3.78763,2.51045 0,0 5.33824,-0.9439 6.8812,-0.0445 3.19385,1.86166 -3.26393,2.69692 -3.26393,2.69692 0,0 5.37902,0.59871 3.8885,2.53416 -0.70225,0.91188 -5.94879,-0.43952 -5.94879,-0.43952 0,0 0.0381,2.3003 -1.92507,2.27302 -4.7847,-0.0665 -5.41495,-2.33721 -5.41495,-2.33721 0,0 -3.74374,1.86403 -7.3369,0.56263 -2.18058,-0.78978 2.13793,-2.76477 2.13793,-2.76477 0,0 -5.99297,-1.24605 -3.62453,-2.69147 2.3543,-1.43679 7.11501,0.15727 7.11501,0.15727 0,0 -0.34631,-2.18078 3.7039,-2.45696 0,0 0,0 0,0"
               style="fill:#236d7b;fill-opacity:1;stroke:none" />
            <g
               transform="translate(483,-11)"
               id="g5383">
              <path
                 style="fill:#5cadbd;fill-opacity:1;stroke:#5cadbd;stroke-width:0.1;stroke-linecap:butt;stroke-linejoin:miter;stroke-miterlimit:4;stroke-opacity:1;stroke-dasharray:none"
                 d="m 328.9703,727.33661 c 0,0 -20.26307,2.99349 -23.6674,-2.52229 -3.2426,-5.25373 19.75517,-8.21981 19.75517,-8.21981 0,0 -7.86382,-5.57404 -2.09348,-7.36735 7.70314,-2.39399 19.17963,1.87658 19.17963,1.87658 0,0 6.09789,-6.44292 15.25945,-5.85797 12.18767,0.77816 5.9946,6.9451 5.9946,6.9451 0,0 15.34595,-3.16665 21.70138,1.56639 6.06694,4.51819 -13.18323,6.28367 -13.18323,6.28367 0,0 18.12383,3.4769 6.15122,8.99023 -7.61107,3.50486 -22.32282,-1.76564 -22.32282,-1.76564 0,0 -7.57408,7.49418 -14.63997,7.21193 -10.81684,-0.43208 -12.13455,-7.14084 -12.13455,-7.14084 0,0 0,0 0,0"
                 id="path4205"
                 inkscape:connector-curvature="0"
                 sodipodi:nodetypes="cscscscscscsc" />
              <path
                 style="fill:#3197ab;fill-opacity:1;stroke:none"
                 d="m 329.57131,717.24402 c 0,0 -4.19428,-4.15681 0.0555,-5.25991 5.04274,-1.30895 12.36503,1.499 12.36503,1.499 0,0 8.59702,-5.455 14.36478,-5.22038 3.25477,0.13239 2.14211,6.15298 2.14211,6.15298 0,0 15.85062,-1.2909 15.62056,1.20897 -0.15576,1.69264 -10.83364,2.60807 -10.83364,2.60807 0,0 14.16467,4.48531 9.29517,7.34518 -6.01331,3.53164 -19.38252,-3.17444 -19.38252,-3.17444 0,0 -3.17847,8.65431 -12.16806,8.26114 -8.11519,-0.35492 -8.7112,-6.52799 -8.7112,-6.52799 0,0 -16.58297,3.35658 -19.61297,0.11877 -4.23622,-4.52676 16.86527,-7.01139 16.86527,-7.01139 0,0 0,0 0,0"
                 id="path4207"
                 inkscape:connector-curvature="0"
                 sodipodi:nodetypes="cscscscscscsc" />
              <g
                 id="g4241">
                <path
                   id="path4211"
                   d="m 365.12311,417.30203 c -0.0345,0.36243 -0.79515,0.66048 -1.69852,0.6651 -0.90303,0.005 -1.60435,-0.28575 -1.56682,-0.64795 0.0375,-0.36152 0.79714,-0.65804 1.69717,-0.66289 0.90038,-0.005 1.60263,0.28398 1.56817,0.64574 0,0 0,0 0,0"
                   style="fill:#136d80;fill-opacity:1;stroke:none"
                   transform="translate(-16.244385,297.66571)"
                   inkscape:connector-curvature="0" />
                <path
                   id="path4213"
                   d="m 372.21748,418.6336 c -0.0281,0.3655 -0.74807,0.66565 -1.60777,0.6698 -0.85941,0.004 -1.53071,-0.2891 -1.49974,-0.65437 0.0309,-0.36459 0.75004,-0.66319 1.60658,-0.66757 0.85683,-0.004 1.52897,0.28733 1.50093,0.65214 0,0 0,0 0,0"
                   style="fill:#136d80;fill-opacity:1;stroke:none"
                   transform="translate(-16.244385,297.66571)"
                   inkscape:connector-curvature="0" />
                <path
                   id="path4215"
                   d="m 373.57383,421.35509 c -0.0244,0.33433 -0.82751,0.60913 -1.79348,0.61324 -0.96557,0.004 -1.72586,-0.26381 -1.69855,-0.59791 0.0273,-0.33354 0.82941,-0.60705 1.79205,-0.6114 0.96303,-0.004 1.72431,0.26229 1.69998,0.59607 0,0 0,0 0,0"
                   style="fill:#136d80;fill-opacity:1;stroke:none"
                   transform="translate(-16.244385,297.66571)"
                   inkscape:connector-curvature="0" />
                <path
                   id="path4218"
                   d="m 369.03179,422.41525 c -0.0289,0.34311 -0.67412,0.62421 -1.44089,0.62731 -0.76654,0.003 -1.36238,-0.27282 -1.33112,-0.61574 0.0312,-0.34233 0.67577,-0.62207 1.43992,-0.62536 0.76439,-0.003 1.36092,0.27128 1.33209,0.61379 0,0 0,0 0,0"
                   style="fill:#136d80;fill-opacity:1;stroke:none"
                   transform="translate(-16.244385,297.66571)"
                   inkscape:connector-curvature="0" />
                <path
                   id="path4220"
                   d="m 363.77976,423.80019 c -0.0414,0.42599 -0.7925,0.77466 -1.67734,0.77795 -0.88451,0.003 -1.56495,-0.33982 -1.52019,-0.76553 0.0447,-0.4248 0.79483,-0.77139 1.67595,-0.77496 0.88145,-0.004 1.56285,0.33747 1.52158,0.76254 0,0 0,0 0,0"
                   style="fill:#136d80;fill-opacity:1;stroke:none"
                   transform="translate(-16.244385,297.66571)"
                   inkscape:connector-curvature="0" />
                <path
                   id="path4222"
                   d="m 355.74733,423.46055 c -0.0412,0.35125 -0.81587,0.63928 -1.7298,0.64278 -0.91358,0.003 -1.61809,-0.27868 -1.57396,-0.62969 0.044,-0.35039 0.8177,-0.637 1.72839,-0.64073 0.91105,-0.004 1.61653,0.27702 1.57537,0.62764 0,0 0,0 0,0"
                   style="fill:#136d80;fill-opacity:1;stroke:none"
                   transform="translate(-16.244385,297.66571)"
                   inkscape:connector-curvature="0" />
                <path
                   id="path4224"
                   d="m 356.00897,419.71111 c -0.0372,0.31588 -0.74812,0.57548 -1.58751,0.57937 -0.83908,0.004 -1.4869,-0.24925 -1.44726,-0.56494 0.0396,-0.31519 0.74966,-0.57364 1.58634,-0.57772 0.83697,-0.004 1.4856,0.2479 1.44843,0.56329 0,0 0,0 0,0"
                   style="fill:#136d80;fill-opacity:1;stroke:none"
                   transform="translate(-16.244385,297.66571)"
                   inkscape:connector-curvature="0" />
                <path
                   transform="translate(-16.244385,297.66571)"
                   inkscape:connector-curvature="0"
                   id="path4226"
                   d="m 355.22881,419.76674 c 0.13891,-6.6e-4 0.27782,-0.001 0.41676,-0.002 0.17863,-8.5e-4 0.35728,-0.002 0.53594,-0.003 0.0236,-1.2e-4 0.27301,-0.007 0.29779,-10e-4 0.0245,0.005 0.0303,0.022 0.0565,0.0257 0.037,0.005 0.0811,-0.005 0.11914,-5.6e-4 0.0851,0.009 0.1472,0.0419 0.23228,0.0509 0.038,0.004 0.0811,-0.005 0.11918,-5.6e-4 0.0426,0.004 0.073,0.0218 0.11619,0.0254 0.0578,0.005 0.1217,-0.007 0.1788,-8.4e-4 0.0269,0.003 0.0378,0.0171 0.0566,0.0257 0.0398,-1.9e-4 0.0795,-3.7e-4 0.11922,-5.6e-4"
                   style="fill:none;stroke:#136d80;stroke-width:0.40000001;stroke-linecap:butt;stroke-linejoin:miter;stroke-miterlimit:4;stroke-opacity:1;stroke-dasharray:none" />
                <path
                   transform="translate(-16.244385,297.66571)"
                   inkscape:connector-curvature="0"
                   id="path4228"
                   d="m 362.91167,417.45498 c -0.17667,0.0383 -0.2515,0.0413 -0.3667,0.10475 -0.0281,0.0155 -0.0384,0.0357 -0.0646,0.0518 -0.0165,0.0102 -0.0454,0.0159 -0.062,0.026 -0.0524,0.0322 -0.0731,0.0726 -0.12933,0.1036 -0.0356,0.0196 -0.0968,0.0303 -0.1241,0.0521 -0.0193,0.0154 0.009,0.0351 -0.005,0.0515 -0.01,0.0115 -0.0455,0.0159 -0.062,0.0261 -0.12809,0.0103 -0.0387,0.0547 -0.0674,0.0776 -0.0136,0.0109 -0.052,0.0145 -0.0621,0.0261 -0.0213,0.0246 -0.005,0.0516 -0.008,0.0774 -0.004,0.043 -0.009,0.086 -0.0133,0.129 -0.0142,0.13769 -0.0284,0.27548 -0.0426,0.41337"
                   style="fill:none;stroke:#136d80;stroke-width:0.40000001;stroke-linecap:butt;stroke-linejoin:miter;stroke-miterlimit:4;stroke-opacity:1;stroke-dasharray:none" />
                <path
                   transform="translate(-16.244385,297.66571)"
                   inkscape:connector-curvature="0"
                   id="path4231"
                   d="m 370.33588,418.99303 c -0.39867,0.002 -0.79727,0.004 -1.1958,0.006 -0.0797,3.9e-4 -0.1594,7.8e-4 -0.23909,10e-4 -0.0399,1.9e-4 -0.0799,-0.002 -0.11954,5.8e-4 -0.15191,-0.0261 -0.23858,0.0423 -0.36306,0.0537 -0.059,0.005 -0.12024,-0.005 -0.17928,8.8e-4 -0.088,0.008 -0.15799,0.0404 -0.24358,0.0531 -0.0192,0.003 -0.0406,-0.003 -0.0597,2.9e-4 -0.37567,0.0555 0.19881,-0.003 -0.30337,0.0534 -0.0195,0.002 -0.0406,-0.003 -0.0597,2.9e-4 -0.0856,0.0127 -0.15805,0.0405 -0.24366,0.0531 -0.0192,0.003 -0.0416,-0.003 -0.0597,2.9e-4 -0.0257,0.006 -0.035,0.0223 -0.062,0.0263 -0.0383,0.006 -0.0812,-0.005 -0.11952,5.8e-4 -0.027,0.004 -0.0414,0.0175 -0.0621,0.0263 -0.0414,0.0175 -0.0761,0.0387 -0.12421,0.0525 -0.017,0.005 -0.0416,-0.003 -0.0597,2.9e-4 -0.0514,0.0112 -0.0728,0.0413 -0.12425,0.0526 -0.0181,0.004 -0.0452,-0.006 -0.0597,2.9e-4 -0.0147,0.006 0.0123,0.0198 -0.002,0.026 -0.0147,0.006 -0.0416,-0.004 -0.0597,2.9e-4 -0.0257,0.006 -0.0364,0.0207 -0.0621,0.0263 -0.0181,0.004 -0.0416,-0.004 -0.0597,2.9e-4 -0.15066,0.0328 0.0183,0.0259 -0.12192,0.0266"
                   style="fill:none;stroke:#136d80;stroke-width:0.40000001;stroke-linecap:butt;stroke-linejoin:miter;stroke-miterlimit:4;stroke-opacity:1;stroke-dasharray:none" />
                <path
                   transform="translate(-16.244385,297.66571)"
                   inkscape:connector-curvature="0"
                   id="path4233"
                   d="m 371.95366,421.28337 c -0.44142,0.002 -0.88276,0.004 -1.32401,0.006 -0.0336,1.5e-4 -0.53166,0.007 -0.60157,0.003 -0.0621,-0.004 -0.11613,-0.0212 -0.17828,-0.0255 -0.059,-0.004 -0.12146,0.005 -0.18043,8e-4 -0.0621,-0.004 -0.1179,-0.0181 -0.17821,-0.0254 -0.0786,-0.01 -0.16022,-0.0149 -0.2383,-0.0252 -0.17964,-0.0236 -0.34933,-0.0609 -0.53429,-0.0763 -0.11697,-0.01 -0.24126,0.006 -0.36053,0.002 -0.1821,0.0213 -0.31263,-0.0431 -0.47603,-0.0503 -0.11888,-0.005 -0.24148,0.007 -0.36035,0.002 -0.12529,-0.006 -0.23247,-0.0405 -0.35563,-0.0508 -0.039,-0.003 -0.0808,0.003 -0.12007,5.3e-4 -0.19996,-0.0138 -0.39702,-0.0332 -0.59548,-0.0497 -0.0992,-0.008 -0.19645,-0.0213 -0.29763,-0.0248 -0.11907,-0.004 -0.2428,0.0105 -0.35998,0.002 -0.10516,-0.008 -0.19088,-0.0413 -0.29503,-0.051 -0.0774,-0.007 -0.15993,7.2e-4 -0.23989,10e-4 -0.13993,6.3e-4 -0.27984,0.001 -0.41974,0.002"
                   style="fill:none;stroke:#136d80;stroke-width:0.40000001;stroke-linecap:butt;stroke-linejoin:miter;stroke-miterlimit:4;stroke-opacity:1;stroke-dasharray:none" />
                <path
                   transform="translate(-16.244385,297.66571)"
                   inkscape:connector-curvature="0"
                   id="path4235"
                   d="m 366.88695,422.14727 c -0.0779,-0.026 -0.15239,-0.0541 -0.23365,-0.0781 -0.0364,-0.0107 -0.0816,-0.0151 -0.11798,-0.0258 -0.023,-0.007 -0.0385,-0.0174 -0.0577,-0.0261 -0.0385,-0.0174 -0.0771,-0.0348 -0.11554,-0.0522 -0.0385,-0.0174 -0.0715,-0.0375 -0.1155,-0.0522 -0.0348,-0.0116 -0.0831,-0.0142 -0.11788,-0.0258 -0.044,-0.0147 -0.0726,-0.0368 -0.11544,-0.0521 -0.0547,-0.0195 -0.11947,-0.0331 -0.17551,-0.0519 -0.0177,-0.006 -0.16601,-0.0715 -0.17303,-0.0781 -0.008,-0.008 0.0161,-0.0202 0.002,-0.0263 -0.0136,-0.006 -0.0425,0.004 -0.0601,2.6e-4 -0.0496,-0.0109 -0.0656,-0.0412 -0.11528,-0.0521 -0.0175,-0.004 -0.0464,0.006 -0.06,2.6e-4 -0.0136,-0.006 0.0103,-0.0185 0.002,-0.0263 -0.0661,-0.0626 -0.12171,0.0171 -0.11523,-0.052"
                   style="fill:none;stroke:#136d80;stroke-width:0.40000001;stroke-linecap:butt;stroke-linejoin:miter;stroke-miterlimit:4;stroke-opacity:1;stroke-dasharray:none" />
                <path
                   transform="translate(-16.244385,297.66571)"
                   inkscape:connector-curvature="0"
                   id="path4237"
                   d="m 362.37137,423.40781 c 0.0582,-0.0675 -0.0792,-0.10445 -0.10449,-0.1585 -0.008,-0.0171 0.0134,-0.0359 0.005,-0.053 -0.0808,-0.17239 -0.0425,0.1002 -0.10707,-0.13186 -0.007,-0.0261 0.0172,-0.0535 0.008,-0.0794 -0.007,-0.0193 -0.0366,-0.0351 -0.0548,-0.0527 -0.0156,-0.044 -0.0368,-0.0875 -0.0467,-0.13192 -0.009,-0.0396 0.0118,-0.1159 0.0161,-0.15848 0.0116,-0.11438 0.0233,-0.2287 0.0349,-0.34295"
                   style="fill:none;stroke:#136d80;stroke-width:0.40000001;stroke-linecap:butt;stroke-linejoin:miter;stroke-miterlimit:4;stroke-opacity:1;stroke-dasharray:none" />
                <path
                   transform="translate(-16.244385,297.66571)"
                   inkscape:connector-curvature="0"
                   id="path4239"
                   d="m 354.2899,423.0963 c 0.25553,-0.0222 0.0255,-0.092 0.076,-0.13229 0.014,-0.0112 0.0492,-0.0155 0.0632,-0.0266 0.0817,-0.0653 -0.17705,0.0245 0.0695,-0.0794 0.30633,-0.12915 -0.01,0.0483 0.18631,-0.0535 0.0665,-0.0346 0.11243,-0.0778 0.1926,-0.10624 0.0138,-0.005 0.34134,-0.0478 0.36612,-0.0542 0.05,-0.013 0.0791,-0.0381 0.1262,-0.0532 0.0962,-0.0309 0.26584,-0.0509 0.36914,-0.0806 0.0244,-0.007 0.0388,-0.0196 0.063,-0.0266 0.0847,-0.0243 0.41078,-0.0774 0.42897,-0.0808 0.042,-0.008 0.0791,-0.0219 0.12299,-0.0268 0.0392,-0.004 0.0806,0.004 0.11991,-5e-4 0.044,-0.005 0.079,-0.0219 0.12297,-0.0268 0.0392,-0.004 0.0806,0.004 0.11993,-5e-4 0.044,-0.005 0.079,-0.0219 0.12296,-0.0268 0.0392,-0.004 0.0806,0.004 0.11994,-5.1e-4 0.044,-0.005 0.082,-0.0179 0.12294,-0.0268 0.0609,-0.009 0.12031,-0.0214 0.18291,-0.0271 0.0594,-0.005 0.12206,0.008 0.17991,-7.5e-4 0.44158,-0.0654 -0.0954,0.008 0.18587,-0.0534 0.0183,-0.004 0.04,-1.7e-4 0.0599,-2.5e-4 0.04,-1.7e-4 0.0807,0.004 0.11994,-5.1e-4 0.0439,-0.005 0.082,-0.0179 0.1229,-0.0268 0.0609,-0.009 0.12027,-0.0214 0.18287,-0.0271 0.0396,-0.003 0.0814,0.005 0.11995,-5e-4 0.22595,-0.0335 -0.0702,-0.026 0.12288,-0.0268"
                   style="fill:none;stroke:#136d80;stroke-width:0.40000001;stroke-linecap:butt;stroke-linejoin:miter;stroke-miterlimit:4;stroke-opacity:1;stroke-dasharray:none" />
                <path
                   id="path4209"
                   d="m 368.04941,422.7296 c -0.11468,1.27495 -2.60972,2.32438 -5.5688,2.33646 -2.95539,0.0121 -5.22718,-1.01553 -5.0784,-2.28776 0.14784,-1.26407 2.63263,-2.29482 5.55406,-2.3096 2.92504,-0.0148 5.20708,0.99415 5.09314,2.2609 0,0 0,0 0,0"
                   style="fill:#5cadbd;fill-opacity:1;stroke:none"
                   transform="translate(-17.380807,295.456)"
                   inkscape:connector-curvature="0" />
              </g>
            </g>
            <g
               transform="translate(322,97)"
               id="g4212">
              <path
                 style="fill:#5cadbd;fill-opacity:1;stroke:none"
                 d="m 440.39899,318.00558 c 0,0 1.00175,-1.7713 2.65275,-2.0019 1.91785,-0.26787 3.41076,1.08616 3.41076,1.08616 0,0 4.20573,-0.93388 5.07717,-0.36001 0.65568,0.4318 -0.93061,1.8483 -0.93061,1.8483 0,0 4.45835,0.64819 4.39421,1.60876 -0.06,0.89887 -4.29452,1.19125 -4.29452,1.19125 0,0 -0.4105,1.80854 -2.59924,2.05812 -2.08002,0.23717 -3.31553,-0.8579 -3.31553,-0.8579 0,0 -3.58994,1.39196 -5.46179,1.01359 -1.68111,-0.33981 0.43788,-2.58529 0.43788,-2.58529 0,0 -5.6887,-0.16832 -5.54414,-1.23571 0.14119,-1.04244 6.17306,-1.76537 6.17306,-1.76537 0,0 0,0 0,0"
                 id="path4179"
                 inkscape:connector-curvature="0"
                 transform="translate(-16.244385,297.66571)"
                 sodipodi:nodetypes="cscscscscscsc" />
              <g
                 id="g4201">
                <path
                   id="path4181"
                   d="m 444.38842,318.84704 c -0.048,0.16144 -0.39089,0.2934 -0.76585,0.29461 -0.37489,10e-4 -0.63942,-0.12874 -0.59092,-0.29014 0.0485,-0.16127 0.39115,-0.29293 0.76551,-0.29418 0.37443,-10e-4 0.63918,0.1284 0.59126,0.28971 0,0 0,0 0,0"
                   style="fill:#0f6a7b;fill-opacity:1;stroke:#5cadbd;stroke-width:0.1;stroke-miterlimit:4;stroke-opacity:1"
                   transform="translate(-16.244385,297.66571)"
                   inkscape:connector-curvature="0" />
                <path
                   id="path4183"
                   d="m 448.10651,319.3595 c -0.0591,0.20573 -0.486,0.37385 -0.9533,0.3753 -0.4672,10e-4 -0.7972,-0.16426 -0.73722,-0.36992 0.0599,-0.20545 0.48644,-0.37308 0.9528,-0.3746 0.46645,-0.002 0.7968,0.1637 0.73772,0.36922 0,0 0,0 0,0"
                   style="fill:#0f6a7b;fill-opacity:1;stroke:#5cadbd;stroke-width:0.1;stroke-miterlimit:4;stroke-opacity:1"
                   transform="translate(-16.244385,297.66571)"
                   inkscape:connector-curvature="0" />
                <path
                   id="path4185"
                   d="m 444.79068,320.47906 c -0.0564,0.19123 -0.47229,0.34745 -0.92881,0.34877 -0.45641,10e-4 -0.77998,-0.15274 -0.72282,-0.34391 0.0571,-0.19098 0.47267,-0.34679 0.92833,-0.34817 0.45575,-10e-4 0.77964,0.15225 0.7233,0.34331 0,0 0,0 0,0"
                   style="fill:#0f6a7b;fill-opacity:1;stroke:#5cadbd;stroke-width:0.1;stroke-miterlimit:4;stroke-opacity:1"
                   transform="translate(-16.244385,297.66571)"
                   inkscape:connector-curvature="0" />
                <path
                   id="path4187"
                   d="m 448.4069,304.94698 c -0.0602,0.25365 -0.48918,0.46077 -0.95802,0.46237 -0.46873,0.002 -0.79909,-0.20285 -0.73802,-0.45641 0.061,-0.2533 0.48962,-0.45981 0.95749,-0.4615 0.46797,-0.002 0.79869,0.20215 0.73855,0.45554 0,0 0,0 0,0"
                   style="fill:#0f6a7b;fill-opacity:1;stroke:#5cadbd;stroke-width:0.1;stroke-miterlimit:4;stroke-opacity:1"
                   transform="matrix(1.0046551,0,0,0.83241411,-18.601442,364.45648)"
                   inkscape:connector-curvature="0" />
                <path
                   transform="translate(-16.244385,297.66571)"
                   inkscape:connector-curvature="0"
                   id="path4189"
                   d="m 444.03716,318.99188 c 0.0336,0.026 0.0548,0.0548 0.078,0.0832 0.005,0.006 0.007,0.013 0.015,0.0185 0.01,0.007 0.0238,0.0123 0.0356,0.0184 0.01,0.0124 0.0165,0.0256 0.0301,0.037 0.008,0.0125 0.0405,0.0168 0.0534,0.0277 0.0252,0.0213 0.002,0.0251 0.0274,0.0463 0.004,0.004 0.0131,0.006 0.0178,0.009 0.0121,0.009 0.0207,0.0189 0.0329,0.0278 0.005,0.003 0.0135,0.006 0.0178,0.009 0.0394,-10e-4 0.007,0.0217 0.0123,0.0278 0.006,0.008 0.0293,0.0107 0.0357,0.0185 0.002,0.003 -0.005,0.007 -0.003,0.009 0.004,0.004 0.0131,0.006 0.0178,0.009 0.0122,0.009 0.0208,0.0188 0.0329,0.0278 0.016,0.0117 0.0505,0.0262 0.0713,0.0369 0.0178,0.009 0.0357,0.0185 0.0535,0.0277 0.006,0.003 0.0105,0.007 0.0178,0.009 0.0117,0.004 0.0268,0.005 0.0384,0.009 0.0147,0.005 0.0195,0.0146 0.0357,0.0185 0.006,0.001 0.0164,-0.002 0.0206,-6e-5 0.004,0.002 -0.007,0.007 -0.003,0.009 0.004,0.002 0.0164,-0.002 0.0206,-6e-5 0.004,0.002 -0.007,0.007 -0.003,0.009 0.008,0.004 0.0328,-0.004 0.0412,-1.3e-4 0.004,0.002 -0.007,0.007 -0.003,0.009 0.004,0.002 0.0164,-0.002 0.0206,-7e-5 0.0238,0.0123 -0.0371,0.009 0.0179,0.009"
                   style="fill:none;stroke:#0f6a7b;stroke-width:0.40000001;stroke-linecap:butt;stroke-linejoin:miter;stroke-miterlimit:4;stroke-opacity:1;stroke-dasharray:none" />
                <path
                   transform="translate(-16.244385,297.66571)"
                   inkscape:connector-curvature="0"
                   id="path4191"
                   d="m 446.78659,319.57765 c -0.0979,3.1e-4 -0.0562,-0.005 -0.12644,0.01 -0.0146,0.003 -0.0288,0.007 -0.044,0.009 -0.0281,0.004 -0.0582,0.004 -0.0852,0.01 -0.0185,0.004 -0.0299,0.0132 -0.0467,0.0188 -0.0214,0.007 -0.0436,0.0138 -0.0673,0.0188 -0.0207,0.004 -0.0439,0.005 -0.0646,0.01 -0.0237,0.005 -0.0444,0.013 -0.0673,0.0188 -0.0141,0.003 -0.0301,0.006 -0.044,0.009 -0.009,0.003 -0.0141,0.007 -0.0233,0.009 -0.007,10e-4 -0.0141,-0.001 -0.0206,7e-5 -0.0168,0.003 -0.0554,0.026 -0.0701,0.0282 -0.0137,0.002 -0.0281,-0.003 -0.0412,1.3e-4 -0.007,0.001 0.003,0.007 -0.003,0.009 -0.005,0.002 -0.0141,-0.001 -0.0206,6e-5 -0.0264,0.006 -0.0437,0.0225 -0.0701,0.0282 -0.007,10e-4 -0.0152,-0.002 -0.0206,6e-5 -0.005,0.002 -0.002,0.006 -0.003,0.009"
                   style="fill:none;stroke:#0f6a7b;stroke-width:0.40000001;stroke-linecap:butt;stroke-linejoin:miter;stroke-miterlimit:4;stroke-opacity:1;stroke-dasharray:none" />
                <path
                   transform="translate(-16.244385,297.66571)"
                   inkscape:connector-curvature="0"
                   id="path4193"
                   d="m 447.01854,320.55666 c -0.0259,-0.016 -0.0252,-0.0387 -0.0458,-0.056 -0.005,-0.004 -0.0147,-0.005 -0.018,-0.009 -0.005,-0.006 0.0104,-0.0131 0.005,-0.0187 -0.009,-0.0112 -0.0447,-0.0167 -0.0539,-0.0279 -0.002,-0.003 0.002,-0.006 0.003,-0.009 -0.005,-0.006 -0.007,-0.0132 -0.0152,-0.0186 -0.0152,-0.0103 -0.0386,-0.0176 -0.0539,-0.0279 -0.0157,-0.0106 -0.0302,-0.0479 -0.0457,-0.0559 -0.01,-0.005 -0.0292,-0.004 -0.0386,-0.009 -0.01,-0.005 -0.0101,-0.0124 -0.0152,-0.0186 -0.0552,-0.0675 0.0175,0.0147 -0.0332,-0.0279 -0.007,-0.006 -0.007,-0.0132 -0.0152,-0.0186 -0.0152,-0.0103 -0.0334,-0.0197 -0.0538,-0.0279 -0.032,-0.0129 -0.0385,-0.003 -0.0565,-0.0185 -0.007,-0.006 -0.0101,-0.0124 -0.0152,-0.0186 -0.0119,-0.006 -0.0257,-0.0117 -0.0359,-0.0186 -0.013,-0.009 -0.0179,-0.02 -0.0332,-0.0279 -0.01,-0.005 -0.0275,-0.005 -0.0386,-0.009 -0.0141,-0.005 -0.0239,-0.0124 -0.0359,-0.0186 -0.0239,-0.0124 -0.0451,-0.0259 -0.0717,-0.0371 -0.0106,-0.004 -0.0269,-0.005 -0.0386,-0.009 -0.0163,-0.005 -0.0397,-0.0206 -0.0538,-0.0278 -0.006,-0.003 -0.0119,-0.006 -0.0179,-0.009 -0.006,-0.003 -0.0147,-0.005 -0.0179,-0.009 -0.002,-0.003 0.007,-0.007 0.003,-0.009 -0.004,-0.002 -0.0137,4e-5 -0.0206,6e-5"
                   style="fill:none;stroke:#0f6a7b;stroke-width:0.40000001;stroke-linecap:butt;stroke-linejoin:miter;stroke-miterlimit:4;stroke-opacity:1;stroke-dasharray:none" />
                <path
                   transform="translate(-16.244385,297.66571)"
                   inkscape:connector-curvature="0"
                   id="path4195"
                   d="m 444.1,320.30363 c 0.16527,-0.085 0.004,-0.0118 0.11705,-0.047 0.0342,-0.0107 0.06,-0.0265 0.0936,-0.0376 0.0214,-0.007 0.046,-0.0118 0.0675,-0.0189 0.0336,-0.0111 0.0624,-0.0251 0.0936,-0.0376 0.0156,-0.006 0.0286,-0.0144 0.0468,-0.0188 0.0346,-0.008 0.0733,-0.0114 0.10869,-0.019 0.009,-0.002 0.0145,-0.007 0.0234,-0.009 0.0139,-0.004 0.0305,-0.005 0.044,-0.009 0.0172,-0.005 0.0283,-0.0148 0.0468,-0.0188 0.0132,-0.003 0.0274,0.002 0.0413,-1.3e-4 0.0138,-0.002 0.11621,-0.0244 0.13205,-0.0284 0.023,-0.006 0.0431,-0.0146 0.0674,-0.0189 0.0134,-0.002 0.0281,0.003 0.0413,-1.3e-4 0.007,-10e-4 -0.003,-0.007 0.003,-0.009 0.011,-0.004 0.0276,0.002 0.0413,-1.3e-4 0.15609,-0.023 -0.0332,0.003 0.0674,-0.0188 0.0132,-0.003 0.0303,0.004 0.0413,-1.3e-4 0.005,-0.002 -0.003,-0.007 0.003,-0.009 0.005,-0.002 0.0138,8e-4 0.0206,-7e-5 0.0152,-0.002 0.0294,-0.006 0.044,-0.009 0.0146,-0.003 0.0301,-0.006 0.044,-0.009 0.009,-0.003 0.0141,-0.007 0.0234,-0.009 0.007,-0.001 0.0137,-4e-5 0.0206,-6e-5 0.007,-2e-5 0.0137,-4e-5 0.0206,-7e-5"
                   style="fill:none;stroke:#0f6a7b;stroke-width:0.40000001;stroke-linecap:butt;stroke-linejoin:miter;stroke-miterlimit:4;stroke-opacity:1;stroke-dasharray:none" />
                <path
                   id="path4199"
                   d="m 426.70849,333.5687 c -0.10682,0.24918 -0.59154,0.51904 -1.08223,0.60244 -0.49031,0.0833 -0.80012,-0.0512 -0.69243,-0.30024 0.10757,-0.24873 0.59118,-0.51781 1.08062,-0.60131 0.48981,-0.0836 0.80074,0.0502 0.69404,0.29911 0,0 0,0 0,0"
                   style="fill:#5cadbd;fill-opacity:1;stroke:none"
                   transform="matrix(1.3258525,0.36944682,-0.31644498,1.1356422,-29.860742,81.154085)"
                   inkscape:connector-curvature="0" />
              </g>
            </g>
            <g
               transform="translate(289,342)"
               id="g5504">
              <path
                 style="fill:#47a2b4;fill-opacity:1;stroke:none"
                 d="m 598.23267,370.58997 c 0,0 -10.19053,-2.24196 -6.36175,-5.04621 4.95731,-3.63079 13.88192,-0.0353 13.88192,-0.0353 0,0 -3.25115,-5.10283 4.42579,-5.78229 9.24196,-0.81798 12.38003,4.48549 12.38003,4.48549 0,0 8.059,-4.01777 14.75283,-1.41961 8.76713,3.40289 -3.89761,7.48678 -3.89761,7.48678 0,0 7.75557,1.58569 5.91738,4.15993 -2.34609,3.28551 -11.6065,0.50473 -11.6065,0.50473 0,0 3.46284,6.25198 -6.218,6.42729 -10.71178,0.19398 -11.99173,-4.7879 -11.99173,-4.7879 0,0 -12.31385,3.36503 -16.5727,-0.41179 -4.42287,-3.92226 5.29034,-5.58116 5.29034,-5.58116 0,0 0,2e-5 0,2e-5"
                 id="path5026"
                 inkscape:connector-curvature="0"
                 sodipodi:nodetypes="cscscscscscsc" />
              <path
                 style="fill:#3197ab;fill-opacity:1;stroke:none"
                 d="m 608.13115,366.88428 c 0,0 -1.89877,-3.95156 3.77522,-4.62073 6.39012,-0.75363 10.04831,3.25282 10.04831,3.25282 0,0 8.05691,-3.36777 12.23248,-1.09369 4.73231,2.5773 -5.92967,5.43697 -5.92967,5.43697 0,0 7.79152,1.15792 5.81534,3.45035 -1.70849,1.98191 -9.79978,-0.24958 -9.79978,-0.24958 0,0 4.05314,5.96935 -3.47917,6.33259 -8.01591,0.38656 -8.84263,-4.91165 -8.84263,-4.91165 0,0 -10.47886,3.35079 -13.82987,0.59094 -3.45036,-2.84167 5.16018,-4.39055 5.16018,-4.39055 0,0 -7.57651,-1.66169 -5.81703,-3.43251 2.28434,-2.29906 10.66662,-0.36496 10.66662,-0.36496 0,0 0,0 0,0"
                 id="path5020"
                 inkscape:connector-curvature="0"
                 sodipodi:nodetypes="cscscscscscsc" />
              <g
                 id="g4398"
                 transform="translate(-0.3125,1.125)">
                <path
                   id="path4370"
                   d="m 634.80142,68.020858 c 0.029,0.30055 -0.51279,0.546824 -1.20986,0.549649 -0.69686,0.0028 -1.28358,-0.238748 -1.31061,-0.539149 -0.027,-0.29995 0.5144,-0.54518 1.20934,-0.548154 0.69514,-0.003 1.28222,0.237555 1.31113,0.537654 0,0 0,0 0,0"
                   style="fill:#1e7588;fill-opacity:1;stroke:none"
                   transform="translate(-16.244385,297.66571)"
                   inkscape:connector-curvature="0" />
                <path
                   id="path4372"
                   d="m 637.21007,69.302667 c 0.0211,0.206641 -0.32161,0.375688 -0.7654,0.377383 -0.4437,0.0017 -0.81977,-0.164551 -0.84002,-0.371126 -0.0202,-0.20636 0.32234,-0.374917 0.7652,-0.376678 0.44294,-0.0018 0.81915,0.163995 0.84022,0.370421 0,0 0,0 0,0"
                   style="fill:#1e7588;fill-opacity:1;stroke:none"
                   transform="translate(-16.244385,297.66571)"
                   inkscape:connector-curvature="0" />
                <path
                   id="path4374"
                   d="m 641.09035,71.384459 c 0.0316,0.283668 -0.50034,0.515793 -1.18792,0.5181 -0.68739,0.0023 -1.26865,-0.225963 -1.29843,-0.509491 -0.0297,-0.283126 0.50183,-0.514332 1.18743,-0.516779 0.6858,-0.0024 1.2674,0.224904 1.29892,0.50817 0,0 0,0 0,0"
                   style="fill:#1e7588;fill-opacity:1;stroke:none"
                   transform="translate(-16.244385,297.66571)"
                   inkscape:connector-curvature="0" />
                <path
                   id="path4376"
                   d="m 639.38859,73.50857 c 0.0273,0.25639 -0.49656,0.466076 -1.16992,0.468047 -0.67317,0.002 -1.23961,-0.20442 -1.26533,-0.460685 -0.0257,-0.255939 0.49781,-0.464878 1.16941,-0.466973 0.67179,-0.0021 1.23858,0.203548 1.26584,0.459611 0,0 0,0 0,0"
                   style="fill:#1e7588;fill-opacity:1;stroke:none"
                   transform="translate(-16.244385,297.66571)"
                   inkscape:connector-curvature="0" />
                <path
                   id="path4378"
                   d="m 632.98885,74.511778 c 0.0246,0.272462 -0.50136,0.49509 -1.17461,0.496919 -0.67306,0.0018 -1.23715,-0.217728 -1.26008,-0.490056 -0.0229,-0.271961 0.50269,-0.493748 1.17409,-0.495709 0.67159,-0.002 1.23604,0.216753 1.2606,0.488846 0,0 0,0 0,0"
                   style="fill:#1e7588;fill-opacity:1;stroke:none"
                   transform="translate(-16.244385,297.66571)"
                   inkscape:connector-curvature="0" />
                <path
                   id="path4380"
                   d="m 627.92111,71.956278 c 0.0228,0.291136 -0.47237,0.529131 -1.10577,0.531185 -0.63324,0.0021 -1.16356,-0.232502 -1.18464,-0.523505 -0.0211,-0.290584 0.47377,-0.527609 1.10533,-0.529796 0.63173,-0.0022 1.16236,0.231399 1.18508,0.522116 0,0 0,0 0,0"
                   style="fill:#1e7588;fill-opacity:1;stroke:none"
                   transform="translate(-16.244385,297.66571)"
                   inkscape:connector-curvature="0" />
                <path
                   id="path4382"
                   d="m 629.63235,68.268936 c 0.0244,0.302044 -0.50754,0.549335 -1.188,0.55192 -0.68026,0.0026 -1.24986,-0.2404 -1.27238,-0.542296 -0.0225,-0.301443 0.5091,-0.547683 1.18748,-0.550414 0.67858,-0.0027 1.24853,0.2392 1.2729,0.54079 0,0 0,0 0,0"
                   style="fill:#1e7588;fill-opacity:1;stroke:none"
                   transform="translate(-17.119385,298.66571)"
                   inkscape:connector-curvature="0" />
                <path
                   transform="translate(-16.244385,297.66571)"
                   inkscape:connector-curvature="0"
                   id="path4384"
                   d="m 627.8522,69.499226 c 0.10329,0.0085 0.2083,0.01342 0.3099,0.0255 0.0446,0.0053 0.0799,0.0225 0.12525,0.02621 0.2222,0.01829 0.15455,-0.02922 0.37161,0.02527 0.0508,0.01275 0.0746,0.04185 0.12749,0.05293 0.0374,0.0078 0.0838,-0.006 0.1232,-4.73e-4 0.0279,0.0037 0.0425,0.01766 0.0638,0.02647 0.0212,0.0088 0.0498,0.01524 0.0638,0.02648 0.01,0.0079 -0.0128,0.02049 0.002,0.02672 0.015,0.0062 0.0466,-0.0065 0.0616,-2.36e-4 0.0301,0.0125 -0.0258,0.04094 0.004,0.05344 0.085,0.03531 0.058,-0.04477 0.0638,0.02649 7.3e-4,0.0089 -0.0128,0.0205 0.002,0.02673 0.015,0.0062 0.0466,-0.0065 0.0616,-2.34e-4 0.015,0.0062 -0.007,0.01881 0.002,0.02674 0.0139,0.01125 0.0499,0.01526 0.0638,0.02651 0.01,0.0079 -0.0128,0.02051 0.002,0.02674 0.015,0.0062 0.0411,-1.56e-4 0.0616,-2.33e-4 7.3e-4,0.0089 -0.007,0.01882 0.002,0.02675 0.014,0.01125 0.0836,0.01754 0.0639,0.02652 -0.0198,0.009 -0.0426,-0.01769 -0.0639,-0.02652"
                   style="fill:none;stroke:#1e7588;stroke-width:0.40000001;stroke-linecap:butt;stroke-linejoin:miter;stroke-miterlimit:4;stroke-opacity:1;stroke-dasharray:none" />
                <path
                   transform="translate(-16.244385,297.66571)"
                   inkscape:connector-curvature="0"
                   id="path4386"
                   d="m 633.16453,68.27985 c 0.007,0.07082 0.0131,0.141655 0.0196,0.212523 0.002,0.01774 0.0112,0.03574 0.005,0.05317 -0.0102,0.02753 -0.044,0.05249 -0.0542,0.08003 -0.006,0.01744 0.0163,0.03633 0.005,0.0532 -0.008,0.01196 -0.0471,0.01556 -0.0591,0.02685 -0.008,0.008 0.009,0.01815 0.002,0.02661 -0.0256,0.03776 -0.0947,0.06837 -0.11339,0.106965 -0.008,0.01725 0.003,0.03549 0.005,0.05326 0.002,0.01777 0.003,0.0355 0.005,0.05327 0.008,0.08882 0.0163,0.177676 0.0244,0.266571 0.006,0.06257 0.0133,-0.01265 -0.0568,0.0536 -0.009,0.0082 0.006,0.06804 0.007,0.08006 0.007,0.07119 0.013,0.14241 0.0195,0.213655"
                   style="fill:none;stroke:#1e7588;stroke-width:0.40000001;stroke-linecap:butt;stroke-linejoin:miter;stroke-miterlimit:4;stroke-opacity:1;stroke-dasharray:none" />
                <path
                   transform="translate(-16.244385,297.66571)"
                   inkscape:connector-curvature="0"
                   id="path4388"
                   d="m 636.18416,69.547258 c 0.0119,0.119593 0.0664,0.08154 -0.0485,0.133973 -0.13561,0.0619 0.0243,-0.01701 -0.11564,0.08075 -0.0151,0.01055 -0.0427,0.01683 -0.0592,0.027 -0.0421,0.02591 -0.0736,0.05488 -0.11571,0.08079 -0.033,0.02031 -0.0789,0.036 -0.11838,0.05403 -0.0592,0.02702 -0.1184,0.05404 -0.17761,0.08107 -0.0197,0.009 -0.0395,0.01803 -0.0592,0.02703 -0.0197,0.009 -0.0473,0.01566 -0.0592,0.02703 -0.008,0.008 0.002,0.01788 0.003,0.0268 -0.0188,0.01796 -0.0327,0.03711 -0.0566,0.05385 -0.0151,0.01057 -0.0473,0.01567 -0.0593,0.02705 -0.0168,0.01607 0.0465,0.05349 0.005,0.05364 -0.0206,7.6e-5 -0.002,-0.0179 -0.003,-0.02682"
                   style="fill:none;stroke:#1e7588;stroke-width:0.40000001;stroke-linecap:butt;stroke-linejoin:miter;stroke-miterlimit:4;stroke-opacity:1;stroke-dasharray:none" />
                <path
                   transform="translate(-16.244385,297.66571)"
                   inkscape:connector-curvature="0"
                   id="path4390"
                   d="m 640.1102,71.522991 c -0.14068,-0.01072 -0.2479,-0.06113 -0.38183,-0.07978 -0.0379,-0.0053 -0.26121,9.02e-4 -0.3108,0.0011 -0.14503,5e-4 -0.29005,0.001 -0.43506,0.0015 -0.0415,1.43e-4 -0.0837,-0.0027 -0.12428,4.29e-4 -0.0836,0.0064 -0.16212,0.02148 -0.24572,0.02787 -0.0406,0.0032 -0.0846,-0.0041 -0.12428,4.28e-4 -0.0444,0.005 -0.077,0.0224 -0.12144,0.02744 -0.10667,0.01208 -0.26615,-0.0108 -0.3728,0.0013 -0.0444,0.005 -0.0764,0.02335 -0.12147,0.02744 -0.0604,0.0055 -0.12425,4.26e-4 -0.18637,6.4e-4 -0.16567,5.69e-4 -0.33131,0.0011 -0.49694,0.0017 -0.0207,7.1e-5 -0.0414,1.42e-4 -0.0621,2.13e-4 -0.0207,7.1e-5 -0.0482,-0.0062 -0.0621,2.13e-4 -0.014,0.0064 0.0167,0.02061 0.003,0.02701 -0.014,0.0064 -0.0414,1.42e-4 -0.0621,2.13e-4 -0.12422,4.26e-4 -0.24843,8.52e-4 -0.37264,0.0013"
                   style="fill:none;stroke:#1e7588;stroke-width:0.40000001;stroke-linecap:butt;stroke-linejoin:miter;stroke-miterlimit:4;stroke-opacity:1;stroke-dasharray:none" />
                <path
                   transform="translate(-16.244385,297.66571)"
                   inkscape:connector-curvature="0"
                   id="path4392"
                   d="m 637.93809,73.376545 c -0.69959,-0.471858 0.11476,0.05416 -0.33153,-0.189795 -0.0296,-0.01617 -0.0404,-0.03745 -0.0679,-0.05427 -0.0174,-0.01062 -0.0478,-0.01641 -0.0651,-0.02703 -0.055,-0.0336 -0.0808,-0.07489 -0.13577,-0.10848 -0.0521,-0.03184 -0.13926,-0.05042 -0.19525,-0.08102 -0.0296,-0.01614 -0.0382,-0.03805 -0.0678,-0.05419 -0.28128,-0.116711 -0.009,0.0073 -0.19784,-0.108135 -0.0173,-0.0106 -0.0507,-0.01554 -0.065,-0.02697 -0.01,-0.0081 0.007,-0.01911 -0.003,-0.02717 -0.0285,-0.02282 -0.10149,-0.03111 -0.12998,-0.05393 -0.01,-0.0081 0.007,-0.0191 -0.003,-0.02716 -0.0285,-0.02281 -0.0952,-0.03272 -0.12993,-0.0539 -0.0274,-0.01677 -0.0403,-0.03732 -0.0677,-0.05409 -0.0173,-0.01058 -0.0507,-0.01551 -0.0649,-0.02693 -0.01,-0.008 0.007,-0.01909 -0.003,-0.02713 -0.0285,-0.02279 -0.10139,-0.03106 -0.12983,-0.05385 -0.0995,-0.0795 0.14769,0.03525 -0.0676,-0.05403"
                   style="fill:none;stroke:#1e7588;stroke-width:0.40000001;stroke-linecap:butt;stroke-linejoin:miter;stroke-miterlimit:4;stroke-opacity:1;stroke-dasharray:none" />
                <path
                   transform="translate(-16.244385,297.66571)"
                   inkscape:connector-curvature="0"
                   id="path4394"
                   d="m 632.40246,74.23969 c 0.0264,-0.06274 -0.0354,-0.128385 -0.017,-0.19135 0.008,-0.02844 0.0368,-0.05476 0.0551,-0.08213 0.0183,-0.02737 0.033,-0.05531 0.0551,-0.0821 0.0525,-0.06382 0.0899,-0.05917 0.1125,-0.13683 0.008,-0.02692 -0.0152,-0.0549 -0.007,-0.08183 0.008,-0.02839 0.0394,-0.0543 0.055,-0.08199 0.0203,-0.0361 0.0238,-0.07434 0.0525,-0.109204 0.01,-0.01198 0.0477,-0.01589 0.0598,-0.02743 0.019,-0.01815 -0.0325,-0.136928 -0.0147,-0.163394 0.0129,-0.01929 0.0479,-0.03491 0.0574,-0.05463 0.008,-0.01762 -0.003,-0.03627 -0.005,-0.05442 -0.007,-0.07254 -0.0131,-0.145049 -0.0196,-0.217537 -0.007,-0.08151 -0.0147,-0.162997 -0.022,-0.244446 -8.1e-4,-0.009 -0.002,-0.01811 -0.002,-0.02714 -8.1e-4,-0.009 -0.0165,-0.02071 -0.002,-0.02714 0.014,-0.0064 0.0415,-1.33e-4 0.0622,-1.99e-4"
                   style="fill:none;stroke:#1e7588;stroke-width:0.40000001;stroke-linecap:butt;stroke-linejoin:miter;stroke-miterlimit:4;stroke-opacity:1;stroke-dasharray:none" />
                <path
                   transform="translate(-16.244385,297.66571)"
                   inkscape:connector-curvature="0"
                   id="path4396"
                   d="m 626.75993,72.162882 c 0.0825,-2.74e-4 0.16583,-0.0065 0.24774,-8.21e-4 0.0458,0.0033 0.0804,0.02284 0.12595,0.02663 0.0612,0.0051 0.1244,-0.0049 0.18585,-6.14e-4 0.0648,0.0045 0.12347,0.02106 0.18795,0.02643 0.0815,0.0068 0.16628,-0.0076 0.24785,-8.18e-4 0.0645,0.0054 0.1241,0.01972 0.18803,0.02644 0.0461,0.0048 0.26569,-8.75e-4 0.3099,-10e-4 0.26862,-8.85e-4 0.53727,-0.0018 0.80594,-0.0027 0.14468,-4.76e-4 0.28938,-9.53e-4 0.43408,-0.0014 0.062,-2.04e-4 0.12793,0.0082 0.18606,-6.13e-4 0.0275,-0.004 0.0323,-0.02315 0.0598,-0.02726 0.0365,-0.0055 0.29887,-9.86e-4 0.37214,-0.0012 0.0206,-6.8e-5 0.0439,0.0038 0.062,-2.05e-4 0.0256,-0.0058 0.0341,-0.02146 0.0598,-0.02726 0.0181,-0.004 0.0414,-1.36e-4 0.062,-2.05e-4 0.0206,-6.8e-5 0.0414,-1.36e-4 0.062,-2.05e-4 0.0827,-2.73e-4 0.16543,-5.46e-4 0.24814,-8.2e-4"
                   style="fill:none;stroke:#1e7588;stroke-width:0.40000001;stroke-linecap:butt;stroke-linejoin:miter;stroke-miterlimit:4;stroke-opacity:1;stroke-dasharray:none" />
                <path
                   id="path4368"
                   d="m 602.56112,62.083702 c -0.3159,1.16001 -2.23793,2.634531 -4.28624,3.288105 -2.04192,0.651534 -3.42726,0.237187 -3.101,-0.92018 0.32519,-1.153571 2.23034,-2.614766 4.26193,-3.268931 2.03792,-0.656201 3.44016,-0.255179 3.12531,0.901006 0,0 0,0 0,0"
                   style="fill:#59acbd;fill-opacity:1;stroke:none"
                   transform="matrix(0.96190522,0.4546683,-0.3557104,0.75254794,62.749257,48.927899)"
                   inkscape:connector-curvature="0" />
              </g>
            </g>
          </g>
        </g>
      </g>
    </g>
  </g>
</svg>
