<?xml version="1.0" encoding="UTF-8" standalone="no"?>
<!-- Created with Inkscape (http://www.inkscape.org/) -->

<svg
   xmlns:dc="http://purl.org/dc/elements/1.1/"
   xmlns:cc="http://creativecommons.org/ns#"
   xmlns:rdf="http://www.w3.org/1999/02/22-rdf-syntax-ns#"
   xmlns:svg="http://www.w3.org/2000/svg"
   xmlns="http://www.w3.org/2000/svg"
   xmlns:sodipodi="http://sodipodi.sourceforge.net/DTD/sodipodi-0.dtd"
   xmlns:inkscape="http://www.inkscape.org/namespaces/inkscape"
   width="48.227364"
   height="63.051044"
   id="svg4448"
   version="1.1"
   inkscape:version="0.48.4 r9939"
   sodipodi:docname="Nouveau document 12">
  <defs
     id="defs4450" />
  <sodipodi:namedview
     id="base"
     pagecolor="#ffffff"
     bordercolor="#666666"
     borderopacity="1.0"
     inkscape:pageopacity="0.0"
     inkscape:pageshadow="2"
     inkscape:zoom="1.2701172"
     inkscape:cx="24.113682"
     inkscape:cy="31.52552"
     inkscape:document-units="px"
     inkscape:current-layer="layer1"
     showgrid="false"
     inkscape:window-width="1867"
     inkscape:window-height="1056"
     inkscape:window-x="53"
     inkscape:window-y="24"
     inkscape:window-maximized="1"
     fit-margin-top="0"
     fit-margin-left="0"
     fit-margin-right="0"
     fit-margin-bottom="0" />
  <metadata
     id="metadata4453">
    <rdf:RDF>
      <cc:Work
         rdf:about="">
        <dc:format>image/svg+xml</dc:format>
        <dc:type
           rdf:resource="http://purl.org/dc/dcmitype/StillImage" />
        <dc:title></dc:title>
      </cc:Work>
    </rdf:RDF>
  </metadata>
  <g
     inkscape:label="Calque 1"
     inkscape:groupmode="layer"
     id="layer1"
     transform="translate(-350.88632,-500.83666)">
    <g
       id="g4173"
       style="stroke:none;display:inline"
       transform="translate(99.265156,-326.63418)">
      <g
         id="g4169"
         style="stroke:none">
        <path
           style="fill:#2b8fa3;fill-opacity:1;stroke:none"
           d="m 260.80357,551.95163 c 0.70668,-3.45561 -4.72038,-5.58626 -5.53571,-9.01786 -0.65589,-2.76054 -0.9697,-5.79553 0.71428,-8.48214 4.47053,-7.13228 11.53781,-12.05044 19.10714,-14.82143 2.2355,-0.81837 3.60361,-0.29129 5.35715,0.17857 6.08261,1.62983 7.54676,9.64807 8.39285,15.44643 0.58025,3.97654 2.30978,15.96797 0.0893,22.32143 -1.66674,4.76903 -6.79602,7.47846 -7.85714,12.67857 -0.13892,0.68077 1.21234,-0.80455 1.51785,-1.42857 1.16102,-2.37147 1.96613,-3.25684 3.39286,-4.46429 2.80599,-2.37474 2.45395,-2.14655 3.31982,-3.39286 0.36459,-0.5248 0.60875,-1.05742 0.60875,-1.69643 -0.009,-1.68058 0.6431,-1.94645 1.60714,-2.05358 0.88629,0.10648 0.89006,0.7934 0.98215,1.33929 0.0673,0.39916 -0.11518,0.83617 -0.35714,1.16071 -0.25656,0.34412 -1.07143,0.71429 -1.07143,0.71429 0,0 -0.49408,0.36106 -0.625,0.625 -0.29364,0.59199 -0.0765,1.33178 -0.26786,1.96428 -0.33541,1.1084 -1.51786,3.125 -1.51786,3.125 0,0 -1.40606,1.97497 -2.23214,2.85715 -1.5272,1.63091 -3.23562,3.09346 -5,4.46428 -1.55789,1.21039 -3.25626,2.22892 -4.91071,3.30357 -1.97364,1.28199 -3.85371,2.74577 -5.98215,3.75 -1.61722,0.76303 -3.31906,1.94932 -5.08928,1.69643 -0.46585,-0.0666 -1.22727,-0.33772 -1.16072,-0.80357 0.21296,-1.49071 2.97246,-0.69174 4.28572,-1.42857 1.08673,-0.60973 2.85714,-2.41071 2.85714,-2.41071 0,0 -2.28378,0.71497 -3.39286,1.16071 -0.8525,0.34262 -1.63619,0.84771 -2.5,1.16071 -1.30317,0.47221 -2.63357,1.00081 -4.01785,1.07143 -0.75253,0.0384 -2.07591,0.38 -2.23215,-0.35714 -0.1472,-0.6945 1.17899,-0.79208 1.78572,-1.16071 0.87706,-0.53287 1.71684,-1.15973 2.67857,-1.51786 1.13773,-0.42367 2.41917,-0.3319 3.57143,-0.71429 1.25087,-0.41511 3.57143,-1.69643 3.57143,-1.69643 l -0.17858,-0.98214 -1.07142,0.17857 c 0,0 -2.9363,0.98639 -4.46429,1.07143 -2.1562,0.12 -4.41326,-0.0276 -6.42857,-0.80357 -1.69514,-0.65269 -3.26239,-1.76304 -4.46429,-3.125 -1.18042,-1.33761 -2.14731,-2.98338 -2.5,-4.73215 -0.40166,-1.99157 -0.008,-4.04358 0.53572,-6.07142 0.54336,-2.02784 2.42695,-4.52692 3.57143,-5.625 1.14448,-1.09808 4.50865,-1.51618 4.9107,-3.48216 z"
           id="path4165"
           inkscape:connector-curvature="0"
           transform="translate(0,308.2677)"
           sodipodi:nodetypes="cssssssssssccascsscssssssscssssssscccsssszzsc" />
        <path
           style="fill:#2b8fa3;fill-opacity:1;stroke:none"
           d="m 292.37603,556.26924 c -0.3031,-0.56505 2.28735,-13.16742 2.46224,-13.35295 0.16474,-0.17477 0.39523,0.11165 0.34724,0.63135 -0.29597,3.20512 -1.60519,9.65487 -1.07328,9.75429 0.59848,0.11187 4.11561,-7.33205 5.55583,-10.73288 0.2686,-0.63426 0.15784,0.34724 0.15784,0.34724 0,0 -1.38964,5.07311 -2.55695,7.35517 -1.16731,2.28206 -2.08497,4.24557 -4.35628,6.21876 -0.14604,0.12687 -0.4452,-0.0505 -0.53664,-0.22098 z"
           id="path4167"
           inkscape:connector-curvature="0"
           transform="translate(0,308.2677)"
           sodipodi:nodetypes="sssssczss" />
      </g>
      <path
         sodipodi:nodetypes="sszcssssszzcs"
         transform="translate(0,308.2677)"
         inkscape:connector-curvature="0"
         id="path4161"
         d="m 268.83929,533.64806 c -2.32303,-0.15638 -4.81188,0.60905 -5.80358,2.32142 -1.03721,1.79095 -1.76265,3.98768 1.07143,8.30358 2.83407,4.31589 5.75939,7.21376 17.23215,17.41071 4.99744,-0.19201 4.23555,-6.46048 4.10714,-10.08928 -0.14692,-4.15161 -0.59942,-8.20087 -1.33929,-12.23215 -0.49829,-2.715 -0.93937,-3.6677 -2.41071,-4.55357 -0.45895,-0.27633 -1.10717,-0.19237 -1.60715,0 -1.16032,0.44644 -2.24284,0.98894 -2.23214,2.23214 0.0515,5.98319 4.10714,11.79355 4.73214,14.46429 0.625,2.67074 -1.15119,4.46949 -2.23214,3.21428 -1.08095,-1.25521 -4.19643,-9.99999 -4.19643,-9.99999 0,0 -2.7461,-10.76343 -7.32142,-11.07143 z"
         style="fill:#55a3b4;fill-opacity:1;stroke:none" />
      <path
         sodipodi:nodetypes="ssscsscs"
         transform="translate(0,308.2677)"
         inkscape:connector-curvature="0"
         id="path4163"
         d="m 259.46428,557.84448 c -4.7802,0.80102 -5.04492,7.3107 -3.74999,9.55357 1.38072,2.39148 3.76023,3.15739 6.07142,3.57143 5.77225,1.03408 9.10715,0.35715 9.10715,0.35715 0,0 5.8314,-1.0217 7.41071,-3.21429 1.63865,-2.275 -0.71487,-4.37805 -2.41071,-5.35714 -6.23606,-3.60039 -6.19415,-3.80881 -9.01786,-4.55357 -2.442,-0.59208 -2.07672,-1.25097 -7.41072,-0.35715 z"
         style="fill:#55a3b4;fill-opacity:1;stroke:none" />
    </g>
  </g>
</svg>
