<?xml version="1.0" encoding="utf-8"?>
<!-- Generator: Adobe Illustrator 16.0.0, SVG Export Plug-In . SVG Version: 6.00 Build 0)  -->
<!DOCTYPE svg PUBLIC "-//W3C//DTD SVG 1.1//EN" "http://www.w3.org/Graphics/SVG/1.1/DTD/svg11.dtd">
<svg version="1.1" id="Layer_1" xmlns="http://www.w3.org/2000/svg" xmlns:xlink="http://www.w3.org/1999/xlink" x="0px" y="0px"
	 width="612px" height="792px" viewBox="0 0 612 792" enable-background="new 0 0 612 792" xml:space="preserve">
<g id="Shape_3">
	<g>
		<path fill="#503A2F" d="M162.04,451.321c-36.438-26.417-67.503-57.705-72.116-80.77c-3.34-16.701,7.591-30.365,22.774-35.831
			c18.091-6.513,28.922-1.442,30.44,3.112s-2.237,7.819-6.832,7.819c-3.795,0-2.509-4.905,0.683-4.479
			c1.139,0.152,0.677-0.809,0-0.911c-4.063-0.615-7.806,4.905-1.518,6.908c8.451,2.692,13.816-8.199,7.591-13.664
			c-5.668-4.977-18.869-5.304-29.15-2.125c-16.701,5.162-28.847,20.041-26.721,37.349c4.036,32.861,58.456,77.389,76.975,86.843
			C173.399,460.286,162.04,451.321,162.04,451.321z"/>
	</g>
</g>
<g id="Shape_3_copy_10">
	<g>
		<path fill="#503A2F" d="M166.566,454.322c-18.201-13.195-35.008-29.128-37.313-40.649c-1.668-8.342,3.792-15.168,11.376-17.898
			c9.037-3.253,14.106-0.758,14.864,1.517s-0.285,3.586-2.578,3.488c-1.841-0.078-1.441-1.796,0-1.213
			c0.994,0.401,0.756-0.559,0.454-0.962c-1.345-1.79-6.087,1.901-1.314,3.135c4.373,1.131,6.573-4.044,3.742-6.572
			c-2.811-2.509-9.425-2.649-14.561-1.062c-8.342,2.579-14.41,10.011-13.348,18.656c2.016,16.415,32.155,39.133,41.256,44.138
			C182.25,464.109,166.566,454.322,166.566,454.322z"/>
	</g>
</g>
<g id="Shape_3_copy_9">
	<g>
		<path fill="#503A2F" d="M159.78,450.006c-7.498-6.134-37.968-24.396-53.687-20.642c-8.279,1.978-13.171,9.664-12.88,17.681
			c0.179,4.936,2.5,10.814,5.919,11.933c3.42,1.119,7.163-2.392,5.136-5.179c-1.776-2.441-5.071,0.596-3.06,1.396
			c0.251,0.101,0.562,0.17,0.362-0.792c-0.199-0.961,2.034-0.939,2.025,0.582c-0.013,2.101-1.916,3.152-3.521,2.846
			c-4.008-0.766-5.555-6.669-5.523-11.863c0.045-7.418,4.619-14.381,12.812-15.737c11.316-1.872,31.305,7.222,49.226,18.425
			C156.59,448.655,170.578,458.839,159.78,450.006z"/>
	</g>
</g>
<g id="Shape_5">
	<g>
		<path fill="#503A2F" d="M201.758,358.556c-4.227-9.365-29.616-3.646-44.338,1.995s-29.846,16.808-33.613,28.748
			c-3.768,11.939-1.595,12.347-0.977,5.885c0.618-6.462,11.606-22.733,35.117-32.242s41.575-8.752,40.985-1.988
			s-10.394,12.382-16.422,8.621c-3.654-2.28,2.02-5.729,3.521-3.152c0.214,0.368,2.747,0.921,0.814-0.988
			c-3.256-3.217-9.724,1.244-5.322,5.07C187.308,375.532,205.985,367.921,201.758,358.556z"/>
	</g>
</g>
<g id="Shape_4">
	<g>
		<path fill="#503A2F" d="M143.973,439.176c-20.952-13.664-32.49-23.837-51.316-22.926s-29.706,17.98-21.407,30.668
			c5.397,8.252,15.926,2.412,16.169-1.67c0.055-0.922-0.582-0.551-0.835,0.152c-1.091,3.024-10.628,7.667-14.348,0.531
			c-4.691-8.999-0.482-22.896,14.803-26.949c8.187-2.17,19.281,1.671,28.087,5.922c8.806,4.251,36.134,21.559,39.474,23.685
			C154.601,448.589,164.925,452.84,143.973,439.176z"/>
	</g>
</g>
<g id="Shape_2">
	<g>
		<path fill="#503A2F" d="M519.281,339.731c-41.556-15.103-178.849-16.093-261.744-7.591
			c-82.896,8.502-118.119,24.596-130.568,45.547c-12.449,20.952-3.947,48.28,32.187,72.572c0,0,11.842,6.983-3.948-5.162
			c-15.79-12.146-42.51-40.081-26.113-65.892c16.397-25.81,70.75-40.688,128.746-45.547c57.997-4.858,190.083-10.628,252.938,6.073
			c23.077,5.162,18.907,19.033,11.234,21.863c-9.19,3.39-20.192,5.01-30.517,5.01c-10.024,0-28.875-1.172-30.213-7.287
			c-1.062-4.858,9.262-7.136,10.477-2.429c0.547,2.12-3.037,2.277-5.162,2.581c-2.126,0.303,1.825,2.072,4.706,0.607
			c1.464-0.744,3.284-1.943,1.519-5.313c-1.67-3.188-7.052-2.836-10.476-1.974c-7.444,1.875-7.288,9.869,1.062,12.753
			c6.746,2.331,19.883,3.004,27.936,3.34c7.287,0.304,26.008-2.287,31.883-5.162C540.649,355.194,534.657,345.319,519.281,339.731z"
			/>
	</g>
</g>
<g id="Shape_1">
	<g>
		<path fill="#503A2F" d="M445.858,459.56c-30.294-2.196-59.255,3.115-83.716,8.611c-68.605,15.416-122.383,14.839-176.115-4.856
			c-21.16-7.756-39.473-21.867-43.572-39.776c-0.607-3.037-1.822-3.645-1.519-0.304c0.304,3.34,7.016,28.46,44.636,42.814
			c51.314,19.579,114.852,17.682,178.241,4.556c25.764-5.335,56.039-10.221,84.219-7.117c30.931,3.405,40.172,9.257,61.229,25.489
			C496.013,471.44,474.74,461.653,445.858,459.56z"/>
	</g>
</g>
<g>
</g>
<g>
</g>
<g>
</g>
<g>
</g>
<g>
</g>
<g>
</g>
</svg>
